%TF.GenerationSoftware,KiCad,Pcbnew,9.0.8-1.fc42*%
%TF.CreationDate,2026-04-09T21:42:06+03:00*%
%TF.ProjectId,mcu_adapter,6d63755f-6164-4617-9074-65722e6b6963,rev?*%
%TF.SameCoordinates,Original*%
%TF.FileFunction,Copper,L1,Top*%
%TF.FilePolarity,Positive*%
%FSLAX46Y46*%
G04 Gerber Fmt 4.6, Leading zero omitted, Abs format (unit mm)*
G04 Created by KiCad (PCBNEW 9.0.8-1.fc42) date 2026-04-09 21:42:06*
%MOMM*%
%LPD*%
G01*
G04 APERTURE LIST*
%TA.AperFunction,ComponentPad*%
%ADD10C,1.700000*%
%TD*%
%TA.AperFunction,ComponentPad*%
%ADD11R,1.700000X1.700000*%
%TD*%
%TA.AperFunction,ComponentPad*%
%ADD12C,1.346200*%
%TD*%
%TA.AperFunction,ViaPad*%
%ADD13C,0.550000*%
%TD*%
%TA.AperFunction,Conductor*%
%ADD14C,0.203200*%
%TD*%
%TA.AperFunction,Conductor*%
%ADD15C,0.406400*%
%TD*%
%TA.AperFunction,Conductor*%
%ADD16C,0.508000*%
%TD*%
G04 APERTURE END LIST*
D10*
%TO.P,U1,14,P14_5V*%
%TO.N,/5V*%
X156121100Y-97320100D03*
%TO.P,U1,13,P13_GND*%
%TO.N,/GND*%
X156121100Y-99860100D03*
%TO.P,U1,12,P12_3V3*%
%TO.N,/3V3*%
X156121100Y-102400100D03*
%TO.P,U1,11,P11_D10_MOSI*%
%TO.N,/D10*%
X156121100Y-104940100D03*
%TO.P,U1,10,P10_D9_MISO*%
%TO.N,/D9*%
X156121100Y-107480100D03*
%TO.P,U1,9,P9_D8_SCK*%
%TO.N,/D8*%
X156121100Y-110020100D03*
%TO.P,U1,8,P8_D7_RX*%
%TO.N,unconnected-(U1-P8_D7_RX-Pad8)*%
X156121100Y-112560100D03*
%TO.P,U1,7,P7_D6_TX*%
%TO.N,unconnected-(U1-P7_D6_TX-Pad7)*%
X140881100Y-112560100D03*
%TO.P,U1,6,P6_D5_SCL*%
%TO.N,/SCL*%
X140881100Y-110020100D03*
%TO.P,U1,5,P5_D4_SDA*%
%TO.N,/SDA*%
X140881100Y-107480100D03*
%TO.P,U1,4,P4_A3_D3*%
%TO.N,/D3*%
X140881100Y-104940100D03*
%TO.P,U1,3,P3_A2_D2*%
%TO.N,/D2*%
X140881100Y-102400100D03*
%TO.P,U1,2,P2_A1_D1*%
%TO.N,/D1*%
X140881100Y-99860100D03*
D11*
%TO.P,U1,1,P1_A0_D0*%
%TO.N,/D0*%
X140881100Y-97320100D03*
%TD*%
D12*
%TO.P,U$1,6,6*%
%TO.N,/D0*%
X146501100Y-99100100D03*
%TO.P,U$1,5,5*%
%TO.N,/D1*%
X146501100Y-101100100D03*
%TO.P,U$1,4,4*%
%TO.N,/D2*%
X148501100Y-99100100D03*
%TO.P,U$1,3,3*%
%TO.N,/D3*%
X148501100Y-101100100D03*
%TO.P,U$1,2,2*%
%TO.N,/SDA*%
X150501100Y-99100100D03*
%TO.P,U$1,1,1*%
%TO.N,/SCL*%
X150501100Y-101100100D03*
%TD*%
%TO.P,U$2,6,6*%
%TO.N,/D8*%
X146501100Y-103350100D03*
%TO.P,U$2,5,5*%
%TO.N,/D9*%
X146501100Y-105350100D03*
%TO.P,U$2,4,4*%
%TO.N,/D10*%
X148501100Y-103350100D03*
%TO.P,U$2,3,3*%
%TO.N,/3V3*%
X148501100Y-105350100D03*
%TO.P,U$2,2,2*%
%TO.N,/GND*%
X150501100Y-103350100D03*
%TO.P,U$2,1,1*%
%TO.N,/5V*%
X150501100Y-105350100D03*
%TD*%
D13*
%TO.N,/GND*%
X158026100Y-104305100D03*
X158026100Y-99860100D03*
X138976100Y-104305100D03*
X138976100Y-99860100D03*
X154216100Y-114465100D03*
X152311100Y-114465100D03*
X150406100Y-114465100D03*
X148501100Y-114465100D03*
X146596100Y-114465100D03*
X144691100Y-114465100D03*
X142786100Y-114465100D03*
X154216100Y-96050100D03*
X152311100Y-96050100D03*
X150406100Y-96050100D03*
X148501100Y-96050100D03*
X146596100Y-96050100D03*
X144691100Y-96050100D03*
X142786100Y-96050100D03*
%TD*%
D14*
%TO.N,/D8*%
X145224500Y-104626700D02*
X146501100Y-103350100D01*
X145224500Y-108013500D02*
X145224500Y-104626700D01*
X147231100Y-110020100D02*
X145224500Y-108013500D01*
X156121100Y-110020100D02*
X147231100Y-110020100D01*
%TO.N,/D9*%
X146501100Y-105400900D02*
X146501100Y-105350100D01*
X149215300Y-108115100D02*
X146501100Y-105400900D01*
X153479500Y-108115100D02*
X149215300Y-108115100D01*
X154114500Y-107480100D02*
X153479500Y-108115100D01*
X156121100Y-107480100D02*
X154114500Y-107480100D01*
D15*
%TO.N,/3V3*%
X149996100Y-106845100D02*
X148501100Y-105350100D01*
X152311100Y-106845100D02*
X149996100Y-106845100D01*
X154216100Y-104940100D02*
X152311100Y-106845100D01*
X154216100Y-103670100D02*
X154216100Y-104940100D01*
X155486100Y-102400100D02*
X154216100Y-103670100D01*
X156121100Y-102400100D02*
X155486100Y-102400100D01*
D16*
%TO.N,/5V*%
X150530100Y-105321100D02*
X150501100Y-105350100D01*
X151803100Y-105321100D02*
X150530100Y-105321100D01*
X152946100Y-104178100D02*
X151803100Y-105321100D01*
X152946100Y-99225100D02*
X152946100Y-104178100D01*
X154851100Y-97320100D02*
X152946100Y-99225100D01*
X156121100Y-97320100D02*
X154851100Y-97320100D01*
D14*
%TO.N,/D3*%
X147647119Y-102281200D02*
X143540000Y-102281200D01*
X143540000Y-102281200D02*
X140881100Y-104940100D01*
X148501100Y-101427219D02*
X147647119Y-102281200D01*
X148501100Y-101100100D02*
X148501100Y-101427219D01*
%TO.N,/D1*%
X145261100Y-99860100D02*
X146501100Y-101100100D01*
X140881100Y-99860100D02*
X145261100Y-99860100D01*
%TO.N,/D0*%
X144721100Y-97320100D02*
X146501100Y-99100100D01*
X140881100Y-97320100D02*
X144721100Y-97320100D01*
%TD*%
%TA.AperFunction,Conductor*%
%TO.N,/GND*%
G36*
X156406305Y-94602879D02*
G01*
X156666249Y-94619916D01*
X156671059Y-94620549D01*
X156925360Y-94671134D01*
X156930025Y-94672384D01*
X157175549Y-94755728D01*
X157180030Y-94757583D01*
X157412570Y-94872260D01*
X157416763Y-94874680D01*
X157632360Y-95018736D01*
X157636198Y-95021682D01*
X157831140Y-95192642D01*
X157834557Y-95196059D01*
X157949671Y-95327321D01*
X158005512Y-95390995D01*
X158008464Y-95394842D01*
X158152516Y-95610431D01*
X158154942Y-95614634D01*
X158269615Y-95847168D01*
X158271472Y-95851652D01*
X158354812Y-96097163D01*
X158356068Y-96101850D01*
X158406649Y-96356139D01*
X158407283Y-96360950D01*
X158424321Y-96620893D01*
X158424400Y-96623320D01*
X158424400Y-97075179D01*
X158424400Y-97100100D01*
X158424400Y-97236214D01*
X158448119Y-97416375D01*
X158459933Y-97506111D01*
X158459934Y-97506117D01*
X158530388Y-97769062D01*
X158634569Y-98020577D01*
X158770678Y-98256323D01*
X158770690Y-98256341D01*
X158936397Y-98472294D01*
X158936400Y-98472297D01*
X158936404Y-98472302D01*
X159128898Y-98664796D01*
X159128902Y-98664799D01*
X159128905Y-98664802D01*
X159344858Y-98830509D01*
X159344867Y-98830515D01*
X159344871Y-98830518D01*
X159344874Y-98830520D01*
X159344876Y-98830521D01*
X159580622Y-98966630D01*
X159580624Y-98966631D01*
X159580628Y-98966633D01*
X159832134Y-99070810D01*
X159832135Y-99070810D01*
X159832137Y-99070811D01*
X159858393Y-99077846D01*
X160095087Y-99141267D01*
X160364986Y-99176800D01*
X160476179Y-99176800D01*
X160500053Y-99176800D01*
X160502132Y-99176857D01*
X160826331Y-99195064D01*
X160830458Y-99195529D01*
X161149554Y-99249746D01*
X161153584Y-99250666D01*
X161464611Y-99340271D01*
X161468519Y-99341639D01*
X161767556Y-99465504D01*
X161771287Y-99467301D01*
X162030300Y-99610452D01*
X162054567Y-99623864D01*
X162058090Y-99626078D01*
X162322047Y-99813365D01*
X162325300Y-99815959D01*
X162566631Y-100031627D01*
X162569572Y-100034568D01*
X162785240Y-100275899D01*
X162787834Y-100279152D01*
X162975121Y-100543109D01*
X162977335Y-100546632D01*
X163052741Y-100683069D01*
X163117386Y-100800036D01*
X163133894Y-100829904D01*
X163135699Y-100833652D01*
X163259557Y-101132671D01*
X163260931Y-101136598D01*
X163350530Y-101447602D01*
X163351456Y-101451659D01*
X163405669Y-101770738D01*
X163406135Y-101774872D01*
X163424283Y-102098020D01*
X163424283Y-102102180D01*
X163406135Y-102425327D01*
X163405669Y-102429461D01*
X163351456Y-102748540D01*
X163350530Y-102752597D01*
X163260931Y-103063601D01*
X163259557Y-103067528D01*
X163135699Y-103366547D01*
X163133894Y-103370295D01*
X162977335Y-103653567D01*
X162975121Y-103657090D01*
X162787834Y-103921047D01*
X162785240Y-103924300D01*
X162569572Y-104165631D01*
X162566631Y-104168572D01*
X162325300Y-104384240D01*
X162322047Y-104386834D01*
X162058090Y-104574121D01*
X162054567Y-104576335D01*
X161771295Y-104732894D01*
X161767547Y-104734699D01*
X161468528Y-104858557D01*
X161464601Y-104859931D01*
X161153597Y-104949530D01*
X161149540Y-104950456D01*
X160830461Y-105004669D01*
X160826327Y-105005135D01*
X160527519Y-105021915D01*
X160527245Y-105021929D01*
X160520494Y-105022257D01*
X160519282Y-105021529D01*
X160498674Y-105023321D01*
X160497958Y-105023356D01*
X160497872Y-105023325D01*
X160496152Y-105023400D01*
X160476179Y-105023400D01*
X160472312Y-105024656D01*
X160464067Y-105026330D01*
X160357341Y-105035612D01*
X160357325Y-105035615D01*
X160087956Y-105092346D01*
X159827394Y-105181133D01*
X159579429Y-105300681D01*
X159579422Y-105300685D01*
X159347675Y-105449251D01*
X159135527Y-105624664D01*
X159135521Y-105624669D01*
X158946062Y-105824380D01*
X158946060Y-105824383D01*
X158782062Y-106045464D01*
X158645894Y-106284724D01*
X158539565Y-106538637D01*
X158464618Y-106803511D01*
X158422143Y-107075501D01*
X158412762Y-107350617D01*
X158412762Y-107350626D01*
X158424260Y-107482822D01*
X158424400Y-107486037D01*
X158424400Y-113479879D01*
X158424321Y-113482306D01*
X158408104Y-113729718D01*
X158407470Y-113734529D01*
X158359339Y-113976503D01*
X158358083Y-113981190D01*
X158278780Y-114214809D01*
X158276923Y-114219293D01*
X158167804Y-114440565D01*
X158165378Y-114444768D01*
X158028305Y-114649913D01*
X158025350Y-114653763D01*
X157862682Y-114839251D01*
X157859251Y-114842682D01*
X157673763Y-115005350D01*
X157669913Y-115008305D01*
X157464768Y-115145378D01*
X157460565Y-115147804D01*
X157239293Y-115256923D01*
X157234809Y-115258780D01*
X157001190Y-115338083D01*
X156996503Y-115339339D01*
X156754529Y-115387470D01*
X156749718Y-115388104D01*
X156515301Y-115403469D01*
X156502304Y-115404321D01*
X156499879Y-115404400D01*
X140502321Y-115404400D01*
X140499895Y-115404321D01*
X140485820Y-115403398D01*
X140252481Y-115388104D01*
X140247670Y-115387470D01*
X140005696Y-115339339D01*
X140001009Y-115338083D01*
X139767390Y-115258780D01*
X139762906Y-115256923D01*
X139541634Y-115147804D01*
X139537431Y-115145378D01*
X139332283Y-115008302D01*
X139328440Y-115005353D01*
X139142941Y-114842675D01*
X139139524Y-114839258D01*
X138976844Y-114653757D01*
X138973898Y-114649919D01*
X138836818Y-114444763D01*
X138834395Y-114440565D01*
X138725276Y-114219293D01*
X138723419Y-114214809D01*
X138701442Y-114150066D01*
X138644113Y-113981179D01*
X138642863Y-113976514D01*
X138594728Y-113734528D01*
X138594095Y-113729717D01*
X138577879Y-113482305D01*
X138577800Y-113479879D01*
X138577800Y-112463818D01*
X139903600Y-112463818D01*
X139903600Y-112656381D01*
X139941162Y-112845220D01*
X139941163Y-112845222D01*
X139941164Y-112845226D01*
X140014850Y-113023120D01*
X140121826Y-113183220D01*
X140257980Y-113319374D01*
X140418080Y-113426350D01*
X140595974Y-113500036D01*
X140595978Y-113500036D01*
X140595979Y-113500037D01*
X140784818Y-113537599D01*
X140784821Y-113537599D01*
X140784825Y-113537600D01*
X140784828Y-113537600D01*
X140977372Y-113537600D01*
X140977375Y-113537600D01*
X140977378Y-113537599D01*
X140977381Y-113537599D01*
X141071800Y-113518818D01*
X141166226Y-113500036D01*
X141344120Y-113426350D01*
X141504220Y-113319374D01*
X141640374Y-113183220D01*
X141747350Y-113023120D01*
X141821036Y-112845226D01*
X141858600Y-112656375D01*
X141858600Y-112463825D01*
X141858599Y-112463818D01*
X155143600Y-112463818D01*
X155143600Y-112656381D01*
X155181162Y-112845220D01*
X155181163Y-112845222D01*
X155181164Y-112845226D01*
X155254850Y-113023120D01*
X155361826Y-113183220D01*
X155497980Y-113319374D01*
X155658080Y-113426350D01*
X155835974Y-113500036D01*
X155835978Y-113500036D01*
X155835979Y-113500037D01*
X156024818Y-113537599D01*
X156024821Y-113537599D01*
X156024825Y-113537600D01*
X156024828Y-113537600D01*
X156217372Y-113537600D01*
X156217375Y-113537600D01*
X156217378Y-113537599D01*
X156217381Y-113537599D01*
X156311800Y-113518818D01*
X156406226Y-113500036D01*
X156584120Y-113426350D01*
X156744220Y-113319374D01*
X156880374Y-113183220D01*
X156987350Y-113023120D01*
X157061036Y-112845226D01*
X157098600Y-112656375D01*
X157098600Y-112463825D01*
X157061036Y-112274974D01*
X156987350Y-112097080D01*
X156880374Y-111936980D01*
X156744220Y-111800826D01*
X156584120Y-111693850D01*
X156406226Y-111620164D01*
X156406222Y-111620163D01*
X156406220Y-111620162D01*
X156217381Y-111582600D01*
X156217375Y-111582600D01*
X156024825Y-111582600D01*
X156024818Y-111582600D01*
X155835979Y-111620162D01*
X155835977Y-111620163D01*
X155835975Y-111620163D01*
X155835974Y-111620164D01*
X155658080Y-111693850D01*
X155658078Y-111693850D01*
X155658076Y-111693852D01*
X155497983Y-111800823D01*
X155361823Y-111936983D01*
X155254852Y-112097076D01*
X155181163Y-112274977D01*
X155181162Y-112274979D01*
X155143600Y-112463818D01*
X141858599Y-112463818D01*
X141821036Y-112274974D01*
X141747350Y-112097080D01*
X141640374Y-111936980D01*
X141504220Y-111800826D01*
X141344120Y-111693850D01*
X141166226Y-111620164D01*
X141166222Y-111620163D01*
X141166220Y-111620162D01*
X140977381Y-111582600D01*
X140977375Y-111582600D01*
X140784825Y-111582600D01*
X140784818Y-111582600D01*
X140595979Y-111620162D01*
X140595977Y-111620163D01*
X140595975Y-111620163D01*
X140595974Y-111620164D01*
X140418080Y-111693850D01*
X140418078Y-111693850D01*
X140418076Y-111693852D01*
X140257983Y-111800823D01*
X140121823Y-111936983D01*
X140014852Y-112097076D01*
X139941163Y-112274977D01*
X139941162Y-112274979D01*
X139903600Y-112463818D01*
X138577800Y-112463818D01*
X138577800Y-109923818D01*
X139903600Y-109923818D01*
X139903600Y-110116381D01*
X139941162Y-110305220D01*
X139941163Y-110305222D01*
X139941164Y-110305226D01*
X140014850Y-110483120D01*
X140121826Y-110643220D01*
X140257980Y-110779374D01*
X140418080Y-110886350D01*
X140595974Y-110960036D01*
X140595978Y-110960036D01*
X140595979Y-110960037D01*
X140784818Y-110997599D01*
X140784821Y-110997599D01*
X140784825Y-110997600D01*
X140784828Y-110997600D01*
X140977372Y-110997600D01*
X140977375Y-110997600D01*
X140977378Y-110997599D01*
X140977381Y-110997599D01*
X141071800Y-110978818D01*
X141166226Y-110960036D01*
X141344120Y-110886350D01*
X141504220Y-110779374D01*
X141640374Y-110643220D01*
X141747350Y-110483120D01*
X141821036Y-110305226D01*
X141858600Y-110116375D01*
X141858600Y-109923825D01*
X141821036Y-109734974D01*
X141747350Y-109557080D01*
X141640374Y-109396980D01*
X141504220Y-109260826D01*
X141344120Y-109153850D01*
X141166226Y-109080164D01*
X141166222Y-109080163D01*
X141166220Y-109080162D01*
X140977381Y-109042600D01*
X140977375Y-109042600D01*
X140784825Y-109042600D01*
X140784818Y-109042600D01*
X140595979Y-109080162D01*
X140595977Y-109080163D01*
X140595975Y-109080163D01*
X140595974Y-109080164D01*
X140418080Y-109153850D01*
X140418078Y-109153850D01*
X140418076Y-109153852D01*
X140257983Y-109260823D01*
X140121823Y-109396983D01*
X140014852Y-109557076D01*
X139941163Y-109734977D01*
X139941162Y-109734979D01*
X139903600Y-109923818D01*
X138577800Y-109923818D01*
X138577800Y-107486037D01*
X138577940Y-107482823D01*
X138586551Y-107383818D01*
X139903600Y-107383818D01*
X139903600Y-107576381D01*
X139941162Y-107765220D01*
X139941163Y-107765222D01*
X139941164Y-107765226D01*
X140014850Y-107943120D01*
X140121826Y-108103220D01*
X140257980Y-108239374D01*
X140418080Y-108346350D01*
X140595974Y-108420036D01*
X140595978Y-108420036D01*
X140595979Y-108420037D01*
X140784818Y-108457599D01*
X140784821Y-108457599D01*
X140784825Y-108457600D01*
X140784828Y-108457600D01*
X140977372Y-108457600D01*
X140977375Y-108457600D01*
X140977378Y-108457599D01*
X140977381Y-108457599D01*
X141071800Y-108438818D01*
X141166226Y-108420036D01*
X141344120Y-108346350D01*
X141504220Y-108239374D01*
X141640374Y-108103220D01*
X141747350Y-107943120D01*
X141821036Y-107765226D01*
X141858600Y-107576375D01*
X141858600Y-107383825D01*
X141851996Y-107350626D01*
X141821037Y-107194979D01*
X141821036Y-107194978D01*
X141821036Y-107194974D01*
X141747350Y-107017080D01*
X141640374Y-106856980D01*
X141504220Y-106720826D01*
X141344120Y-106613850D01*
X141166226Y-106540164D01*
X141166222Y-106540163D01*
X141166220Y-106540162D01*
X140977381Y-106502600D01*
X140977375Y-106502600D01*
X140784825Y-106502600D01*
X140784818Y-106502600D01*
X140595979Y-106540162D01*
X140595977Y-106540163D01*
X140595975Y-106540163D01*
X140595974Y-106540164D01*
X140418080Y-106613850D01*
X140418078Y-106613850D01*
X140418076Y-106613852D01*
X140257983Y-106720823D01*
X140121823Y-106856983D01*
X140014852Y-107017076D01*
X140014850Y-107017078D01*
X140014850Y-107017080D01*
X139949106Y-107175800D01*
X139941163Y-107194977D01*
X139941162Y-107194979D01*
X139903600Y-107383818D01*
X138586551Y-107383818D01*
X138586988Y-107378788D01*
X138586988Y-107378787D01*
X138589437Y-107350626D01*
X138589437Y-107350617D01*
X138580056Y-107075501D01*
X138537581Y-106803511D01*
X138494550Y-106651433D01*
X138462634Y-106538635D01*
X138356303Y-106284719D01*
X138220142Y-106045471D01*
X138056136Y-105824379D01*
X137866678Y-105624669D01*
X137866672Y-105624664D01*
X137654524Y-105449251D01*
X137422777Y-105300685D01*
X137422770Y-105300681D01*
X137174805Y-105181133D01*
X136914243Y-105092346D01*
X136644868Y-105035614D01*
X136644865Y-105035613D01*
X136538131Y-105026329D01*
X136538131Y-105026330D01*
X136528956Y-105025532D01*
X136526021Y-105023400D01*
X136504433Y-105023400D01*
X136502833Y-105023260D01*
X136484144Y-105021635D01*
X136482918Y-105021529D01*
X136482917Y-105021529D01*
X136481065Y-105021368D01*
X136474681Y-105021916D01*
X136175872Y-105005135D01*
X136171738Y-105004669D01*
X135852659Y-104950456D01*
X135848602Y-104949530D01*
X135599109Y-104877652D01*
X135537598Y-104859931D01*
X135533671Y-104858557D01*
X135498088Y-104843818D01*
X139903600Y-104843818D01*
X139903600Y-105036375D01*
X139941162Y-105225220D01*
X139941163Y-105225222D01*
X139941164Y-105225226D01*
X140014850Y-105403120D01*
X140121826Y-105563220D01*
X140257980Y-105699374D01*
X140418080Y-105806350D01*
X140595974Y-105880036D01*
X140595978Y-105880036D01*
X140595979Y-105880037D01*
X140784818Y-105917599D01*
X140784821Y-105917599D01*
X140784825Y-105917600D01*
X140784828Y-105917600D01*
X140977372Y-105917600D01*
X140977375Y-105917600D01*
X140977378Y-105917599D01*
X140977381Y-105917599D01*
X141071800Y-105898818D01*
X141166226Y-105880036D01*
X141344120Y-105806350D01*
X141504220Y-105699374D01*
X141640374Y-105563220D01*
X141747350Y-105403120D01*
X141821036Y-105225226D01*
X141858600Y-105036375D01*
X141858600Y-104843825D01*
X141854337Y-104822394D01*
X141821037Y-104654979D01*
X141821036Y-104654978D01*
X141821036Y-104654974D01*
X141747350Y-104477080D01*
X141732529Y-104454899D01*
X141726989Y-104427049D01*
X141737140Y-104408055D01*
X143624030Y-102521166D01*
X143650264Y-102510300D01*
X146249973Y-102510300D01*
X146276207Y-102521166D01*
X146287073Y-102547400D01*
X146276207Y-102573634D01*
X146264172Y-102581674D01*
X146121874Y-102640617D01*
X145990747Y-102728233D01*
X145879233Y-102839747D01*
X145791617Y-102970874D01*
X145760112Y-103046935D01*
X145731265Y-103116577D01*
X145731264Y-103116579D01*
X145700500Y-103271241D01*
X145700500Y-103428958D01*
X145731264Y-103583620D01*
X145731266Y-103583626D01*
X145783963Y-103710849D01*
X145783963Y-103739244D01*
X145775921Y-103751280D01*
X145030278Y-104496924D01*
X145030277Y-104496926D01*
X145015087Y-104533600D01*
X144995400Y-104581127D01*
X144995400Y-108059071D01*
X145005615Y-108083733D01*
X145030276Y-108143272D01*
X145030277Y-108143273D01*
X145030278Y-108143275D01*
X147101325Y-110214322D01*
X147160866Y-110238984D01*
X147185529Y-110249200D01*
X147185530Y-110249200D01*
X147276670Y-110249200D01*
X155139573Y-110249200D01*
X155165807Y-110260066D01*
X155175960Y-110279063D01*
X155181161Y-110305218D01*
X155181163Y-110305222D01*
X155181164Y-110305226D01*
X155254850Y-110483120D01*
X155361826Y-110643220D01*
X155497980Y-110779374D01*
X155658080Y-110886350D01*
X155835974Y-110960036D01*
X155835978Y-110960036D01*
X155835979Y-110960037D01*
X156024818Y-110997599D01*
X156024821Y-110997599D01*
X156024825Y-110997600D01*
X156024828Y-110997600D01*
X156217372Y-110997600D01*
X156217375Y-110997600D01*
X156217378Y-110997599D01*
X156217381Y-110997599D01*
X156311800Y-110978818D01*
X156406226Y-110960036D01*
X156584120Y-110886350D01*
X156744220Y-110779374D01*
X156880374Y-110643220D01*
X156987350Y-110483120D01*
X157061036Y-110305226D01*
X157098600Y-110116375D01*
X157098600Y-109923825D01*
X157061036Y-109734974D01*
X156987350Y-109557080D01*
X156880374Y-109396980D01*
X156744220Y-109260826D01*
X156584120Y-109153850D01*
X156406226Y-109080164D01*
X156406222Y-109080163D01*
X156406220Y-109080162D01*
X156217381Y-109042600D01*
X156217375Y-109042600D01*
X156024825Y-109042600D01*
X156024818Y-109042600D01*
X155835979Y-109080162D01*
X155835977Y-109080163D01*
X155835975Y-109080163D01*
X155835974Y-109080164D01*
X155658080Y-109153850D01*
X155658078Y-109153850D01*
X155658076Y-109153852D01*
X155497983Y-109260823D01*
X155361823Y-109396983D01*
X155254852Y-109557076D01*
X155181163Y-109734977D01*
X155181161Y-109734981D01*
X155175960Y-109761137D01*
X155160186Y-109784747D01*
X155139573Y-109791000D01*
X147341365Y-109791000D01*
X147315131Y-109780134D01*
X145464466Y-107929469D01*
X145453600Y-107903235D01*
X145453600Y-105271241D01*
X145700500Y-105271241D01*
X145700500Y-105428958D01*
X145731264Y-105583620D01*
X145731265Y-105583622D01*
X145731266Y-105583626D01*
X145791617Y-105729326D01*
X145879233Y-105860453D01*
X145990747Y-105971967D01*
X146121874Y-106059583D01*
X146267574Y-106119934D01*
X146267578Y-106119934D01*
X146267579Y-106119935D01*
X146422241Y-106150699D01*
X146422244Y-106150699D01*
X146422248Y-106150700D01*
X146422251Y-106150700D01*
X146579949Y-106150700D01*
X146579952Y-106150700D01*
X146579955Y-106150699D01*
X146579958Y-106150699D01*
X146657289Y-106135317D01*
X146734626Y-106119934D01*
X146825930Y-106082114D01*
X146854322Y-106082114D01*
X146866359Y-106090156D01*
X149021079Y-108244875D01*
X149021078Y-108244875D01*
X149085524Y-108309320D01*
X149085528Y-108309323D01*
X149145063Y-108333983D01*
X149169729Y-108344200D01*
X149169730Y-108344200D01*
X153525069Y-108344200D01*
X153525070Y-108344200D01*
X153525071Y-108344200D01*
X153549733Y-108333984D01*
X153609275Y-108309322D01*
X154198530Y-107720065D01*
X154224764Y-107709200D01*
X155139573Y-107709200D01*
X155165807Y-107720066D01*
X155175960Y-107739063D01*
X155181161Y-107765218D01*
X155181163Y-107765222D01*
X155181164Y-107765226D01*
X155254850Y-107943120D01*
X155361826Y-108103220D01*
X155497980Y-108239374D01*
X155658080Y-108346350D01*
X155835974Y-108420036D01*
X155835978Y-108420036D01*
X155835979Y-108420037D01*
X156024818Y-108457599D01*
X156024821Y-108457599D01*
X156024825Y-108457600D01*
X156024828Y-108457600D01*
X156217372Y-108457600D01*
X156217375Y-108457600D01*
X156217378Y-108457599D01*
X156217381Y-108457599D01*
X156311800Y-108438818D01*
X156406226Y-108420036D01*
X156584120Y-108346350D01*
X156744220Y-108239374D01*
X156880374Y-108103220D01*
X156987350Y-107943120D01*
X157061036Y-107765226D01*
X157098600Y-107576375D01*
X157098600Y-107383825D01*
X157091996Y-107350626D01*
X157061037Y-107194979D01*
X157061036Y-107194978D01*
X157061036Y-107194974D01*
X156987350Y-107017080D01*
X156880374Y-106856980D01*
X156744220Y-106720826D01*
X156584120Y-106613850D01*
X156406226Y-106540164D01*
X156406222Y-106540163D01*
X156406220Y-106540162D01*
X156217381Y-106502600D01*
X156217375Y-106502600D01*
X156024825Y-106502600D01*
X156024818Y-106502600D01*
X155835979Y-106540162D01*
X155835977Y-106540163D01*
X155835975Y-106540163D01*
X155835974Y-106540164D01*
X155658080Y-106613850D01*
X155658078Y-106613850D01*
X155658076Y-106613852D01*
X155497983Y-106720823D01*
X155361823Y-106856983D01*
X155254852Y-107017076D01*
X155254850Y-107017078D01*
X155254850Y-107017080D01*
X155189106Y-107175800D01*
X155181163Y-107194977D01*
X155181161Y-107194981D01*
X155175960Y-107221137D01*
X155160186Y-107244747D01*
X155139573Y-107251000D01*
X154068927Y-107251000D01*
X154044335Y-107261187D01*
X153984728Y-107285876D01*
X153395469Y-107875134D01*
X153369235Y-107886000D01*
X149325564Y-107886000D01*
X149299330Y-107875134D01*
X147209256Y-105785060D01*
X147198390Y-105758826D01*
X147204643Y-105738214D01*
X147210583Y-105729326D01*
X147270934Y-105583626D01*
X147301700Y-105428952D01*
X147301700Y-105271248D01*
X147301699Y-105271241D01*
X147700500Y-105271241D01*
X147700500Y-105428958D01*
X147731264Y-105583620D01*
X147731265Y-105583622D01*
X147731266Y-105583626D01*
X147791617Y-105729326D01*
X147879233Y-105860453D01*
X147990747Y-105971967D01*
X148121874Y-106059583D01*
X148267574Y-106119934D01*
X148267578Y-106119934D01*
X148267579Y-106119935D01*
X148422241Y-106150699D01*
X148422244Y-106150699D01*
X148422248Y-106150700D01*
X148422251Y-106150700D01*
X148579949Y-106150700D01*
X148579952Y-106150700D01*
X148579955Y-106150699D01*
X148579958Y-106150699D01*
X148657289Y-106135317D01*
X148734626Y-106119934D01*
X148760249Y-106109319D01*
X148788643Y-106109319D01*
X148800681Y-106117361D01*
X149731472Y-107048152D01*
X149731474Y-107048155D01*
X149793045Y-107109726D01*
X149868454Y-107153264D01*
X149952562Y-107175800D01*
X149952563Y-107175800D01*
X152354637Y-107175800D01*
X152354638Y-107175800D01*
X152438746Y-107153264D01*
X152514155Y-107109726D01*
X152575726Y-107048155D01*
X152575727Y-107048152D01*
X154419152Y-105204727D01*
X154419155Y-105204726D01*
X154480726Y-105143155D01*
X154524264Y-105067746D01*
X154532670Y-105036375D01*
X154546801Y-104983637D01*
X154546801Y-104896563D01*
X154546801Y-104894297D01*
X154546800Y-104894279D01*
X154546800Y-104843818D01*
X155143600Y-104843818D01*
X155143600Y-105036375D01*
X155181162Y-105225220D01*
X155181163Y-105225222D01*
X155181164Y-105225226D01*
X155254850Y-105403120D01*
X155361826Y-105563220D01*
X155497980Y-105699374D01*
X155658080Y-105806350D01*
X155835974Y-105880036D01*
X155835978Y-105880036D01*
X155835979Y-105880037D01*
X156024818Y-105917599D01*
X156024821Y-105917599D01*
X156024825Y-105917600D01*
X156024828Y-105917600D01*
X156217372Y-105917600D01*
X156217375Y-105917600D01*
X156217378Y-105917599D01*
X156217381Y-105917599D01*
X156311800Y-105898818D01*
X156406226Y-105880036D01*
X156584120Y-105806350D01*
X156744220Y-105699374D01*
X156880374Y-105563220D01*
X156987350Y-105403120D01*
X157061036Y-105225226D01*
X157098600Y-105036375D01*
X157098600Y-104843825D01*
X157094337Y-104822394D01*
X157061037Y-104654979D01*
X157061036Y-104654978D01*
X157061036Y-104654974D01*
X156987350Y-104477080D01*
X156880374Y-104316980D01*
X156744220Y-104180826D01*
X156721479Y-104165631D01*
X156584123Y-104073852D01*
X156584122Y-104073851D01*
X156584120Y-104073850D01*
X156406226Y-104000164D01*
X156406222Y-104000163D01*
X156406220Y-104000162D01*
X156217381Y-103962600D01*
X156217375Y-103962600D01*
X156024825Y-103962600D01*
X156024818Y-103962600D01*
X155835979Y-104000162D01*
X155835977Y-104000163D01*
X155835975Y-104000163D01*
X155835974Y-104000164D01*
X155658080Y-104073850D01*
X155658078Y-104073850D01*
X155658076Y-104073852D01*
X155497983Y-104180823D01*
X155361823Y-104316983D01*
X155254852Y-104477076D01*
X155254850Y-104477078D01*
X155254850Y-104477080D01*
X155181164Y-104654974D01*
X155181163Y-104654977D01*
X155181162Y-104654979D01*
X155143600Y-104843818D01*
X154546800Y-104843818D01*
X154546800Y-103822447D01*
X154557665Y-103796214D01*
X155320009Y-103033869D01*
X155346243Y-103023004D01*
X155372475Y-103033869D01*
X155497980Y-103159374D01*
X155658080Y-103266350D01*
X155835974Y-103340036D01*
X155835978Y-103340036D01*
X155835979Y-103340037D01*
X156024818Y-103377599D01*
X156024821Y-103377599D01*
X156024825Y-103377600D01*
X156024828Y-103377600D01*
X156217372Y-103377600D01*
X156217375Y-103377600D01*
X156217378Y-103377599D01*
X156217381Y-103377599D01*
X156311800Y-103358818D01*
X156406226Y-103340036D01*
X156584120Y-103266350D01*
X156744220Y-103159374D01*
X156880374Y-103023220D01*
X156987350Y-102863120D01*
X157061036Y-102685226D01*
X157093669Y-102521166D01*
X157098599Y-102496381D01*
X157098600Y-102496372D01*
X157098600Y-102303827D01*
X157098599Y-102303818D01*
X157061037Y-102114979D01*
X157061036Y-102114978D01*
X157061036Y-102114974D01*
X157008706Y-101988637D01*
X158800500Y-101988637D01*
X158800500Y-102211563D01*
X158829598Y-102432580D01*
X158829599Y-102432586D01*
X158887294Y-102647912D01*
X158972605Y-102853869D01*
X159084072Y-103046935D01*
X159084077Y-103046942D01*
X159219771Y-103223781D01*
X159219774Y-103223784D01*
X159219778Y-103223789D01*
X159377411Y-103381422D01*
X159377415Y-103381425D01*
X159377418Y-103381428D01*
X159554257Y-103517122D01*
X159554264Y-103517127D01*
X159554267Y-103517128D01*
X159554270Y-103517131D01*
X159747330Y-103628594D01*
X159953287Y-103713905D01*
X160168618Y-103771602D01*
X160389637Y-103800700D01*
X160389642Y-103800700D01*
X160612558Y-103800700D01*
X160612563Y-103800700D01*
X160833582Y-103771602D01*
X161048913Y-103713905D01*
X161254870Y-103628594D01*
X161447930Y-103517131D01*
X161454792Y-103511866D01*
X161593445Y-103405473D01*
X161624789Y-103381422D01*
X161782422Y-103223789D01*
X161881452Y-103094731D01*
X161918122Y-103046942D01*
X161918127Y-103046935D01*
X161918126Y-103046935D01*
X161918131Y-103046930D01*
X162029594Y-102853870D01*
X162114905Y-102647913D01*
X162172602Y-102432582D01*
X162201700Y-102211563D01*
X162201700Y-101988637D01*
X162172602Y-101767618D01*
X162114905Y-101552287D01*
X162029594Y-101346330D01*
X161918131Y-101153270D01*
X161918128Y-101153267D01*
X161918127Y-101153264D01*
X161918122Y-101153257D01*
X161782428Y-100976418D01*
X161782425Y-100976415D01*
X161782422Y-100976411D01*
X161624789Y-100818778D01*
X161624784Y-100818774D01*
X161624781Y-100818771D01*
X161447942Y-100683077D01*
X161447935Y-100683072D01*
X161438372Y-100677551D01*
X161407133Y-100659515D01*
X161254869Y-100571605D01*
X161048912Y-100486294D01*
X160833586Y-100428599D01*
X160833585Y-100428598D01*
X160833582Y-100428598D01*
X160612563Y-100399500D01*
X160389637Y-100399500D01*
X160168618Y-100428598D01*
X160168616Y-100428598D01*
X160168613Y-100428599D01*
X159953287Y-100486294D01*
X159747330Y-100571605D01*
X159554264Y-100683072D01*
X159554257Y-100683077D01*
X159377418Y-100818771D01*
X159219771Y-100976418D01*
X159084077Y-101153257D01*
X159084072Y-101153264D01*
X158972605Y-101346330D01*
X158887294Y-101552287D01*
X158829599Y-101767613D01*
X158829598Y-101767618D01*
X158801807Y-101978708D01*
X158800500Y-101988637D01*
X157008706Y-101988637D01*
X156987350Y-101937080D01*
X156880374Y-101776980D01*
X156744220Y-101640826D01*
X156698762Y-101610452D01*
X156584123Y-101533852D01*
X156584122Y-101533851D01*
X156584120Y-101533850D01*
X156406226Y-101460164D01*
X156406222Y-101460163D01*
X156406220Y-101460162D01*
X156217381Y-101422600D01*
X156217375Y-101422600D01*
X156024825Y-101422600D01*
X156024818Y-101422600D01*
X155835979Y-101460162D01*
X155835977Y-101460163D01*
X155835975Y-101460163D01*
X155835974Y-101460164D01*
X155658080Y-101533850D01*
X155658078Y-101533850D01*
X155658076Y-101533852D01*
X155497983Y-101640823D01*
X155361823Y-101776983D01*
X155254852Y-101937076D01*
X155254850Y-101937078D01*
X155254850Y-101937080D01*
X155181164Y-102114974D01*
X155181163Y-102114977D01*
X155181162Y-102114979D01*
X155152972Y-102256703D01*
X155142819Y-102275699D01*
X154013047Y-103405472D01*
X154013045Y-103405474D01*
X154013044Y-103405473D01*
X153951474Y-103467044D01*
X153907934Y-103542458D01*
X153885400Y-103626563D01*
X153885400Y-104787752D01*
X153874534Y-104813986D01*
X152184986Y-106503534D01*
X152158752Y-106514400D01*
X150148448Y-106514400D01*
X150122214Y-106503534D01*
X149268361Y-105649681D01*
X149257495Y-105623447D01*
X149260319Y-105609251D01*
X149270934Y-105583626D01*
X149301700Y-105428952D01*
X149301700Y-105271248D01*
X149301699Y-105271241D01*
X149700500Y-105271241D01*
X149700500Y-105428958D01*
X149731264Y-105583620D01*
X149731265Y-105583622D01*
X149731266Y-105583626D01*
X149791617Y-105729326D01*
X149879233Y-105860453D01*
X149990747Y-105971967D01*
X150121874Y-106059583D01*
X150267574Y-106119934D01*
X150267578Y-106119934D01*
X150267579Y-106119935D01*
X150422241Y-106150699D01*
X150422244Y-106150699D01*
X150422248Y-106150700D01*
X150422251Y-106150700D01*
X150579949Y-106150700D01*
X150579952Y-106150700D01*
X150579955Y-106150699D01*
X150579958Y-106150699D01*
X150657289Y-106135317D01*
X150734626Y-106119934D01*
X150880326Y-106059583D01*
X151011453Y-105971967D01*
X151122967Y-105860453D01*
X151210583Y-105729326D01*
X151211363Y-105727440D01*
X151212167Y-105725503D01*
X151232245Y-105705424D01*
X151246443Y-105702600D01*
X151853323Y-105702600D01*
X151853325Y-105702600D01*
X151950354Y-105676601D01*
X152037347Y-105626376D01*
X152108376Y-105555347D01*
X153251376Y-104412347D01*
X153283244Y-104357149D01*
X153301601Y-104325354D01*
X153327600Y-104228325D01*
X153327600Y-99756442D01*
X155068700Y-99756442D01*
X155068700Y-99758899D01*
X155068701Y-99758900D01*
X155630579Y-99758900D01*
X155621100Y-99794274D01*
X155621100Y-99925926D01*
X155630579Y-99961300D01*
X155068701Y-99961300D01*
X155068700Y-99961301D01*
X155068700Y-99963757D01*
X155109141Y-100167068D01*
X155109142Y-100167070D01*
X155188475Y-100358597D01*
X155303648Y-100530965D01*
X155450234Y-100677551D01*
X155622602Y-100792724D01*
X155814129Y-100872057D01*
X155814131Y-100872058D01*
X156017442Y-100912499D01*
X156017451Y-100912500D01*
X156019899Y-100912500D01*
X156019900Y-100912499D01*
X156019900Y-100350621D01*
X156055274Y-100360100D01*
X156186926Y-100360100D01*
X156222300Y-100350621D01*
X156222300Y-100912499D01*
X156222301Y-100912500D01*
X156224749Y-100912500D01*
X156224757Y-100912499D01*
X156428068Y-100872058D01*
X156428070Y-100872057D01*
X156619597Y-100792724D01*
X156791965Y-100677551D01*
X156938551Y-100530965D01*
X157053724Y-100358597D01*
X157133057Y-100167070D01*
X157133058Y-100167068D01*
X157173499Y-99963757D01*
X157173500Y-99963749D01*
X157173500Y-99961301D01*
X157173499Y-99961300D01*
X156611621Y-99961300D01*
X156621100Y-99925926D01*
X156621100Y-99794274D01*
X156611621Y-99758900D01*
X157173499Y-99758900D01*
X157173500Y-99758899D01*
X157173500Y-99756450D01*
X157173499Y-99756442D01*
X157133058Y-99553131D01*
X157133057Y-99553129D01*
X157053724Y-99361602D01*
X156938551Y-99189234D01*
X156791965Y-99042648D01*
X156619597Y-98927475D01*
X156428070Y-98848142D01*
X156428068Y-98848141D01*
X156224757Y-98807700D01*
X156222301Y-98807700D01*
X156222300Y-98807701D01*
X156222300Y-99369578D01*
X156186926Y-99360100D01*
X156055274Y-99360100D01*
X156019900Y-99369578D01*
X156019900Y-98807701D01*
X156019899Y-98807700D01*
X156017442Y-98807700D01*
X155814131Y-98848141D01*
X155814129Y-98848142D01*
X155622602Y-98927475D01*
X155450234Y-99042648D01*
X155303648Y-99189234D01*
X155188475Y-99361602D01*
X155109142Y-99553129D01*
X155109141Y-99553131D01*
X155068700Y-99756442D01*
X153327600Y-99756442D01*
X153327600Y-99398491D01*
X153338466Y-99372257D01*
X154998257Y-97712466D01*
X155024491Y-97701600D01*
X155196294Y-97701600D01*
X155222528Y-97712466D01*
X155230568Y-97724499D01*
X155254850Y-97783120D01*
X155361826Y-97943220D01*
X155497980Y-98079374D01*
X155658080Y-98186350D01*
X155835974Y-98260036D01*
X155835978Y-98260036D01*
X155835979Y-98260037D01*
X156024818Y-98297599D01*
X156024821Y-98297599D01*
X156024825Y-98297600D01*
X156024828Y-98297600D01*
X156217372Y-98297600D01*
X156217375Y-98297600D01*
X156217378Y-98297599D01*
X156217381Y-98297599D01*
X156396241Y-98262022D01*
X156406226Y-98260036D01*
X156584120Y-98186350D01*
X156744220Y-98079374D01*
X156880374Y-97943220D01*
X156987350Y-97783120D01*
X157061036Y-97605226D01*
X157098600Y-97416375D01*
X157098600Y-97223825D01*
X157079117Y-97125877D01*
X157061037Y-97034979D01*
X157061036Y-97034978D01*
X157061036Y-97034974D01*
X156987350Y-96857080D01*
X156880374Y-96696980D01*
X156744220Y-96560826D01*
X156584120Y-96453850D01*
X156406226Y-96380164D01*
X156406222Y-96380163D01*
X156406220Y-96380162D01*
X156217381Y-96342600D01*
X156217375Y-96342600D01*
X156024825Y-96342600D01*
X156024818Y-96342600D01*
X155835979Y-96380162D01*
X155835977Y-96380163D01*
X155835975Y-96380163D01*
X155835974Y-96380164D01*
X155658080Y-96453850D01*
X155658078Y-96453850D01*
X155658076Y-96453852D01*
X155497983Y-96560823D01*
X155361823Y-96696983D01*
X155254851Y-96857078D01*
X155254850Y-96857080D01*
X155230568Y-96915699D01*
X155210492Y-96935776D01*
X155196294Y-96938600D01*
X154901325Y-96938600D01*
X154800875Y-96938600D01*
X154779142Y-96944423D01*
X154703851Y-96964596D01*
X154703847Y-96964597D01*
X154703847Y-96964598D01*
X154680540Y-96978054D01*
X154616855Y-97014822D01*
X152711853Y-98919824D01*
X152711852Y-98919823D01*
X152640824Y-98990852D01*
X152623274Y-99021250D01*
X152590599Y-99077846D01*
X152584442Y-99100826D01*
X152564600Y-99174876D01*
X152564600Y-104004709D01*
X152553734Y-104030943D01*
X151655943Y-104928734D01*
X151629709Y-104939600D01*
X151209517Y-104939600D01*
X151183283Y-104928734D01*
X151178669Y-104923112D01*
X151122967Y-104839747D01*
X151011453Y-104728233D01*
X150880326Y-104640617D01*
X150734626Y-104580266D01*
X150734622Y-104580265D01*
X150734620Y-104580264D01*
X150579958Y-104549500D01*
X150579952Y-104549500D01*
X150422248Y-104549500D01*
X150422241Y-104549500D01*
X150267579Y-104580264D01*
X150267577Y-104580265D01*
X150267575Y-104580265D01*
X150267574Y-104580266D01*
X150265491Y-104581129D01*
X150121874Y-104640617D01*
X149990747Y-104728233D01*
X149879233Y-104839747D01*
X149791617Y-104970874D01*
X149731265Y-105116577D01*
X149731264Y-105116579D01*
X149700500Y-105271241D01*
X149301699Y-105271241D01*
X149288468Y-105204727D01*
X149270935Y-105116579D01*
X149270934Y-105116578D01*
X149270934Y-105116574D01*
X149210583Y-104970874D01*
X149122967Y-104839747D01*
X149011453Y-104728233D01*
X148880326Y-104640617D01*
X148734626Y-104580266D01*
X148734622Y-104580265D01*
X148734620Y-104580264D01*
X148579958Y-104549500D01*
X148579952Y-104549500D01*
X148422248Y-104549500D01*
X148422241Y-104549500D01*
X148267579Y-104580264D01*
X148267577Y-104580265D01*
X148267575Y-104580265D01*
X148267574Y-104580266D01*
X148265491Y-104581129D01*
X148121874Y-104640617D01*
X147990747Y-104728233D01*
X147879233Y-104839747D01*
X147791617Y-104970874D01*
X147731265Y-105116577D01*
X147731264Y-105116579D01*
X147700500Y-105271241D01*
X147301699Y-105271241D01*
X147288468Y-105204727D01*
X147270935Y-105116579D01*
X147270934Y-105116578D01*
X147270934Y-105116574D01*
X147210583Y-104970874D01*
X147122967Y-104839747D01*
X147011453Y-104728233D01*
X146880326Y-104640617D01*
X146734626Y-104580266D01*
X146734622Y-104580265D01*
X146734620Y-104580264D01*
X146579958Y-104549500D01*
X146579952Y-104549500D01*
X146422248Y-104549500D01*
X146422241Y-104549500D01*
X146267579Y-104580264D01*
X146267577Y-104580265D01*
X146267575Y-104580265D01*
X146267574Y-104580266D01*
X146265491Y-104581129D01*
X146121874Y-104640617D01*
X145990747Y-104728233D01*
X145879233Y-104839747D01*
X145791617Y-104970874D01*
X145731265Y-105116577D01*
X145731264Y-105116579D01*
X145700500Y-105271241D01*
X145453600Y-105271241D01*
X145453600Y-104736964D01*
X145464465Y-104710731D01*
X146099919Y-104075276D01*
X146126152Y-104064411D01*
X146140345Y-104067234D01*
X146267574Y-104119934D01*
X146267578Y-104119934D01*
X146267579Y-104119935D01*
X146422241Y-104150699D01*
X146422244Y-104150699D01*
X146422248Y-104150700D01*
X146422251Y-104150700D01*
X146579949Y-104150700D01*
X146579952Y-104150700D01*
X146579955Y-104150699D01*
X146579958Y-104150699D01*
X146657289Y-104135317D01*
X146734626Y-104119934D01*
X146880326Y-104059583D01*
X147011453Y-103971967D01*
X147122967Y-103860453D01*
X147210583Y-103729326D01*
X147270934Y-103583626D01*
X147300678Y-103434090D01*
X147301699Y-103428958D01*
X147301700Y-103428949D01*
X147301700Y-103271250D01*
X147301699Y-103271241D01*
X147700500Y-103271241D01*
X147700500Y-103428958D01*
X147731264Y-103583620D01*
X147731265Y-103583622D01*
X147731266Y-103583626D01*
X147791617Y-103729326D01*
X147879233Y-103860453D01*
X147990747Y-103971967D01*
X148121874Y-104059583D01*
X148267574Y-104119934D01*
X148267578Y-104119934D01*
X148267579Y-104119935D01*
X148422241Y-104150699D01*
X148422244Y-104150699D01*
X148422248Y-104150700D01*
X148422251Y-104150700D01*
X148579949Y-104150700D01*
X148579952Y-104150700D01*
X148579955Y-104150699D01*
X148579958Y-104150699D01*
X148657289Y-104135317D01*
X148734626Y-104119934D01*
X148880326Y-104059583D01*
X149011453Y-103971967D01*
X149122967Y-103860453D01*
X149210583Y-103729326D01*
X149270934Y-103583626D01*
X149301700Y-103428952D01*
X149301700Y-103271248D01*
X149297255Y-103248899D01*
X149628578Y-103248899D01*
X149628578Y-103248900D01*
X150094332Y-103248900D01*
X150082000Y-103294924D01*
X150082000Y-103405276D01*
X150094332Y-103451300D01*
X149628578Y-103451300D01*
X149659243Y-103605468D01*
X149659244Y-103605470D01*
X149725242Y-103764804D01*
X149821055Y-103908198D01*
X149943001Y-104030144D01*
X150086395Y-104125957D01*
X150245729Y-104191955D01*
X150245731Y-104191956D01*
X150399899Y-104222621D01*
X150399900Y-104222621D01*
X150399900Y-103756867D01*
X150445924Y-103769200D01*
X150556276Y-103769200D01*
X150602300Y-103756867D01*
X150602300Y-104222621D01*
X150756468Y-104191956D01*
X150756470Y-104191955D01*
X150915804Y-104125957D01*
X151059198Y-104030144D01*
X151181144Y-103908198D01*
X151276957Y-103764804D01*
X151342955Y-103605470D01*
X151342956Y-103605468D01*
X151373621Y-103451300D01*
X150907868Y-103451300D01*
X150920200Y-103405276D01*
X150920200Y-103294924D01*
X150907868Y-103248900D01*
X151373622Y-103248900D01*
X151373621Y-103248899D01*
X151342956Y-103094731D01*
X151342955Y-103094729D01*
X151276957Y-102935395D01*
X151181144Y-102792001D01*
X151059198Y-102670055D01*
X150915804Y-102574242D01*
X150756468Y-102508243D01*
X150602300Y-102477577D01*
X150602300Y-102943332D01*
X150556276Y-102931000D01*
X150445924Y-102931000D01*
X150399900Y-102943332D01*
X150399900Y-102477577D01*
X150399899Y-102477577D01*
X150245731Y-102508243D01*
X150086395Y-102574242D01*
X149943001Y-102670055D01*
X149821055Y-102792001D01*
X149725242Y-102935395D01*
X149659244Y-103094729D01*
X149659243Y-103094731D01*
X149628578Y-103248899D01*
X149297255Y-103248899D01*
X149270934Y-103116574D01*
X149210583Y-102970874D01*
X149122967Y-102839747D01*
X149011453Y-102728233D01*
X148880326Y-102640617D01*
X148734626Y-102580266D01*
X148734622Y-102580265D01*
X148734620Y-102580264D01*
X148579958Y-102549500D01*
X148579952Y-102549500D01*
X148422248Y-102549500D01*
X148422241Y-102549500D01*
X148267579Y-102580264D01*
X148267577Y-102580265D01*
X148267575Y-102580265D01*
X148267574Y-102580266D01*
X148121874Y-102640617D01*
X147990747Y-102728233D01*
X147879233Y-102839747D01*
X147791617Y-102970874D01*
X147760112Y-103046935D01*
X147731265Y-103116577D01*
X147731264Y-103116579D01*
X147700500Y-103271241D01*
X147301699Y-103271241D01*
X147270935Y-103116579D01*
X147270934Y-103116578D01*
X147270934Y-103116574D01*
X147210583Y-102970874D01*
X147122967Y-102839747D01*
X147011453Y-102728233D01*
X146880326Y-102640617D01*
X146738028Y-102581675D01*
X146717951Y-102561597D01*
X146717951Y-102533202D01*
X146738030Y-102513124D01*
X146752227Y-102510300D01*
X147692688Y-102510300D01*
X147692689Y-102510300D01*
X147692690Y-102510300D01*
X147717352Y-102500084D01*
X147776894Y-102475422D01*
X148349312Y-101903001D01*
X148375545Y-101892136D01*
X148382773Y-101892847D01*
X148422248Y-101900700D01*
X148422251Y-101900700D01*
X148579949Y-101900700D01*
X148579952Y-101900700D01*
X148579955Y-101900699D01*
X148579958Y-101900699D01*
X148657289Y-101885317D01*
X148734626Y-101869934D01*
X148880326Y-101809583D01*
X149011453Y-101721967D01*
X149122967Y-101610453D01*
X149210583Y-101479326D01*
X149270934Y-101333626D01*
X149301700Y-101178952D01*
X149301700Y-101021248D01*
X149301699Y-101021241D01*
X149700500Y-101021241D01*
X149700500Y-101178958D01*
X149731264Y-101333620D01*
X149731265Y-101333622D01*
X149731266Y-101333626D01*
X149791617Y-101479326D01*
X149879233Y-101610453D01*
X149990747Y-101721967D01*
X150121874Y-101809583D01*
X150267574Y-101869934D01*
X150267578Y-101869934D01*
X150267579Y-101869935D01*
X150422241Y-101900699D01*
X150422244Y-101900699D01*
X150422248Y-101900700D01*
X150422251Y-101900700D01*
X150579949Y-101900700D01*
X150579952Y-101900700D01*
X150579955Y-101900699D01*
X150579958Y-101900699D01*
X150657289Y-101885317D01*
X150734626Y-101869934D01*
X150880326Y-101809583D01*
X151011453Y-101721967D01*
X151122967Y-101610453D01*
X151210583Y-101479326D01*
X151270934Y-101333626D01*
X151301700Y-101178952D01*
X151301700Y-101021248D01*
X151270934Y-100866574D01*
X151210583Y-100720874D01*
X151122967Y-100589747D01*
X151011453Y-100478233D01*
X150880326Y-100390617D01*
X150734626Y-100330266D01*
X150734622Y-100330265D01*
X150734620Y-100330264D01*
X150579958Y-100299500D01*
X150579952Y-100299500D01*
X150422248Y-100299500D01*
X150422241Y-100299500D01*
X150267579Y-100330264D01*
X150267577Y-100330265D01*
X150267575Y-100330265D01*
X150267574Y-100330266D01*
X150121874Y-100390617D01*
X149990747Y-100478233D01*
X149879233Y-100589747D01*
X149791617Y-100720874D01*
X149731267Y-100866573D01*
X149731265Y-100866577D01*
X149731264Y-100866579D01*
X149700500Y-101021241D01*
X149301699Y-101021241D01*
X149270934Y-100866574D01*
X149210583Y-100720874D01*
X149122967Y-100589747D01*
X149011453Y-100478233D01*
X148880326Y-100390617D01*
X148734626Y-100330266D01*
X148734622Y-100330265D01*
X148734620Y-100330264D01*
X148579958Y-100299500D01*
X148579952Y-100299500D01*
X148422248Y-100299500D01*
X148422241Y-100299500D01*
X148267579Y-100330264D01*
X148267577Y-100330265D01*
X148267575Y-100330265D01*
X148267574Y-100330266D01*
X148121874Y-100390617D01*
X147990747Y-100478233D01*
X147879233Y-100589747D01*
X147791617Y-100720874D01*
X147731267Y-100866573D01*
X147731265Y-100866577D01*
X147731264Y-100866579D01*
X147700500Y-101021241D01*
X147700500Y-101178958D01*
X147731264Y-101333620D01*
X147731265Y-101333622D01*
X147731266Y-101333626D01*
X147791617Y-101479326D01*
X147879233Y-101610453D01*
X147910317Y-101641537D01*
X147921183Y-101667770D01*
X147910317Y-101694004D01*
X147563088Y-102041234D01*
X147536854Y-102052100D01*
X143494427Y-102052100D01*
X143410228Y-102086976D01*
X143410227Y-102086977D01*
X141413145Y-104084056D01*
X141386911Y-104094922D01*
X141366300Y-104088670D01*
X141344122Y-104073851D01*
X141344120Y-104073850D01*
X141166226Y-104000164D01*
X141166222Y-104000163D01*
X141166220Y-104000162D01*
X140977381Y-103962600D01*
X140977375Y-103962600D01*
X140784825Y-103962600D01*
X140784818Y-103962600D01*
X140595979Y-104000162D01*
X140595977Y-104000163D01*
X140595975Y-104000163D01*
X140595974Y-104000164D01*
X140418080Y-104073850D01*
X140418078Y-104073850D01*
X140418076Y-104073852D01*
X140257983Y-104180823D01*
X140121823Y-104316983D01*
X140014852Y-104477076D01*
X140014850Y-104477078D01*
X140014850Y-104477080D01*
X139941164Y-104654974D01*
X139941163Y-104654977D01*
X139941162Y-104654979D01*
X139903600Y-104843818D01*
X135498088Y-104843818D01*
X135234652Y-104734699D01*
X135230904Y-104732894D01*
X134947632Y-104576335D01*
X134944109Y-104574121D01*
X134680152Y-104386834D01*
X134676899Y-104384240D01*
X134435568Y-104168572D01*
X134432627Y-104165631D01*
X134216959Y-103924300D01*
X134214365Y-103921047D01*
X134027078Y-103657090D01*
X134024864Y-103653567D01*
X133956309Y-103529526D01*
X133868301Y-103370287D01*
X133866504Y-103366556D01*
X133742639Y-103067519D01*
X133741271Y-103063611D01*
X133651666Y-102752584D01*
X133650746Y-102748554D01*
X133596529Y-102429458D01*
X133596064Y-102425327D01*
X133589241Y-102303827D01*
X133577916Y-102102165D01*
X133577916Y-102098034D01*
X133584059Y-101988637D01*
X134800500Y-101988637D01*
X134800500Y-102211563D01*
X134829598Y-102432580D01*
X134829599Y-102432586D01*
X134887294Y-102647912D01*
X134972605Y-102853869D01*
X135084072Y-103046935D01*
X135084077Y-103046942D01*
X135219771Y-103223781D01*
X135219774Y-103223784D01*
X135219778Y-103223789D01*
X135377411Y-103381422D01*
X135377415Y-103381425D01*
X135377418Y-103381428D01*
X135554257Y-103517122D01*
X135554264Y-103517127D01*
X135554267Y-103517128D01*
X135554270Y-103517131D01*
X135747330Y-103628594D01*
X135953287Y-103713905D01*
X136168618Y-103771602D01*
X136389637Y-103800700D01*
X136389642Y-103800700D01*
X136612558Y-103800700D01*
X136612563Y-103800700D01*
X136833582Y-103771602D01*
X137048913Y-103713905D01*
X137254870Y-103628594D01*
X137447930Y-103517131D01*
X137454792Y-103511866D01*
X137593445Y-103405473D01*
X137624789Y-103381422D01*
X137782422Y-103223789D01*
X137881452Y-103094731D01*
X137918122Y-103046942D01*
X137918127Y-103046935D01*
X137918126Y-103046935D01*
X137918131Y-103046930D01*
X138029594Y-102853870D01*
X138114905Y-102647913D01*
X138172602Y-102432582D01*
X138189554Y-102303818D01*
X139903600Y-102303818D01*
X139903600Y-102496381D01*
X139941162Y-102685220D01*
X139941163Y-102685222D01*
X139941164Y-102685226D01*
X140014850Y-102863120D01*
X140014851Y-102863122D01*
X140014852Y-102863123D01*
X140121681Y-103023004D01*
X140121826Y-103023220D01*
X140257980Y-103159374D01*
X140418080Y-103266350D01*
X140595974Y-103340036D01*
X140595978Y-103340036D01*
X140595979Y-103340037D01*
X140784818Y-103377599D01*
X140784821Y-103377599D01*
X140784825Y-103377600D01*
X140784828Y-103377600D01*
X140977372Y-103377600D01*
X140977375Y-103377600D01*
X140977378Y-103377599D01*
X140977381Y-103377599D01*
X141071800Y-103358818D01*
X141166226Y-103340036D01*
X141344120Y-103266350D01*
X141504220Y-103159374D01*
X141640374Y-103023220D01*
X141747350Y-102863120D01*
X141821036Y-102685226D01*
X141853669Y-102521166D01*
X141858599Y-102496381D01*
X141858600Y-102496372D01*
X141858600Y-102303827D01*
X141858599Y-102303818D01*
X141821037Y-102114979D01*
X141821036Y-102114978D01*
X141821036Y-102114974D01*
X141747350Y-101937080D01*
X141640374Y-101776980D01*
X141504220Y-101640826D01*
X141458762Y-101610452D01*
X141344123Y-101533852D01*
X141344122Y-101533851D01*
X141344120Y-101533850D01*
X141166226Y-101460164D01*
X141166222Y-101460163D01*
X141166220Y-101460162D01*
X140977381Y-101422600D01*
X140977375Y-101422600D01*
X140784825Y-101422600D01*
X140784818Y-101422600D01*
X140595979Y-101460162D01*
X140595977Y-101460163D01*
X140595975Y-101460163D01*
X140595974Y-101460164D01*
X140418080Y-101533850D01*
X140418078Y-101533850D01*
X140418076Y-101533852D01*
X140257983Y-101640823D01*
X140121823Y-101776983D01*
X140014852Y-101937076D01*
X140014850Y-101937078D01*
X140014850Y-101937080D01*
X139941164Y-102114974D01*
X139941163Y-102114977D01*
X139941162Y-102114979D01*
X139903600Y-102303818D01*
X138189554Y-102303818D01*
X138201700Y-102211563D01*
X138201700Y-101988637D01*
X138172602Y-101767618D01*
X138114905Y-101552287D01*
X138029594Y-101346330D01*
X137918131Y-101153270D01*
X137918128Y-101153267D01*
X137918127Y-101153264D01*
X137918122Y-101153257D01*
X137782428Y-100976418D01*
X137782425Y-100976415D01*
X137782422Y-100976411D01*
X137624789Y-100818778D01*
X137624784Y-100818774D01*
X137624781Y-100818771D01*
X137447942Y-100683077D01*
X137447935Y-100683072D01*
X137438372Y-100677551D01*
X137407133Y-100659515D01*
X137254869Y-100571605D01*
X137048912Y-100486294D01*
X136833586Y-100428599D01*
X136833585Y-100428598D01*
X136833582Y-100428598D01*
X136612563Y-100399500D01*
X136389637Y-100399500D01*
X136168618Y-100428598D01*
X136168616Y-100428598D01*
X136168613Y-100428599D01*
X135953287Y-100486294D01*
X135747330Y-100571605D01*
X135554264Y-100683072D01*
X135554257Y-100683077D01*
X135377418Y-100818771D01*
X135219771Y-100976418D01*
X135084077Y-101153257D01*
X135084072Y-101153264D01*
X134972605Y-101346330D01*
X134887294Y-101552287D01*
X134829599Y-101767613D01*
X134829598Y-101767618D01*
X134801807Y-101978708D01*
X134800500Y-101988637D01*
X133584059Y-101988637D01*
X133596064Y-101774866D01*
X133596530Y-101770738D01*
X133597172Y-101766962D01*
X133650746Y-101451641D01*
X133651664Y-101447619D01*
X133741273Y-101136582D01*
X133742636Y-101132685D01*
X133866507Y-100833636D01*
X133868297Y-100829919D01*
X134024868Y-100546624D01*
X134027073Y-100543116D01*
X134214372Y-100279143D01*
X134216951Y-100275907D01*
X134432628Y-100034566D01*
X134435568Y-100031627D01*
X134511523Y-99963749D01*
X134676907Y-99815951D01*
X134680143Y-99813372D01*
X134749983Y-99763818D01*
X139903600Y-99763818D01*
X139903600Y-99956381D01*
X139941162Y-100145220D01*
X139941163Y-100145222D01*
X139941164Y-100145226D01*
X140014850Y-100323120D01*
X140014851Y-100323122D01*
X140014852Y-100323123D01*
X140118493Y-100478233D01*
X140121826Y-100483220D01*
X140257980Y-100619374D01*
X140418080Y-100726350D01*
X140595974Y-100800036D01*
X140595978Y-100800036D01*
X140595979Y-100800037D01*
X140784818Y-100837599D01*
X140784821Y-100837599D01*
X140784825Y-100837600D01*
X140784828Y-100837600D01*
X140977372Y-100837600D01*
X140977375Y-100837600D01*
X140977378Y-100837599D01*
X140977381Y-100837599D01*
X141134583Y-100806330D01*
X141166226Y-100800036D01*
X141344120Y-100726350D01*
X141504220Y-100619374D01*
X141640374Y-100483220D01*
X141747350Y-100323120D01*
X141821036Y-100145226D01*
X141826240Y-100119062D01*
X141842014Y-100095453D01*
X141862627Y-100089200D01*
X145150835Y-100089200D01*
X145177069Y-100100066D01*
X145775921Y-100698918D01*
X145786787Y-100725152D01*
X145783963Y-100739349D01*
X145731266Y-100866573D01*
X145731264Y-100866579D01*
X145700500Y-101021241D01*
X145700500Y-101178958D01*
X145731264Y-101333620D01*
X145731265Y-101333622D01*
X145731266Y-101333626D01*
X145791617Y-101479326D01*
X145879233Y-101610453D01*
X145990747Y-101721967D01*
X146121874Y-101809583D01*
X146267574Y-101869934D01*
X146267578Y-101869934D01*
X146267579Y-101869935D01*
X146422241Y-101900699D01*
X146422244Y-101900699D01*
X146422248Y-101900700D01*
X146422251Y-101900700D01*
X146579949Y-101900700D01*
X146579952Y-101900700D01*
X146579955Y-101900699D01*
X146579958Y-101900699D01*
X146657289Y-101885317D01*
X146734626Y-101869934D01*
X146880326Y-101809583D01*
X147011453Y-101721967D01*
X147122967Y-101610453D01*
X147210583Y-101479326D01*
X147270934Y-101333626D01*
X147301700Y-101178952D01*
X147301700Y-101021248D01*
X147270934Y-100866574D01*
X147210583Y-100720874D01*
X147122967Y-100589747D01*
X147011453Y-100478233D01*
X146880326Y-100390617D01*
X146734626Y-100330266D01*
X146734622Y-100330265D01*
X146734620Y-100330264D01*
X146579958Y-100299500D01*
X146579952Y-100299500D01*
X146422248Y-100299500D01*
X146422241Y-100299500D01*
X146267579Y-100330264D01*
X146267573Y-100330266D01*
X146140349Y-100382963D01*
X146111954Y-100382963D01*
X146099918Y-100374921D01*
X145390874Y-99665877D01*
X145331264Y-99641187D01*
X145331263Y-99641186D01*
X145306672Y-99631000D01*
X145306671Y-99631000D01*
X141862627Y-99631000D01*
X141836393Y-99620134D01*
X141826240Y-99601137D01*
X141821038Y-99574981D01*
X141821036Y-99574978D01*
X141821036Y-99574974D01*
X141747350Y-99397080D01*
X141640374Y-99236980D01*
X141504220Y-99100826D01*
X141469828Y-99077846D01*
X141344123Y-98993852D01*
X141344122Y-98993851D01*
X141344120Y-98993850D01*
X141166226Y-98920164D01*
X141166222Y-98920163D01*
X141166220Y-98920162D01*
X140977381Y-98882600D01*
X140977375Y-98882600D01*
X140784825Y-98882600D01*
X140784818Y-98882600D01*
X140595979Y-98920162D01*
X140595977Y-98920163D01*
X140595975Y-98920163D01*
X140595974Y-98920164D01*
X140418080Y-98993850D01*
X140418078Y-98993850D01*
X140418076Y-98993852D01*
X140257983Y-99100823D01*
X140121823Y-99236983D01*
X140014852Y-99397076D01*
X140014850Y-99397078D01*
X140014850Y-99397080D01*
X139950212Y-99553131D01*
X139941163Y-99574977D01*
X139941162Y-99574979D01*
X139903600Y-99763818D01*
X134749983Y-99763818D01*
X134944116Y-99626073D01*
X134947624Y-99623868D01*
X135230919Y-99467297D01*
X135234636Y-99465507D01*
X135533685Y-99341636D01*
X135537582Y-99340273D01*
X135848619Y-99250664D01*
X135852641Y-99249746D01*
X136171743Y-99195529D01*
X136175866Y-99195064D01*
X136500067Y-99176857D01*
X136502147Y-99176800D01*
X136637209Y-99176800D01*
X136637214Y-99176800D01*
X136907113Y-99141267D01*
X137170066Y-99070810D01*
X137421572Y-98966633D01*
X137657329Y-98830518D01*
X137873302Y-98664796D01*
X138065796Y-98472302D01*
X138199850Y-98297600D01*
X138231509Y-98256341D01*
X138231510Y-98256338D01*
X138231518Y-98256329D01*
X138367633Y-98020572D01*
X138471810Y-97769066D01*
X138542267Y-97506113D01*
X138577800Y-97236214D01*
X138577800Y-97100100D01*
X138577800Y-97075179D01*
X138577800Y-96457537D01*
X139903600Y-96457537D01*
X139903600Y-98182662D01*
X139904334Y-98186350D01*
X139910998Y-98219848D01*
X139939178Y-98262022D01*
X139981352Y-98290202D01*
X140018542Y-98297600D01*
X140018543Y-98297600D01*
X141743657Y-98297600D01*
X141743658Y-98297600D01*
X141780848Y-98290202D01*
X141823022Y-98262022D01*
X141851202Y-98219848D01*
X141858600Y-98182658D01*
X141858600Y-97586300D01*
X141869466Y-97560066D01*
X141895700Y-97549200D01*
X144610835Y-97549200D01*
X144637069Y-97560066D01*
X145775921Y-98698918D01*
X145786787Y-98725152D01*
X145783963Y-98739349D01*
X145731266Y-98866573D01*
X145731264Y-98866579D01*
X145700500Y-99021241D01*
X145700500Y-99178958D01*
X145731264Y-99333620D01*
X145731265Y-99333622D01*
X145731266Y-99333626D01*
X145791617Y-99479326D01*
X145879233Y-99610453D01*
X145990747Y-99721967D01*
X146121874Y-99809583D01*
X146267574Y-99869934D01*
X146267578Y-99869934D01*
X146267579Y-99869935D01*
X146422241Y-99900699D01*
X146422244Y-99900699D01*
X146422248Y-99900700D01*
X146422251Y-99900700D01*
X146579949Y-99900700D01*
X146579952Y-99900700D01*
X146579955Y-99900699D01*
X146579958Y-99900699D01*
X146657289Y-99885317D01*
X146734626Y-99869934D01*
X146880326Y-99809583D01*
X147011453Y-99721967D01*
X147122967Y-99610453D01*
X147210583Y-99479326D01*
X147270934Y-99333626D01*
X147290158Y-99236980D01*
X147301699Y-99178958D01*
X147301700Y-99178949D01*
X147301700Y-99021250D01*
X147301699Y-99021241D01*
X147700500Y-99021241D01*
X147700500Y-99178958D01*
X147731264Y-99333620D01*
X147731265Y-99333622D01*
X147731266Y-99333626D01*
X147791617Y-99479326D01*
X147879233Y-99610453D01*
X147990747Y-99721967D01*
X148121874Y-99809583D01*
X148267574Y-99869934D01*
X148267578Y-99869934D01*
X148267579Y-99869935D01*
X148422241Y-99900699D01*
X148422244Y-99900699D01*
X148422248Y-99900700D01*
X148422251Y-99900700D01*
X148579949Y-99900700D01*
X148579952Y-99900700D01*
X148579955Y-99900699D01*
X148579958Y-99900699D01*
X148657289Y-99885317D01*
X148734626Y-99869934D01*
X148880326Y-99809583D01*
X149011453Y-99721967D01*
X149122967Y-99610453D01*
X149210583Y-99479326D01*
X149270934Y-99333626D01*
X149290158Y-99236980D01*
X149301699Y-99178958D01*
X149301700Y-99178949D01*
X149301700Y-99021250D01*
X149301699Y-99021241D01*
X149700500Y-99021241D01*
X149700500Y-99178958D01*
X149731264Y-99333620D01*
X149731265Y-99333622D01*
X149731266Y-99333626D01*
X149791617Y-99479326D01*
X149879233Y-99610453D01*
X149990747Y-99721967D01*
X150121874Y-99809583D01*
X150267574Y-99869934D01*
X150267578Y-99869934D01*
X150267579Y-99869935D01*
X150422241Y-99900699D01*
X150422244Y-99900699D01*
X150422248Y-99900700D01*
X150422251Y-99900700D01*
X150579949Y-99900700D01*
X150579952Y-99900700D01*
X150579955Y-99900699D01*
X150579958Y-99900699D01*
X150657289Y-99885317D01*
X150734626Y-99869934D01*
X150880326Y-99809583D01*
X151011453Y-99721967D01*
X151122967Y-99610453D01*
X151210583Y-99479326D01*
X151270934Y-99333626D01*
X151290158Y-99236980D01*
X151301699Y-99178958D01*
X151301700Y-99178949D01*
X151301700Y-99021250D01*
X151301699Y-99021241D01*
X151270935Y-98866579D01*
X151270934Y-98866578D01*
X151270934Y-98866574D01*
X151210583Y-98720874D01*
X151122967Y-98589747D01*
X151011453Y-98478233D01*
X150880326Y-98390617D01*
X150734626Y-98330266D01*
X150734622Y-98330265D01*
X150734620Y-98330264D01*
X150579958Y-98299500D01*
X150579952Y-98299500D01*
X150422248Y-98299500D01*
X150422241Y-98299500D01*
X150267579Y-98330264D01*
X150267577Y-98330265D01*
X150267575Y-98330265D01*
X150267574Y-98330266D01*
X150121874Y-98390617D01*
X149990747Y-98478233D01*
X149879233Y-98589747D01*
X149791617Y-98720874D01*
X149731267Y-98866573D01*
X149731265Y-98866577D01*
X149731264Y-98866579D01*
X149700500Y-99021241D01*
X149301699Y-99021241D01*
X149270935Y-98866579D01*
X149270934Y-98866578D01*
X149270934Y-98866574D01*
X149210583Y-98720874D01*
X149122967Y-98589747D01*
X149011453Y-98478233D01*
X148880326Y-98390617D01*
X148734626Y-98330266D01*
X148734622Y-98330265D01*
X148734620Y-98330264D01*
X148579958Y-98299500D01*
X148579952Y-98299500D01*
X148422248Y-98299500D01*
X148422241Y-98299500D01*
X148267579Y-98330264D01*
X148267577Y-98330265D01*
X148267575Y-98330265D01*
X148267574Y-98330266D01*
X148121874Y-98390617D01*
X147990747Y-98478233D01*
X147879233Y-98589747D01*
X147791617Y-98720874D01*
X147731267Y-98866573D01*
X147731265Y-98866577D01*
X147731264Y-98866579D01*
X147700500Y-99021241D01*
X147301699Y-99021241D01*
X147270935Y-98866579D01*
X147270934Y-98866578D01*
X147270934Y-98866574D01*
X147210583Y-98720874D01*
X147122967Y-98589747D01*
X147011453Y-98478233D01*
X146880326Y-98390617D01*
X146734626Y-98330266D01*
X146734622Y-98330265D01*
X146734620Y-98330264D01*
X146579958Y-98299500D01*
X146579952Y-98299500D01*
X146422248Y-98299500D01*
X146422241Y-98299500D01*
X146267579Y-98330264D01*
X146267573Y-98330266D01*
X146140349Y-98382963D01*
X146111954Y-98382963D01*
X146099918Y-98374921D01*
X144850874Y-97125877D01*
X144788640Y-97100100D01*
X144788639Y-97100099D01*
X144766672Y-97091000D01*
X144766671Y-97091000D01*
X141895700Y-97091000D01*
X141869466Y-97080134D01*
X141858600Y-97053900D01*
X141858600Y-96457543D01*
X141858599Y-96457537D01*
X141857866Y-96453850D01*
X141851202Y-96420352D01*
X141823022Y-96378178D01*
X141780848Y-96349998D01*
X141780844Y-96349997D01*
X141743662Y-96342600D01*
X141743658Y-96342600D01*
X140018542Y-96342600D01*
X140018537Y-96342600D01*
X139981355Y-96349997D01*
X139981353Y-96349997D01*
X139981352Y-96349998D01*
X139981350Y-96349998D01*
X139981348Y-96350000D01*
X139939180Y-96378176D01*
X139939176Y-96378180D01*
X139911000Y-96420348D01*
X139910997Y-96420355D01*
X139903600Y-96457537D01*
X138577800Y-96457537D01*
X138577800Y-96431320D01*
X138577879Y-96428894D01*
X138593274Y-96194013D01*
X138593908Y-96189201D01*
X138611757Y-96099467D01*
X138639592Y-95959528D01*
X138640840Y-95954871D01*
X138716115Y-95733120D01*
X138717966Y-95728651D01*
X138821543Y-95518616D01*
X138823957Y-95514436D01*
X138954061Y-95319723D01*
X138957000Y-95315893D01*
X139111414Y-95139816D01*
X139114816Y-95136414D01*
X139290893Y-94982000D01*
X139294723Y-94979061D01*
X139489436Y-94848957D01*
X139493616Y-94846543D01*
X139703651Y-94742966D01*
X139708120Y-94741115D01*
X139929871Y-94665840D01*
X139934528Y-94664592D01*
X140164203Y-94618907D01*
X140169010Y-94618274D01*
X140403895Y-94602879D01*
X140406321Y-94602800D01*
X140430021Y-94602800D01*
X156380179Y-94602800D01*
X156403879Y-94602800D01*
X156406305Y-94602879D01*
G37*
%TD.AperFunction*%
%TD*%
M02*
