%TF.GenerationSoftware,KiCad,Pcbnew,9.0.8-1.fc42*%
%TF.CreationDate,2026-04-09T21:13:40+03:00*%
%TF.ProjectId,sensor_board,73656e73-6f72-45f6-926f-6172642e6b69,rev?*%
%TF.SameCoordinates,Original*%
%TF.FileFunction,Legend,Top*%
%TF.FilePolarity,Positive*%
%FSLAX46Y46*%
G04 Gerber Fmt 4.6, Leading zero omitted, Abs format (unit mm)*
G04 Created by KiCad (PCBNEW 9.0.8-1.fc42) date 2026-04-09 21:13:40*
%MOMM*%
%LPD*%
G01*
G04 APERTURE LIST*
%ADD10C,0.200000*%
%ADD11C,0.250000*%
%ADD12C,0.127000*%
%ADD13C,0.120000*%
G04 APERTURE END LIST*
D10*
%TO.C,MAG3*%
X161399200Y-100348600D02*
X161399200Y-99148600D01*
X164199200Y-99148600D02*
X161399200Y-99148600D01*
X164199200Y-100348600D02*
X161399200Y-100348600D01*
X164199200Y-100348600D02*
X164199200Y-99148600D01*
D11*
X161974200Y-102073600D02*
G75*
G02*
X161724200Y-102073600I-125000J0D01*
G01*
X161724200Y-102073600D02*
G75*
G02*
X161974200Y-102073600I125000J0D01*
G01*
D12*
%TO.C,C5*%
X175001100Y-112671900D02*
X172801100Y-112671900D01*
X175001100Y-114765300D02*
X172801100Y-114765300D01*
%TO.C,D6*%
X170195588Y-119321339D02*
X169822784Y-119163093D01*
X171385708Y-115481073D02*
X169822784Y-119163093D01*
X171758513Y-115639319D02*
X171385708Y-115481073D01*
D10*
X173067465Y-115337718D02*
G75*
G02*
X172867463Y-115337718I-100001J0D01*
G01*
X172867463Y-115337718D02*
G75*
G02*
X173067465Y-115337718I100001J0D01*
G01*
D12*
%TO.C,C17*%
X134399232Y-127790768D02*
X133201027Y-129635842D01*
X136154905Y-128930914D02*
X134956700Y-130775988D01*
%TO.C,C14*%
X168321408Y-122093709D02*
X170166482Y-123291914D01*
X169461554Y-120338036D02*
X171306628Y-121536241D01*
D13*
%TO.C,U3*%
X172341100Y-109506600D02*
X172391100Y-109506600D01*
X172341100Y-111326600D02*
X172341100Y-109506600D01*
X172391100Y-111326600D02*
X172341100Y-111326600D01*
X173511100Y-109506600D02*
X174291100Y-109506600D01*
X175411100Y-109506600D02*
X175461100Y-109506600D01*
X175461100Y-109506600D02*
X175461100Y-111326600D01*
X175461100Y-111326600D02*
X175411100Y-111326600D01*
X172391100Y-111866600D02*
X172061100Y-112106600D01*
X172061100Y-111626600D01*
X172391100Y-111866600D01*
G36*
X172391100Y-111866600D02*
G01*
X172061100Y-112106600D01*
X172061100Y-111626600D01*
X172391100Y-111866600D01*
G37*
D10*
%TO.C,MAG1*%
X147101100Y-125113600D02*
X147101100Y-123913600D01*
X149901100Y-123913600D02*
X147101100Y-123913600D01*
X149901100Y-125113600D02*
X147101100Y-125113600D01*
X149901100Y-125113600D02*
X149901100Y-123913600D01*
D11*
X147676100Y-126838600D02*
G75*
G02*
X147426100Y-126838600I-125000J0D01*
G01*
X147426100Y-126838600D02*
G75*
G02*
X147676100Y-126838600I125000J0D01*
G01*
D13*
%TO.C,U1*%
X121541100Y-109506600D02*
X121591100Y-109506600D01*
X121541100Y-111326600D02*
X121541100Y-109506600D01*
X121591100Y-111326600D02*
X121541100Y-111326600D01*
X122711100Y-109506600D02*
X123491100Y-109506600D01*
X124611100Y-109506600D02*
X124661100Y-109506600D01*
X124661100Y-109506600D02*
X124661100Y-111326600D01*
X124661100Y-111326600D02*
X124611100Y-111326600D01*
X121591100Y-111866600D02*
X121261100Y-112106600D01*
X121261100Y-111626600D01*
X121591100Y-111866600D01*
G36*
X121591100Y-111866600D02*
G01*
X121261100Y-112106600D01*
X121261100Y-111626600D01*
X121591100Y-111866600D01*
G37*
D12*
%TO.C,C13*%
X160857992Y-128953367D02*
X162056197Y-130798441D01*
X162613665Y-127813221D02*
X163811870Y-129658295D01*
%TO.C,U5*%
X146670100Y-86870600D02*
X146670100Y-86210600D01*
X148455100Y-87340600D02*
X147785100Y-87340600D01*
X149570100Y-86210600D02*
X149570100Y-86870600D01*
D10*
X149270100Y-84130600D02*
G75*
G02*
X149070100Y-84130600I-100000J0D01*
G01*
X149070100Y-84130600D02*
G75*
G02*
X149270100Y-84130600I100000J0D01*
G01*
D12*
%TO.C,C1*%
X151851400Y-85065600D02*
X151851400Y-81665600D01*
X154294800Y-85065600D02*
X154294800Y-81665600D01*
%TO.C,C9*%
X158630400Y-98648600D02*
X158630400Y-100848600D01*
X160723800Y-98648600D02*
X160723800Y-100848600D01*
%TO.C,C18*%
X150201100Y-132181900D02*
X146801100Y-132181900D01*
X150201100Y-134625300D02*
X146801100Y-134625300D01*
%TO.C,S2*%
X117656100Y-110383600D02*
X117656100Y-105623600D01*
X119176100Y-104503600D02*
X120156100Y-104503600D01*
X119176100Y-111503600D02*
X120156100Y-111503600D01*
X120156100Y-104503600D02*
X120156100Y-105133600D01*
X120156100Y-106673600D02*
X120156100Y-109333600D01*
X120156100Y-111503600D02*
X120156100Y-110873600D01*
%TO.C,D8*%
X155715087Y-85104266D02*
X159423822Y-86602692D01*
X155866803Y-84728756D02*
X155715087Y-85104266D01*
X159575538Y-86227183D02*
X159423822Y-86602692D01*
D10*
X155644148Y-83525254D02*
G75*
G02*
X155444148Y-83525254I-100000J0D01*
G01*
X155444148Y-83525254D02*
G75*
G02*
X155644148Y-83525254I100000J0D01*
G01*
D12*
%TO.C,C3*%
X124201100Y-101028300D02*
X122001100Y-101028300D01*
X124201100Y-103121700D02*
X122001100Y-103121700D01*
%TO.C,D2*%
X124963231Y-100585578D02*
X125338741Y-100737294D01*
X125338741Y-100737294D02*
X126837167Y-97028559D01*
X126461658Y-96876843D02*
X126837167Y-97028559D01*
D10*
X123859729Y-100908233D02*
G75*
G02*
X123659729Y-100908233I-100000J0D01*
G01*
X123659729Y-100908233D02*
G75*
G02*
X123859729Y-100908233I100000J0D01*
G01*
D12*
%TO.C,C7*%
X150629400Y-123413600D02*
X150629400Y-125613600D01*
X152722800Y-123413600D02*
X152722800Y-125613600D01*
%TO.C,C4*%
X124201100Y-112671900D02*
X122001100Y-112671900D01*
X124201100Y-114765300D02*
X122001100Y-114765300D01*
%TO.C,C10*%
X168310721Y-93891035D02*
X170155795Y-92692830D01*
X169450867Y-95646708D02*
X171295941Y-94448503D01*
%TO.C,C6*%
X172801100Y-101241900D02*
X175001100Y-101241900D01*
X172801100Y-103335300D02*
X175001100Y-103335300D01*
%TO.C,D7*%
X169849690Y-97028562D02*
X171348116Y-100737297D01*
X170225199Y-96876846D02*
X169849690Y-97028562D01*
X171723626Y-100585581D02*
X171348116Y-100737297D01*
D10*
X170966793Y-95808724D02*
G75*
G02*
X170766791Y-95808724I-100001J0D01*
G01*
X170766791Y-95808724D02*
G75*
G02*
X170966793Y-95808724I100001J0D01*
G01*
D12*
%TO.C,D5*%
X155873791Y-131524041D02*
X155715545Y-131151236D01*
X159397565Y-129588312D02*
X155715545Y-131151236D01*
X159555811Y-129961116D02*
X159397565Y-129588312D01*
D10*
X160734967Y-130583970D02*
G75*
G02*
X160534967Y-130583970I-100000J0D01*
G01*
X160534967Y-130583970D02*
G75*
G02*
X160734967Y-130583970I100000J0D01*
G01*
D12*
%TO.C,C15*%
X160868676Y-87031386D02*
X162066881Y-85186312D01*
X162624349Y-88171532D02*
X163822554Y-86326458D01*
%TO.C,C11*%
X134388535Y-88193979D02*
X133190330Y-86348905D01*
X136144208Y-87053833D02*
X134946003Y-85208759D01*
%TO.C,R2*%
X143921000Y-89275600D02*
X143921000Y-91425600D01*
X145969200Y-89275600D02*
X145969200Y-91425600D01*
%TO.C,S1*%
X176846100Y-104503600D02*
X176846100Y-105133600D01*
X176846100Y-109333600D02*
X176846100Y-106673600D01*
X176846100Y-111503600D02*
X176846100Y-110873600D01*
X177826100Y-104503600D02*
X176846100Y-104503600D01*
X177826100Y-111503600D02*
X176846100Y-111503600D01*
X179346100Y-105623600D02*
X179346100Y-110383600D01*
%TO.C,D3*%
X124928337Y-115639319D02*
X125301142Y-115481073D01*
X126491262Y-119321339D02*
X126864066Y-119163093D01*
X126864066Y-119163093D02*
X125301142Y-115481073D01*
D10*
X125968408Y-120400495D02*
G75*
G02*
X125768408Y-120400495I-100000J0D01*
G01*
X125768408Y-120400495D02*
G75*
G02*
X125968408Y-120400495I100000J0D01*
G01*
D12*
%TO.C,C8*%
X136278400Y-98648600D02*
X136278400Y-100848600D01*
X138371800Y-98648600D02*
X138371800Y-100848600D01*
D13*
%TO.C,U4*%
X172341100Y-104680600D02*
X172391100Y-104680600D01*
X172341100Y-106500600D02*
X172341100Y-104680600D01*
X172391100Y-106500600D02*
X172341100Y-106500600D01*
X174291100Y-106500600D02*
X173511100Y-106500600D01*
X175411100Y-104680600D02*
X175461100Y-104680600D01*
X175461100Y-104680600D02*
X175461100Y-106500600D01*
X175461100Y-106500600D02*
X175411100Y-106500600D01*
X175741100Y-104380600D02*
X175411100Y-104140600D01*
X175741100Y-103900600D01*
X175741100Y-104380600D01*
G36*
X175741100Y-104380600D02*
G01*
X175411100Y-104140600D01*
X175741100Y-103900600D01*
X175741100Y-104380600D01*
G37*
D12*
%TO.C,C2*%
X142580400Y-85065600D02*
X142580400Y-81665600D01*
X145023800Y-85065600D02*
X145023800Y-81665600D01*
%TO.C,RN1*%
X146425000Y-91800000D02*
X146425000Y-90000000D01*
X149825000Y-90000000D02*
X149825000Y-91800000D01*
D10*
X146725000Y-92800000D02*
G75*
G02*
X146525000Y-92800000I-100000J0D01*
G01*
X146525000Y-92800000D02*
G75*
G02*
X146725000Y-92800000I100000J0D01*
G01*
D13*
%TO.C,U2*%
X121541100Y-104680600D02*
X121591100Y-104680600D01*
X121541100Y-106500600D02*
X121541100Y-104680600D01*
X121591100Y-106500600D02*
X121541100Y-106500600D01*
X123491100Y-106500600D02*
X122711100Y-106500600D01*
X124611100Y-104680600D02*
X124661100Y-104680600D01*
X124661100Y-104680600D02*
X124661100Y-106500600D01*
X124661100Y-106500600D02*
X124611100Y-106500600D01*
X124941100Y-104380600D02*
X124611100Y-104140600D01*
X124941100Y-103900600D01*
X124941100Y-104380600D01*
G36*
X124941100Y-104380600D02*
G01*
X124611100Y-104140600D01*
X124941100Y-103900600D01*
X124941100Y-104380600D01*
G37*
D12*
%TO.C,C12*%
X127551333Y-120360492D02*
X125706259Y-121558697D01*
X128691479Y-122116165D02*
X126846405Y-123314370D01*
%TO.C,R1*%
X150271000Y-89275600D02*
X150271000Y-91425600D01*
X152319200Y-89275600D02*
X152319200Y-91425600D01*
%TO.C,D1*%
X137111318Y-86227180D02*
X137263034Y-86602689D01*
X137263034Y-86602689D02*
X140971769Y-85104263D01*
X140820053Y-84728753D02*
X140971769Y-85104263D01*
D10*
X136143197Y-85585587D02*
G75*
G02*
X135943195Y-85585587I-100001J0D01*
G01*
X135943195Y-85585587D02*
G75*
G02*
X136143197Y-85585587I100001J0D01*
G01*
%TO.C,MAG2*%
X132803000Y-100348600D02*
X132803000Y-99148600D01*
X135603000Y-99148600D02*
X132803000Y-99148600D01*
X135603000Y-100348600D02*
X132803000Y-100348600D01*
X135603000Y-100348600D02*
X135603000Y-99148600D01*
D11*
X133378000Y-102073600D02*
G75*
G02*
X133128000Y-102073600I-125000J0D01*
G01*
X133128000Y-102073600D02*
G75*
G02*
X133378000Y-102073600I125000J0D01*
G01*
D12*
%TO.C,C16*%
X127562027Y-95624261D02*
X125716953Y-94426056D01*
X128702173Y-93868588D02*
X126857099Y-92670383D01*
%TO.C,D4*%
X137111315Y-129990724D02*
X137263031Y-129615215D01*
X140820050Y-131489151D02*
X140971766Y-131113641D01*
X140971766Y-131113641D02*
X137263031Y-129615215D01*
D10*
X141242705Y-132692653D02*
G75*
G02*
X141042705Y-132692653I-100000J0D01*
G01*
X141042705Y-132692653D02*
G75*
G02*
X141242705Y-132692653I100000J0D01*
G01*
%TD*%
M02*
