%TF.GenerationSoftware,KiCad,Pcbnew,9.0.8-1.fc42*%
%TF.CreationDate,2026-04-09T21:13:40+03:00*%
%TF.ProjectId,sensor_board,73656e73-6f72-45f6-926f-6172642e6b69,rev?*%
%TF.SameCoordinates,Original*%
%TF.FileFunction,Paste,Top*%
%TF.FilePolarity,Positive*%
%FSLAX46Y46*%
G04 Gerber Fmt 4.6, Leading zero omitted, Abs format (unit mm)*
G04 Created by KiCad (PCBNEW 9.0.8-1.fc42) date 2026-04-09 21:13:40*
%MOMM*%
%LPD*%
G01*
G04 APERTURE LIST*
G04 Aperture macros list*
%AMRoundRect*
0 Rectangle with rounded corners*
0 $1 Rounding radius*
0 $2 $3 $4 $5 $6 $7 $8 $9 X,Y pos of 4 corners*
0 Add a 4 corners polygon primitive as box body*
4,1,4,$2,$3,$4,$5,$6,$7,$8,$9,$2,$3,0*
0 Add four circle primitives for the rounded corners*
1,1,$1+$1,$2,$3*
1,1,$1+$1,$4,$5*
1,1,$1+$1,$6,$7*
1,1,$1+$1,$8,$9*
0 Add four rect primitives between the rounded corners*
20,1,$1+$1,$2,$3,$4,$5,0*
20,1,$1+$1,$4,$5,$6,$7,0*
20,1,$1+$1,$6,$7,$8,$9,0*
20,1,$1+$1,$8,$9,$2,$3,0*%
%AMRotRect*
0 Rectangle, with rotation*
0 The origin of the aperture is its center*
0 $1 length*
0 $2 width*
0 $3 Rotation angle, in degrees counterclockwise*
0 Add horizontal line*
21,1,$1,$2,0,0,$3*%
G04 Aperture macros list end*
%ADD10C,0.000000*%
%ADD11R,0.500000X0.750000*%
%ADD12R,1.164600X1.465300*%
%ADD13RotRect,1.005000X1.230000X247.000000*%
%ADD14RotRect,0.700000X1.200000X247.000000*%
%ADD15RotRect,0.450000X1.200000X247.000000*%
%ADD16RotRect,1.005000X1.210000X247.000000*%
%ADD17RotRect,1.164600X1.465300X57.000000*%
%ADD18RotRect,1.164600X1.465300X147.000000*%
%ADD19RoundRect,0.150000X0.150000X-0.512500X0.150000X0.512500X-0.150000X0.512500X-0.150000X-0.512500X0*%
%ADD20RotRect,1.164600X1.465300X123.000000*%
%ADD21RoundRect,0.147500X-0.147500X0.457500X-0.147500X-0.457500X0.147500X-0.457500X0.147500X0.457500X0*%
%ADD22R,1.815300X1.164600*%
%ADD23R,1.465300X1.164600*%
%ADD24R,1.164600X1.815300*%
%ADD25R,1.200000X0.900000*%
%ADD26RotRect,1.005000X1.230000X338.000000*%
%ADD27RotRect,0.700000X1.200000X338.000000*%
%ADD28RotRect,0.450000X1.200000X338.000000*%
%ADD29RotRect,1.005000X1.210000X338.000000*%
%ADD30RotRect,1.005000X1.230000X68.000000*%
%ADD31RotRect,0.700000X1.200000X68.000000*%
%ADD32RotRect,0.450000X1.200000X68.000000*%
%ADD33RotRect,1.005000X1.210000X68.000000*%
%ADD34RotRect,1.164600X1.465300X213.000000*%
%ADD35RotRect,1.005000X1.230000X292.000000*%
%ADD36RotRect,0.700000X1.200000X292.000000*%
%ADD37RotRect,0.450000X1.200000X292.000000*%
%ADD38RotRect,1.005000X1.210000X292.000000*%
%ADD39RotRect,1.005000X1.230000X203.000000*%
%ADD40RotRect,0.700000X1.200000X203.000000*%
%ADD41RotRect,0.450000X1.200000X203.000000*%
%ADD42RotRect,1.005000X1.210000X203.000000*%
%ADD43RotRect,1.164600X1.465300X237.000000*%
%ADD44RotRect,1.164600X1.465300X303.000000*%
%ADD45R,1.420200X1.031200*%
%ADD46RotRect,1.005000X1.230000X113.000000*%
%ADD47RotRect,0.700000X1.200000X113.000000*%
%ADD48RotRect,0.450000X1.200000X113.000000*%
%ADD49RotRect,1.005000X1.210000X113.000000*%
%ADD50RoundRect,0.150000X-0.150000X0.512500X-0.150000X-0.512500X0.150000X-0.512500X0.150000X0.512500X0*%
%ADD51RoundRect,0.066250X0.198750X-0.418750X0.198750X0.418750X-0.198750X0.418750X-0.198750X-0.418750X0*%
%ADD52RoundRect,0.066250X-0.198750X0.418750X-0.198750X-0.418750X0.198750X-0.418750X0.198750X0.418750X0*%
%ADD53RotRect,1.164600X1.465300X33.000000*%
%ADD54RotRect,1.005000X1.230000X22.000000*%
%ADD55RotRect,0.700000X1.200000X22.000000*%
%ADD56RotRect,0.450000X1.200000X22.000000*%
%ADD57RotRect,1.005000X1.210000X22.000000*%
%ADD58RotRect,1.164600X1.465300X327.000000*%
%ADD59RotRect,1.005000X1.230000X158.000000*%
%ADD60RotRect,0.700000X1.200000X158.000000*%
%ADD61RotRect,0.450000X1.200000X158.000000*%
%ADD62RotRect,1.005000X1.210000X158.000000*%
G04 APERTURE END LIST*
D10*
%TO.C,D6*%
G36*
X171855287Y-119314273D02*
G01*
X171636478Y-119829756D01*
X171406351Y-119732073D01*
X171230522Y-120146300D01*
X170715040Y-119927491D01*
X170890869Y-119513264D01*
X170522667Y-119356971D01*
X170741476Y-118841489D01*
X171855287Y-119314273D01*
G37*
G36*
X173031793Y-115902773D02*
G01*
X172855964Y-116317000D01*
X173086090Y-116414683D01*
X172867281Y-116930166D01*
X171753470Y-116457381D01*
X171972279Y-115941898D01*
X172340481Y-116098191D01*
X172516310Y-115683964D01*
X173031793Y-115902773D01*
G37*
%TO.C,S2*%
G36*
X118861100Y-112208600D02*
G01*
X117351100Y-112208600D01*
X117351100Y-110698600D01*
X118861100Y-110698600D01*
X118861100Y-112208600D01*
G37*
G36*
X118861100Y-105308600D02*
G01*
X117351100Y-105308600D01*
X117351100Y-103798600D01*
X118861100Y-103798600D01*
X118861100Y-105308600D01*
G37*
%TO.C,D8*%
G36*
X157138102Y-83597629D02*
G01*
X156684828Y-84719521D01*
X156165605Y-84509742D01*
X156315447Y-84138868D01*
X155898215Y-83970295D01*
X156107994Y-83451072D01*
X156525227Y-83619645D01*
X156618879Y-83387849D01*
X157138102Y-83597629D01*
G37*
G36*
X160058731Y-84777640D02*
G01*
X159965079Y-85009436D01*
X160382312Y-85178009D01*
X160172532Y-85697232D01*
X159755299Y-85528659D01*
X159605457Y-85899532D01*
X159086234Y-85689753D01*
X159539508Y-84567860D01*
X160058731Y-84777640D01*
G37*
%TO.C,D2*%
G36*
X124953996Y-99767553D02*
G01*
X124744217Y-100286776D01*
X124373343Y-100136934D01*
X124204770Y-100554166D01*
X123685547Y-100344387D01*
X123854120Y-99927154D01*
X123622324Y-99833502D01*
X123832104Y-99314279D01*
X124953996Y-99767553D01*
G37*
G36*
X125931707Y-96279849D02*
G01*
X125763134Y-96697082D01*
X126134007Y-96846924D01*
X125924228Y-97366147D01*
X124802335Y-96912873D01*
X125012115Y-96393650D01*
X125243911Y-96487302D01*
X125412484Y-96070069D01*
X125931707Y-96279849D01*
G37*
%TO.C,D7*%
G36*
X171480407Y-96580023D02*
G01*
X171712203Y-96486372D01*
X171921983Y-97005595D01*
X170800090Y-97458869D01*
X170590310Y-96939646D01*
X170961184Y-96789803D01*
X170792611Y-96372570D01*
X171311834Y-96162791D01*
X171480407Y-96580023D01*
G37*
G36*
X173101993Y-99926224D02*
G01*
X172870197Y-100019875D01*
X173038770Y-100437108D01*
X172519547Y-100646888D01*
X172350974Y-100229655D01*
X171980101Y-100379498D01*
X171770321Y-99860275D01*
X172892214Y-99407001D01*
X173101993Y-99926224D01*
G37*
%TO.C,D5*%
G36*
X157072587Y-132671882D02*
G01*
X156557104Y-132890691D01*
X156459422Y-132660565D01*
X156045194Y-132836394D01*
X155826385Y-132320911D01*
X156240612Y-132145082D01*
X156084320Y-131776880D01*
X156599802Y-131558071D01*
X157072587Y-132671882D01*
G37*
G36*
X159655685Y-130695470D02*
G01*
X160069912Y-130519641D01*
X160288722Y-131035124D01*
X159874495Y-131210954D01*
X159972177Y-131441079D01*
X159456695Y-131659888D01*
X158983910Y-130546077D01*
X159499393Y-130327268D01*
X159655685Y-130695470D01*
G37*
%TO.C,S1*%
G36*
X179651100Y-112208600D02*
G01*
X178141100Y-112208600D01*
X178141100Y-110698600D01*
X179651100Y-110698600D01*
X179651100Y-112208600D01*
G37*
G36*
X179651100Y-105308600D02*
G01*
X178141100Y-105308600D01*
X178141100Y-103798600D01*
X179651100Y-103798600D01*
X179651100Y-105308600D01*
G37*
%TO.C,D3*%
G36*
X124307296Y-116006140D02*
G01*
X124675498Y-115849848D01*
X124894307Y-116365330D01*
X123780496Y-116838115D01*
X123561687Y-116322632D01*
X123791813Y-116224950D01*
X123615984Y-115810722D01*
X124131467Y-115591913D01*
X124307296Y-116006140D01*
G37*
G36*
X126125110Y-119264921D02*
G01*
X125756908Y-119421213D01*
X125932737Y-119835440D01*
X125417254Y-120054250D01*
X125241424Y-119640023D01*
X125011299Y-119737705D01*
X124792490Y-119222223D01*
X125906301Y-118749438D01*
X126125110Y-119264921D01*
G37*
%TO.C,D1*%
G36*
X137693341Y-85652289D02*
G01*
X137174118Y-85862069D01*
X137024275Y-85491195D01*
X136607042Y-85659768D01*
X136397263Y-85140545D01*
X136814495Y-84971972D01*
X136720844Y-84740176D01*
X137240067Y-84530396D01*
X137693341Y-85652289D01*
G37*
G36*
X140254347Y-83582182D02*
G01*
X140671580Y-83413609D01*
X140881360Y-83932832D01*
X140464127Y-84101405D01*
X140613970Y-84472278D01*
X140094747Y-84682058D01*
X139641473Y-83560165D01*
X140160696Y-83350386D01*
X140254347Y-83582182D01*
G37*
%TO.C,D4*%
G36*
X137600619Y-130528154D02*
G01*
X137147345Y-131650047D01*
X136628122Y-131440267D01*
X136721774Y-131208471D01*
X136304541Y-131039898D01*
X136514321Y-130520675D01*
X136931554Y-130689248D01*
X137081396Y-130318375D01*
X137600619Y-130528154D01*
G37*
G36*
X140521248Y-131708165D02*
G01*
X140371406Y-132079039D01*
X140788638Y-132247612D01*
X140578859Y-132766835D01*
X140161626Y-132598262D01*
X140067974Y-132830058D01*
X139548751Y-132620278D01*
X140002025Y-131498386D01*
X140521248Y-131708165D01*
G37*
%TD*%
D11*
%TO.C,MAG3*%
X161849200Y-101073600D03*
X162799200Y-101073600D03*
X163749200Y-101073600D03*
X163749200Y-98423600D03*
X162799200Y-98423600D03*
X161849200Y-98423600D03*
%TD*%
D12*
%TO.C,C5*%
X173025700Y-113718600D03*
X174776500Y-113718600D03*
%TD*%
D13*
%TO.C,D6*%
X172515923Y-116235127D03*
D14*
X171980207Y-117471600D03*
D15*
X171579708Y-118415117D03*
D16*
X171102039Y-119540435D03*
%TD*%
D17*
%TO.C,C17*%
X134201189Y-130017550D03*
X135154743Y-128549206D03*
%TD*%
D18*
%TO.C,C14*%
X170548190Y-122291752D03*
X169079846Y-121338198D03*
%TD*%
D19*
%TO.C,U3*%
X172951101Y-111554100D03*
X173901100Y-111554100D03*
X174851099Y-111554100D03*
X174851099Y-109279100D03*
X172951101Y-109279100D03*
%TD*%
D11*
%TO.C,MAG1*%
X147551100Y-125838600D03*
X148501100Y-125838600D03*
X149451100Y-125838600D03*
X149451100Y-123188600D03*
X148501100Y-123188600D03*
X147551100Y-123188600D03*
%TD*%
D19*
%TO.C,U1*%
X122151101Y-111554100D03*
X123101100Y-111554100D03*
X124051099Y-111554100D03*
X124051099Y-109279100D03*
X122151101Y-109279100D03*
%TD*%
D20*
%TO.C,C13*%
X162811708Y-130040003D03*
X161858154Y-128571659D03*
%TD*%
D21*
%TO.C,U5*%
X149070100Y-85285600D03*
X148120100Y-85285600D03*
X147170100Y-85285600D03*
X147170100Y-87795600D03*
X149070100Y-87795600D03*
%TD*%
D22*
%TO.C,C1*%
X153073100Y-81890200D03*
X153073100Y-84841000D03*
%TD*%
D23*
%TO.C,C9*%
X159677100Y-100624000D03*
X159677100Y-98873200D03*
%TD*%
D24*
%TO.C,C18*%
X147025700Y-133403600D03*
X149976500Y-133403600D03*
%TD*%
D25*
%TO.C,S2*%
X119956100Y-105903600D03*
X119956100Y-110103600D03*
%TD*%
D26*
%TO.C,D8*%
X156449301Y-83961064D03*
D27*
X157694935Y-84475118D03*
D28*
X158645298Y-84859091D03*
D29*
X159778781Y-85317046D03*
%TD*%
D12*
%TO.C,C3*%
X122225700Y-102075000D03*
X123976500Y-102075000D03*
%TD*%
D30*
%TO.C,D2*%
X124195539Y-100003080D03*
D31*
X124709593Y-98757446D03*
D32*
X125093566Y-97807083D03*
D33*
X125551521Y-96673600D03*
%TD*%
D23*
%TO.C,C7*%
X151676100Y-125389000D03*
X151676100Y-123638200D03*
%TD*%
D12*
%TO.C,C4*%
X122225700Y-113718600D03*
X123976500Y-113718600D03*
%TD*%
D34*
%TO.C,C10*%
X170537503Y-93692992D03*
X169069159Y-94646546D03*
%TD*%
D12*
%TO.C,C6*%
X174776500Y-102288600D03*
X173025700Y-102288600D03*
%TD*%
D35*
%TO.C,D7*%
X171182068Y-96762576D03*
D36*
X171677579Y-98015702D03*
D37*
X172061551Y-98966065D03*
D38*
X172519507Y-100099548D03*
%TD*%
D39*
%TO.C,D5*%
X159686763Y-130915845D03*
D40*
X158442476Y-131433151D03*
D41*
X157498958Y-131833650D03*
D42*
X156373641Y-132311319D03*
%TD*%
D43*
%TO.C,C15*%
X162822392Y-85944750D03*
X161868838Y-87413094D03*
%TD*%
D44*
%TO.C,C11*%
X134190492Y-85967197D03*
X135144046Y-87435541D03*
%TD*%
D45*
%TO.C,R2*%
X144945100Y-91270100D03*
X144945100Y-89431100D03*
%TD*%
D25*
%TO.C,S1*%
X177046100Y-110103600D03*
X177046100Y-105903600D03*
%TD*%
D46*
%TO.C,D3*%
X125536533Y-119452291D03*
D47*
X125019227Y-118208004D03*
D48*
X124618728Y-117264486D03*
D49*
X124141059Y-116139169D03*
%TD*%
D23*
%TO.C,C8*%
X137325100Y-100624000D03*
X137325100Y-98873200D03*
%TD*%
D50*
%TO.C,U4*%
X174851099Y-104453100D03*
X173901100Y-104453100D03*
X172951101Y-104453100D03*
X172951101Y-106728100D03*
X174851099Y-106728100D03*
%TD*%
D22*
%TO.C,C2*%
X143802100Y-81890200D03*
X143802100Y-84841000D03*
%TD*%
D51*
%TO.C,RN1*%
X146925000Y-91775000D03*
X147725000Y-91775000D03*
X148525000Y-91775000D03*
X149325000Y-91775000D03*
D52*
X149325000Y-90025000D03*
X148525000Y-90025000D03*
X147725000Y-90025000D03*
X146925000Y-90025000D03*
%TD*%
D50*
%TO.C,U2*%
X124051099Y-104453100D03*
X123101100Y-104453100D03*
X122151101Y-104453100D03*
X122151101Y-106728100D03*
X124051099Y-106728100D03*
%TD*%
D53*
%TO.C,C12*%
X126464697Y-122314208D03*
X127933041Y-121360654D03*
%TD*%
D45*
%TO.C,R1*%
X151295100Y-91270100D03*
X151295100Y-89431100D03*
%TD*%
D54*
%TO.C,D1*%
X136997048Y-85270311D03*
D55*
X138250174Y-84774800D03*
D56*
X139200537Y-84390828D03*
D57*
X140334020Y-83932872D03*
%TD*%
D11*
%TO.C,MAG2*%
X133253000Y-101073600D03*
X134203000Y-101073600D03*
X135153000Y-101073600D03*
X135153000Y-98423600D03*
X134203000Y-98423600D03*
X133253000Y-98423600D03*
%TD*%
D58*
%TO.C,C16*%
X126475391Y-93670545D03*
X127943735Y-94624099D03*
%TD*%
D59*
%TO.C,D4*%
X140237552Y-132256843D03*
D60*
X138991918Y-131742789D03*
D61*
X138041555Y-131358816D03*
D62*
X136908072Y-130900861D03*
%TD*%
M02*
