%TF.GenerationSoftware,KiCad,Pcbnew,9.0.8-1.fc42*%
%TF.CreationDate,2026-04-09T21:13:40+03:00*%
%TF.ProjectId,sensor_board,73656e73-6f72-45f6-926f-6172642e6b69,rev?*%
%TF.SameCoordinates,Original*%
%TF.FileFunction,Legend,Bot*%
%TF.FilePolarity,Positive*%
%FSLAX46Y46*%
G04 Gerber Fmt 4.6, Leading zero omitted, Abs format (unit mm)*
G04 Created by KiCad (PCBNEW 9.0.8-1.fc42) date 2026-04-09 21:13:40*
%MOMM*%
%LPD*%
G01*
G04 APERTURE LIST*
%ADD10C,0.254000*%
%ADD11C,0.101600*%
%ADD12C,0.127000*%
%ADD13C,0.113792*%
%ADD14C,0.076200*%
G04 APERTURE END LIST*
D10*
X130721100Y-90223600D02*
X130721100Y-90858600D01*
X130721100Y-90223600D02*
X131356100Y-90223600D01*
X130721100Y-90223600D02*
X131991100Y-91493600D01*
X130721100Y-125783600D02*
X130721100Y-125148600D01*
X130721100Y-125783600D02*
X131356100Y-125783600D01*
X130721100Y-125783600D02*
X131991100Y-124513600D01*
X141770100Y-85270600D02*
G75*
G02*
X142405100Y-84635600I635000J0D01*
G01*
X141770100Y-91620600D02*
X141770100Y-85270600D01*
X142405100Y-84635600D02*
X154470100Y-84635600D01*
X142405100Y-92255600D02*
G75*
G02*
X141770100Y-91620600I0J635000D01*
G01*
X154470100Y-84635600D02*
G75*
G02*
X155105100Y-85270600I0J-635000D01*
G01*
X154470100Y-92255600D02*
X142405100Y-92255600D01*
X155105100Y-85270600D02*
X155105100Y-91620600D01*
X155105100Y-91620600D02*
G75*
G02*
X154470100Y-92255600I-635000J0D01*
G01*
X166281100Y-90223600D02*
X165011100Y-91493600D01*
X166281100Y-90223600D02*
X165646100Y-90223600D01*
X166281100Y-90223600D02*
X166281100Y-90858600D01*
X166281100Y-125783600D02*
X165011100Y-124513600D01*
X166281100Y-125783600D02*
X165646100Y-125783600D01*
X166281100Y-125783600D02*
X166281100Y-125148600D01*
D11*
X144723438Y-85762140D02*
X144607324Y-85800844D01*
X144607324Y-85800844D02*
X144413800Y-85800844D01*
X144413800Y-85800844D02*
X144336391Y-85762140D01*
X144336391Y-85762140D02*
X144297686Y-85723435D01*
X144297686Y-85723435D02*
X144258981Y-85646025D01*
X144258981Y-85646025D02*
X144258981Y-85568616D01*
X144258981Y-85568616D02*
X144297686Y-85491206D01*
X144297686Y-85491206D02*
X144336391Y-85452501D01*
X144336391Y-85452501D02*
X144413800Y-85413797D01*
X144413800Y-85413797D02*
X144568619Y-85375092D01*
X144568619Y-85375092D02*
X144646029Y-85336387D01*
X144646029Y-85336387D02*
X144684734Y-85297682D01*
X144684734Y-85297682D02*
X144723438Y-85220273D01*
X144723438Y-85220273D02*
X144723438Y-85142863D01*
X144723438Y-85142863D02*
X144684734Y-85065454D01*
X144684734Y-85065454D02*
X144646029Y-85026749D01*
X144646029Y-85026749D02*
X144568619Y-84988044D01*
X144568619Y-84988044D02*
X144375096Y-84988044D01*
X144375096Y-84988044D02*
X144258981Y-85026749D01*
X143910639Y-85800844D02*
X143910639Y-84988044D01*
X143910639Y-84988044D02*
X143717115Y-84988044D01*
X143717115Y-84988044D02*
X143601001Y-85026749D01*
X143601001Y-85026749D02*
X143523591Y-85104159D01*
X143523591Y-85104159D02*
X143484886Y-85181568D01*
X143484886Y-85181568D02*
X143446182Y-85336387D01*
X143446182Y-85336387D02*
X143446182Y-85452501D01*
X143446182Y-85452501D02*
X143484886Y-85607320D01*
X143484886Y-85607320D02*
X143523591Y-85684730D01*
X143523591Y-85684730D02*
X143601001Y-85762140D01*
X143601001Y-85762140D02*
X143717115Y-85800844D01*
X143717115Y-85800844D02*
X143910639Y-85800844D01*
X143136543Y-85568616D02*
X142749496Y-85568616D01*
X143213953Y-85800844D02*
X142943020Y-84988044D01*
X142943020Y-84988044D02*
X142672086Y-85800844D01*
X144723438Y-87667140D02*
X144607324Y-87705844D01*
X144607324Y-87705844D02*
X144413800Y-87705844D01*
X144413800Y-87705844D02*
X144336391Y-87667140D01*
X144336391Y-87667140D02*
X144297686Y-87628435D01*
X144297686Y-87628435D02*
X144258981Y-87551025D01*
X144258981Y-87551025D02*
X144258981Y-87473616D01*
X144258981Y-87473616D02*
X144297686Y-87396206D01*
X144297686Y-87396206D02*
X144336391Y-87357501D01*
X144336391Y-87357501D02*
X144413800Y-87318797D01*
X144413800Y-87318797D02*
X144568619Y-87280092D01*
X144568619Y-87280092D02*
X144646029Y-87241387D01*
X144646029Y-87241387D02*
X144684734Y-87202682D01*
X144684734Y-87202682D02*
X144723438Y-87125273D01*
X144723438Y-87125273D02*
X144723438Y-87047863D01*
X144723438Y-87047863D02*
X144684734Y-86970454D01*
X144684734Y-86970454D02*
X144646029Y-86931749D01*
X144646029Y-86931749D02*
X144568619Y-86893044D01*
X144568619Y-86893044D02*
X144375096Y-86893044D01*
X144375096Y-86893044D02*
X144258981Y-86931749D01*
X143446182Y-87628435D02*
X143484886Y-87667140D01*
X143484886Y-87667140D02*
X143601001Y-87705844D01*
X143601001Y-87705844D02*
X143678410Y-87705844D01*
X143678410Y-87705844D02*
X143794524Y-87667140D01*
X143794524Y-87667140D02*
X143871934Y-87589730D01*
X143871934Y-87589730D02*
X143910639Y-87512320D01*
X143910639Y-87512320D02*
X143949343Y-87357501D01*
X143949343Y-87357501D02*
X143949343Y-87241387D01*
X143949343Y-87241387D02*
X143910639Y-87086568D01*
X143910639Y-87086568D02*
X143871934Y-87009159D01*
X143871934Y-87009159D02*
X143794524Y-86931749D01*
X143794524Y-86931749D02*
X143678410Y-86893044D01*
X143678410Y-86893044D02*
X143601001Y-86893044D01*
X143601001Y-86893044D02*
X143484886Y-86931749D01*
X143484886Y-86931749D02*
X143446182Y-86970454D01*
X142710791Y-87705844D02*
X143097839Y-87705844D01*
X143097839Y-87705844D02*
X143097839Y-86893044D01*
X144258981Y-88836749D02*
X144336391Y-88798044D01*
X144336391Y-88798044D02*
X144452505Y-88798044D01*
X144452505Y-88798044D02*
X144568619Y-88836749D01*
X144568619Y-88836749D02*
X144646029Y-88914159D01*
X144646029Y-88914159D02*
X144684734Y-88991568D01*
X144684734Y-88991568D02*
X144723438Y-89146387D01*
X144723438Y-89146387D02*
X144723438Y-89262501D01*
X144723438Y-89262501D02*
X144684734Y-89417320D01*
X144684734Y-89417320D02*
X144646029Y-89494730D01*
X144646029Y-89494730D02*
X144568619Y-89572140D01*
X144568619Y-89572140D02*
X144452505Y-89610844D01*
X144452505Y-89610844D02*
X144375096Y-89610844D01*
X144375096Y-89610844D02*
X144258981Y-89572140D01*
X144258981Y-89572140D02*
X144220277Y-89533435D01*
X144220277Y-89533435D02*
X144220277Y-89262501D01*
X144220277Y-89262501D02*
X144375096Y-89262501D01*
X143871934Y-89610844D02*
X143871934Y-88798044D01*
X143871934Y-88798044D02*
X143407477Y-89610844D01*
X143407477Y-89610844D02*
X143407477Y-88798044D01*
X143020429Y-89610844D02*
X143020429Y-88798044D01*
X143020429Y-88798044D02*
X142826905Y-88798044D01*
X142826905Y-88798044D02*
X142710791Y-88836749D01*
X142710791Y-88836749D02*
X142633381Y-88914159D01*
X142633381Y-88914159D02*
X142594676Y-88991568D01*
X142594676Y-88991568D02*
X142555972Y-89146387D01*
X142555972Y-89146387D02*
X142555972Y-89262501D01*
X142555972Y-89262501D02*
X142594676Y-89417320D01*
X142594676Y-89417320D02*
X142633381Y-89494730D01*
X142633381Y-89494730D02*
X142710791Y-89572140D01*
X142710791Y-89572140D02*
X142826905Y-89610844D01*
X142826905Y-89610844D02*
X143020429Y-89610844D01*
X144684734Y-91206206D02*
X144065458Y-91206206D01*
X144375096Y-91515844D02*
X144375096Y-90896568D01*
X143291362Y-90703044D02*
X143678410Y-90703044D01*
X143678410Y-90703044D02*
X143717114Y-91090092D01*
X143717114Y-91090092D02*
X143678410Y-91051387D01*
X143678410Y-91051387D02*
X143601000Y-91012682D01*
X143601000Y-91012682D02*
X143407476Y-91012682D01*
X143407476Y-91012682D02*
X143330067Y-91051387D01*
X143330067Y-91051387D02*
X143291362Y-91090092D01*
X143291362Y-91090092D02*
X143252657Y-91167501D01*
X143252657Y-91167501D02*
X143252657Y-91361025D01*
X143252657Y-91361025D02*
X143291362Y-91438435D01*
X143291362Y-91438435D02*
X143330067Y-91477140D01*
X143330067Y-91477140D02*
X143407476Y-91515844D01*
X143407476Y-91515844D02*
X143601000Y-91515844D01*
X143601000Y-91515844D02*
X143678410Y-91477140D01*
X143678410Y-91477140D02*
X143717114Y-91438435D01*
X143020429Y-90703044D02*
X142749496Y-91515844D01*
X142749496Y-91515844D02*
X142478562Y-90703044D01*
X148858800Y-85375092D02*
X148742686Y-85413797D01*
X148742686Y-85413797D02*
X148703981Y-85452501D01*
X148703981Y-85452501D02*
X148665277Y-85529911D01*
X148665277Y-85529911D02*
X148665277Y-85646025D01*
X148665277Y-85646025D02*
X148703981Y-85723435D01*
X148703981Y-85723435D02*
X148742686Y-85762140D01*
X148742686Y-85762140D02*
X148820096Y-85800844D01*
X148820096Y-85800844D02*
X149129734Y-85800844D01*
X149129734Y-85800844D02*
X149129734Y-84988044D01*
X149129734Y-84988044D02*
X148858800Y-84988044D01*
X148858800Y-84988044D02*
X148781391Y-85026749D01*
X148781391Y-85026749D02*
X148742686Y-85065454D01*
X148742686Y-85065454D02*
X148703981Y-85142863D01*
X148703981Y-85142863D02*
X148703981Y-85220273D01*
X148703981Y-85220273D02*
X148742686Y-85297682D01*
X148742686Y-85297682D02*
X148781391Y-85336387D01*
X148781391Y-85336387D02*
X148858800Y-85375092D01*
X148858800Y-85375092D02*
X149129734Y-85375092D01*
X148433048Y-84988044D02*
X147968591Y-84988044D01*
X148200819Y-85800844D02*
X148200819Y-84988044D01*
X147697658Y-85800844D02*
X147697658Y-84988044D01*
X147697658Y-84988044D02*
X147233201Y-85800844D01*
X147233201Y-85800844D02*
X147233201Y-84988044D01*
X146884857Y-85065454D02*
X146846153Y-85026749D01*
X146846153Y-85026749D02*
X146768743Y-84988044D01*
X146768743Y-84988044D02*
X146575219Y-84988044D01*
X146575219Y-84988044D02*
X146497810Y-85026749D01*
X146497810Y-85026749D02*
X146459105Y-85065454D01*
X146459105Y-85065454D02*
X146420400Y-85142863D01*
X146420400Y-85142863D02*
X146420400Y-85220273D01*
X146420400Y-85220273D02*
X146459105Y-85336387D01*
X146459105Y-85336387D02*
X146923562Y-85800844D01*
X146923562Y-85800844D02*
X146420400Y-85800844D01*
X148742686Y-87705844D02*
X149129734Y-87705844D01*
X149129734Y-87705844D02*
X149129734Y-86893044D01*
X148471753Y-87280092D02*
X148200819Y-87280092D01*
X148084705Y-87705844D02*
X148471753Y-87705844D01*
X148471753Y-87705844D02*
X148471753Y-86893044D01*
X148471753Y-86893044D02*
X148084705Y-86893044D01*
X147736363Y-87705844D02*
X147736363Y-86893044D01*
X147736363Y-86893044D02*
X147542839Y-86893044D01*
X147542839Y-86893044D02*
X147426725Y-86931749D01*
X147426725Y-86931749D02*
X147349315Y-87009159D01*
X147349315Y-87009159D02*
X147310610Y-87086568D01*
X147310610Y-87086568D02*
X147271906Y-87241387D01*
X147271906Y-87241387D02*
X147271906Y-87357501D01*
X147271906Y-87357501D02*
X147310610Y-87512320D01*
X147310610Y-87512320D02*
X147349315Y-87589730D01*
X147349315Y-87589730D02*
X147426725Y-87667140D01*
X147426725Y-87667140D02*
X147542839Y-87705844D01*
X147542839Y-87705844D02*
X147736363Y-87705844D01*
X146923563Y-87705844D02*
X146923563Y-86893044D01*
X146923563Y-86893044D02*
X146730039Y-86893044D01*
X146730039Y-86893044D02*
X146613925Y-86931749D01*
X146613925Y-86931749D02*
X146536515Y-87009159D01*
X146536515Y-87009159D02*
X146497810Y-87086568D01*
X146497810Y-87086568D02*
X146459106Y-87241387D01*
X146459106Y-87241387D02*
X146459106Y-87357501D01*
X146459106Y-87357501D02*
X146497810Y-87512320D01*
X146497810Y-87512320D02*
X146536515Y-87589730D01*
X146536515Y-87589730D02*
X146613925Y-87667140D01*
X146613925Y-87667140D02*
X146730039Y-87705844D01*
X146730039Y-87705844D02*
X146923563Y-87705844D01*
X149129734Y-89610844D02*
X149129734Y-88798044D01*
X149129734Y-88798044D02*
X148858800Y-89378616D01*
X148858800Y-89378616D02*
X148587867Y-88798044D01*
X148587867Y-88798044D02*
X148587867Y-89610844D01*
X148239524Y-89378616D02*
X147852477Y-89378616D01*
X148316934Y-89610844D02*
X148046001Y-88798044D01*
X148046001Y-88798044D02*
X147775067Y-89610844D01*
X147078381Y-88836749D02*
X147155791Y-88798044D01*
X147155791Y-88798044D02*
X147271905Y-88798044D01*
X147271905Y-88798044D02*
X147388019Y-88836749D01*
X147388019Y-88836749D02*
X147465429Y-88914159D01*
X147465429Y-88914159D02*
X147504134Y-88991568D01*
X147504134Y-88991568D02*
X147542838Y-89146387D01*
X147542838Y-89146387D02*
X147542838Y-89262501D01*
X147542838Y-89262501D02*
X147504134Y-89417320D01*
X147504134Y-89417320D02*
X147465429Y-89494730D01*
X147465429Y-89494730D02*
X147388019Y-89572140D01*
X147388019Y-89572140D02*
X147271905Y-89610844D01*
X147271905Y-89610844D02*
X147194496Y-89610844D01*
X147194496Y-89610844D02*
X147078381Y-89572140D01*
X147078381Y-89572140D02*
X147039677Y-89533435D01*
X147039677Y-89533435D02*
X147039677Y-89262501D01*
X147039677Y-89262501D02*
X147194496Y-89262501D01*
X146265581Y-89610844D02*
X146730038Y-89610844D01*
X146497810Y-89610844D02*
X146497810Y-88798044D01*
X146497810Y-88798044D02*
X146575219Y-88914159D01*
X146575219Y-88914159D02*
X146652629Y-88991568D01*
X146652629Y-88991568D02*
X146730038Y-89030273D01*
X149129734Y-91206206D02*
X148510458Y-91206206D01*
X148820096Y-91515844D02*
X148820096Y-90896568D01*
X148200819Y-90703044D02*
X147697657Y-90703044D01*
X147697657Y-90703044D02*
X147968591Y-91012682D01*
X147968591Y-91012682D02*
X147852476Y-91012682D01*
X147852476Y-91012682D02*
X147775067Y-91051387D01*
X147775067Y-91051387D02*
X147736362Y-91090092D01*
X147736362Y-91090092D02*
X147697657Y-91167501D01*
X147697657Y-91167501D02*
X147697657Y-91361025D01*
X147697657Y-91361025D02*
X147736362Y-91438435D01*
X147736362Y-91438435D02*
X147775067Y-91477140D01*
X147775067Y-91477140D02*
X147852476Y-91515844D01*
X147852476Y-91515844D02*
X148084705Y-91515844D01*
X148084705Y-91515844D02*
X148162114Y-91477140D01*
X148162114Y-91477140D02*
X148200819Y-91438435D01*
X147465429Y-90703044D02*
X147194496Y-91515844D01*
X147194496Y-91515844D02*
X146923562Y-90703044D01*
X146730038Y-90703044D02*
X146226876Y-90703044D01*
X146226876Y-90703044D02*
X146497810Y-91012682D01*
X146497810Y-91012682D02*
X146381695Y-91012682D01*
X146381695Y-91012682D02*
X146304286Y-91051387D01*
X146304286Y-91051387D02*
X146265581Y-91090092D01*
X146265581Y-91090092D02*
X146226876Y-91167501D01*
X146226876Y-91167501D02*
X146226876Y-91361025D01*
X146226876Y-91361025D02*
X146265581Y-91438435D01*
X146265581Y-91438435D02*
X146304286Y-91477140D01*
X146304286Y-91477140D02*
X146381695Y-91515844D01*
X146381695Y-91515844D02*
X146613924Y-91515844D01*
X146613924Y-91515844D02*
X146691333Y-91477140D01*
X146691333Y-91477140D02*
X146730038Y-91438435D01*
X153303800Y-85375092D02*
X153187686Y-85413797D01*
X153187686Y-85413797D02*
X153148981Y-85452501D01*
X153148981Y-85452501D02*
X153110277Y-85529911D01*
X153110277Y-85529911D02*
X153110277Y-85646025D01*
X153110277Y-85646025D02*
X153148981Y-85723435D01*
X153148981Y-85723435D02*
X153187686Y-85762140D01*
X153187686Y-85762140D02*
X153265096Y-85800844D01*
X153265096Y-85800844D02*
X153574734Y-85800844D01*
X153574734Y-85800844D02*
X153574734Y-84988044D01*
X153574734Y-84988044D02*
X153303800Y-84988044D01*
X153303800Y-84988044D02*
X153226391Y-85026749D01*
X153226391Y-85026749D02*
X153187686Y-85065454D01*
X153187686Y-85065454D02*
X153148981Y-85142863D01*
X153148981Y-85142863D02*
X153148981Y-85220273D01*
X153148981Y-85220273D02*
X153187686Y-85297682D01*
X153187686Y-85297682D02*
X153226391Y-85336387D01*
X153226391Y-85336387D02*
X153303800Y-85375092D01*
X153303800Y-85375092D02*
X153574734Y-85375092D01*
X152878048Y-84988044D02*
X152413591Y-84988044D01*
X152645819Y-85800844D02*
X152645819Y-84988044D01*
X152142658Y-85800844D02*
X152142658Y-84988044D01*
X152142658Y-84988044D02*
X151678201Y-85800844D01*
X151678201Y-85800844D02*
X151678201Y-84988044D01*
X150865400Y-85800844D02*
X151329857Y-85800844D01*
X151097629Y-85800844D02*
X151097629Y-84988044D01*
X151097629Y-84988044D02*
X151175038Y-85104159D01*
X151175038Y-85104159D02*
X151252448Y-85181568D01*
X151252448Y-85181568D02*
X151329857Y-85220273D01*
X153187686Y-87705844D02*
X153574734Y-87705844D01*
X153574734Y-87705844D02*
X153574734Y-86893044D01*
X152916753Y-87280092D02*
X152645819Y-87280092D01*
X152529705Y-87705844D02*
X152916753Y-87705844D01*
X152916753Y-87705844D02*
X152916753Y-86893044D01*
X152916753Y-86893044D02*
X152529705Y-86893044D01*
X152181363Y-87705844D02*
X152181363Y-86893044D01*
X152181363Y-86893044D02*
X151987839Y-86893044D01*
X151987839Y-86893044D02*
X151871725Y-86931749D01*
X151871725Y-86931749D02*
X151794315Y-87009159D01*
X151794315Y-87009159D02*
X151755610Y-87086568D01*
X151755610Y-87086568D02*
X151716906Y-87241387D01*
X151716906Y-87241387D02*
X151716906Y-87357501D01*
X151716906Y-87357501D02*
X151755610Y-87512320D01*
X151755610Y-87512320D02*
X151794315Y-87589730D01*
X151794315Y-87589730D02*
X151871725Y-87667140D01*
X151871725Y-87667140D02*
X151987839Y-87705844D01*
X151987839Y-87705844D02*
X152181363Y-87705844D01*
X151368563Y-87705844D02*
X151368563Y-86893044D01*
X151368563Y-86893044D02*
X151058925Y-86893044D01*
X151058925Y-86893044D02*
X150981515Y-86931749D01*
X150981515Y-86931749D02*
X150942810Y-86970454D01*
X150942810Y-86970454D02*
X150904106Y-87047863D01*
X150904106Y-87047863D02*
X150904106Y-87163978D01*
X150904106Y-87163978D02*
X150942810Y-87241387D01*
X150942810Y-87241387D02*
X150981515Y-87280092D01*
X150981515Y-87280092D02*
X151058925Y-87318797D01*
X151058925Y-87318797D02*
X151368563Y-87318797D01*
X153574734Y-89610844D02*
X153574734Y-88798044D01*
X153574734Y-88798044D02*
X153303800Y-89378616D01*
X153303800Y-89378616D02*
X153032867Y-88798044D01*
X153032867Y-88798044D02*
X153032867Y-89610844D01*
X152684524Y-89378616D02*
X152297477Y-89378616D01*
X152761934Y-89610844D02*
X152491001Y-88798044D01*
X152491001Y-88798044D02*
X152220067Y-89610844D01*
X151523381Y-88836749D02*
X151600791Y-88798044D01*
X151600791Y-88798044D02*
X151716905Y-88798044D01*
X151716905Y-88798044D02*
X151833019Y-88836749D01*
X151833019Y-88836749D02*
X151910429Y-88914159D01*
X151910429Y-88914159D02*
X151949134Y-88991568D01*
X151949134Y-88991568D02*
X151987838Y-89146387D01*
X151987838Y-89146387D02*
X151987838Y-89262501D01*
X151987838Y-89262501D02*
X151949134Y-89417320D01*
X151949134Y-89417320D02*
X151910429Y-89494730D01*
X151910429Y-89494730D02*
X151833019Y-89572140D01*
X151833019Y-89572140D02*
X151716905Y-89610844D01*
X151716905Y-89610844D02*
X151639496Y-89610844D01*
X151639496Y-89610844D02*
X151523381Y-89572140D01*
X151523381Y-89572140D02*
X151484677Y-89533435D01*
X151484677Y-89533435D02*
X151484677Y-89262501D01*
X151484677Y-89262501D02*
X151639496Y-89262501D01*
X151213743Y-88798044D02*
X150710581Y-88798044D01*
X150710581Y-88798044D02*
X150981515Y-89107682D01*
X150981515Y-89107682D02*
X150865400Y-89107682D01*
X150865400Y-89107682D02*
X150787991Y-89146387D01*
X150787991Y-89146387D02*
X150749286Y-89185092D01*
X150749286Y-89185092D02*
X150710581Y-89262501D01*
X150710581Y-89262501D02*
X150710581Y-89456025D01*
X150710581Y-89456025D02*
X150749286Y-89533435D01*
X150749286Y-89533435D02*
X150787991Y-89572140D01*
X150787991Y-89572140D02*
X150865400Y-89610844D01*
X150865400Y-89610844D02*
X151097629Y-89610844D01*
X151097629Y-89610844D02*
X151175038Y-89572140D01*
X151175038Y-89572140D02*
X151213743Y-89533435D01*
X153574734Y-91515844D02*
X153574734Y-90703044D01*
X153574734Y-90703044D02*
X153303800Y-91283616D01*
X153303800Y-91283616D02*
X153032867Y-90703044D01*
X153032867Y-90703044D02*
X153032867Y-91515844D01*
X152684524Y-91283616D02*
X152297477Y-91283616D01*
X152761934Y-91515844D02*
X152491001Y-90703044D01*
X152491001Y-90703044D02*
X152220067Y-91515844D01*
X151523381Y-90741749D02*
X151600791Y-90703044D01*
X151600791Y-90703044D02*
X151716905Y-90703044D01*
X151716905Y-90703044D02*
X151833019Y-90741749D01*
X151833019Y-90741749D02*
X151910429Y-90819159D01*
X151910429Y-90819159D02*
X151949134Y-90896568D01*
X151949134Y-90896568D02*
X151987838Y-91051387D01*
X151987838Y-91051387D02*
X151987838Y-91167501D01*
X151987838Y-91167501D02*
X151949134Y-91322320D01*
X151949134Y-91322320D02*
X151910429Y-91399730D01*
X151910429Y-91399730D02*
X151833019Y-91477140D01*
X151833019Y-91477140D02*
X151716905Y-91515844D01*
X151716905Y-91515844D02*
X151639496Y-91515844D01*
X151639496Y-91515844D02*
X151523381Y-91477140D01*
X151523381Y-91477140D02*
X151484677Y-91438435D01*
X151484677Y-91438435D02*
X151484677Y-91167501D01*
X151484677Y-91167501D02*
X151639496Y-91167501D01*
X151175038Y-90780454D02*
X151136334Y-90741749D01*
X151136334Y-90741749D02*
X151058924Y-90703044D01*
X151058924Y-90703044D02*
X150865400Y-90703044D01*
X150865400Y-90703044D02*
X150787991Y-90741749D01*
X150787991Y-90741749D02*
X150749286Y-90780454D01*
X150749286Y-90780454D02*
X150710581Y-90857863D01*
X150710581Y-90857863D02*
X150710581Y-90935273D01*
X150710581Y-90935273D02*
X150749286Y-91051387D01*
X150749286Y-91051387D02*
X151213743Y-91515844D01*
X151213743Y-91515844D02*
X150710581Y-91515844D01*
D12*
X154451956Y-129284615D02*
X154500337Y-129332996D01*
X154500337Y-129332996D02*
X154645480Y-129381376D01*
X154645480Y-129381376D02*
X154742242Y-129381376D01*
X154742242Y-129381376D02*
X154887385Y-129332996D01*
X154887385Y-129332996D02*
X154984147Y-129236234D01*
X154984147Y-129236234D02*
X155032528Y-129139472D01*
X155032528Y-129139472D02*
X155080909Y-128945948D01*
X155080909Y-128945948D02*
X155080909Y-128800805D01*
X155080909Y-128800805D02*
X155032528Y-128607281D01*
X155032528Y-128607281D02*
X154984147Y-128510519D01*
X154984147Y-128510519D02*
X154887385Y-128413757D01*
X154887385Y-128413757D02*
X154742242Y-128365376D01*
X154742242Y-128365376D02*
X154645480Y-128365376D01*
X154645480Y-128365376D02*
X154500337Y-128413757D01*
X154500337Y-128413757D02*
X154451956Y-128462138D01*
X154064909Y-129091091D02*
X153581099Y-129091091D01*
X154161671Y-129381376D02*
X153823004Y-128365376D01*
X153823004Y-128365376D02*
X153484337Y-129381376D01*
X153145671Y-129381376D02*
X153145671Y-128365376D01*
X153145671Y-128365376D02*
X152903766Y-128365376D01*
X152903766Y-128365376D02*
X152758623Y-128413757D01*
X152758623Y-128413757D02*
X152661861Y-128510519D01*
X152661861Y-128510519D02*
X152613480Y-128607281D01*
X152613480Y-128607281D02*
X152565099Y-128800805D01*
X152565099Y-128800805D02*
X152565099Y-128945948D01*
X152565099Y-128945948D02*
X152613480Y-129139472D01*
X152613480Y-129139472D02*
X152661861Y-129236234D01*
X152661861Y-129236234D02*
X152758623Y-129332996D01*
X152758623Y-129332996D02*
X152903766Y-129381376D01*
X152903766Y-129381376D02*
X153145671Y-129381376D01*
X151355576Y-129381376D02*
X151355576Y-128365376D01*
X151355576Y-128365376D02*
X151016909Y-129091091D01*
X151016909Y-129091091D02*
X150678242Y-128365376D01*
X150678242Y-128365376D02*
X150678242Y-129381376D01*
X150000909Y-128365376D02*
X149807385Y-128365376D01*
X149807385Y-128365376D02*
X149710623Y-128413757D01*
X149710623Y-128413757D02*
X149613861Y-128510519D01*
X149613861Y-128510519D02*
X149565480Y-128704043D01*
X149565480Y-128704043D02*
X149565480Y-129042710D01*
X149565480Y-129042710D02*
X149613861Y-129236234D01*
X149613861Y-129236234D02*
X149710623Y-129332996D01*
X149710623Y-129332996D02*
X149807385Y-129381376D01*
X149807385Y-129381376D02*
X150000909Y-129381376D01*
X150000909Y-129381376D02*
X150097671Y-129332996D01*
X150097671Y-129332996D02*
X150194433Y-129236234D01*
X150194433Y-129236234D02*
X150242814Y-129042710D01*
X150242814Y-129042710D02*
X150242814Y-128704043D01*
X150242814Y-128704043D02*
X150194433Y-128510519D01*
X150194433Y-128510519D02*
X150097671Y-128413757D01*
X150097671Y-128413757D02*
X150000909Y-128365376D01*
X149130052Y-128365376D02*
X149130052Y-129187853D01*
X149130052Y-129187853D02*
X149081671Y-129284615D01*
X149081671Y-129284615D02*
X149033290Y-129332996D01*
X149033290Y-129332996D02*
X148936528Y-129381376D01*
X148936528Y-129381376D02*
X148743004Y-129381376D01*
X148743004Y-129381376D02*
X148646242Y-129332996D01*
X148646242Y-129332996D02*
X148597861Y-129284615D01*
X148597861Y-129284615D02*
X148549480Y-129187853D01*
X148549480Y-129187853D02*
X148549480Y-128365376D01*
X148114052Y-129332996D02*
X147968909Y-129381376D01*
X147968909Y-129381376D02*
X147727004Y-129381376D01*
X147727004Y-129381376D02*
X147630242Y-129332996D01*
X147630242Y-129332996D02*
X147581861Y-129284615D01*
X147581861Y-129284615D02*
X147533480Y-129187853D01*
X147533480Y-129187853D02*
X147533480Y-129091091D01*
X147533480Y-129091091D02*
X147581861Y-128994329D01*
X147581861Y-128994329D02*
X147630242Y-128945948D01*
X147630242Y-128945948D02*
X147727004Y-128897567D01*
X147727004Y-128897567D02*
X147920528Y-128849186D01*
X147920528Y-128849186D02*
X148017290Y-128800805D01*
X148017290Y-128800805D02*
X148065671Y-128752424D01*
X148065671Y-128752424D02*
X148114052Y-128655662D01*
X148114052Y-128655662D02*
X148114052Y-128558900D01*
X148114052Y-128558900D02*
X148065671Y-128462138D01*
X148065671Y-128462138D02*
X148017290Y-128413757D01*
X148017290Y-128413757D02*
X147920528Y-128365376D01*
X147920528Y-128365376D02*
X147678623Y-128365376D01*
X147678623Y-128365376D02*
X147533480Y-128413757D01*
X147098052Y-128849186D02*
X146759385Y-128849186D01*
X146614242Y-129381376D02*
X147098052Y-129381376D01*
X147098052Y-129381376D02*
X147098052Y-128365376D01*
X147098052Y-128365376D02*
X146614242Y-128365376D01*
X145404719Y-129381376D02*
X145404719Y-128365376D01*
X145404719Y-128365376D02*
X145066052Y-129091091D01*
X145066052Y-129091091D02*
X144727385Y-128365376D01*
X144727385Y-128365376D02*
X144727385Y-129381376D01*
X144243576Y-129381376D02*
X144243576Y-128365376D01*
X143663004Y-129381376D02*
X144098433Y-128800805D01*
X143663004Y-128365376D02*
X144243576Y-128945948D01*
X143275957Y-128462138D02*
X143227576Y-128413757D01*
X143227576Y-128413757D02*
X143130814Y-128365376D01*
X143130814Y-128365376D02*
X142888909Y-128365376D01*
X142888909Y-128365376D02*
X142792147Y-128413757D01*
X142792147Y-128413757D02*
X142743766Y-128462138D01*
X142743766Y-128462138D02*
X142695385Y-128558900D01*
X142695385Y-128558900D02*
X142695385Y-128655662D01*
X142695385Y-128655662D02*
X142743766Y-128800805D01*
X142743766Y-128800805D02*
X143324338Y-129381376D01*
X143324338Y-129381376D02*
X142695385Y-129381376D01*
X151549099Y-130097841D02*
X151500718Y-130049460D01*
X151500718Y-130049460D02*
X151403956Y-130001079D01*
X151403956Y-130001079D02*
X151162051Y-130001079D01*
X151162051Y-130001079D02*
X151065289Y-130049460D01*
X151065289Y-130049460D02*
X151016908Y-130097841D01*
X151016908Y-130097841D02*
X150968527Y-130194603D01*
X150968527Y-130194603D02*
X150968527Y-130291365D01*
X150968527Y-130291365D02*
X151016908Y-130436508D01*
X151016908Y-130436508D02*
X151597480Y-131017079D01*
X151597480Y-131017079D02*
X150968527Y-131017079D01*
X150339575Y-130001079D02*
X150242813Y-130001079D01*
X150242813Y-130001079D02*
X150146051Y-130049460D01*
X150146051Y-130049460D02*
X150097670Y-130097841D01*
X150097670Y-130097841D02*
X150049289Y-130194603D01*
X150049289Y-130194603D02*
X150000908Y-130388127D01*
X150000908Y-130388127D02*
X150000908Y-130630032D01*
X150000908Y-130630032D02*
X150049289Y-130823556D01*
X150049289Y-130823556D02*
X150097670Y-130920318D01*
X150097670Y-130920318D02*
X150146051Y-130968699D01*
X150146051Y-130968699D02*
X150242813Y-131017079D01*
X150242813Y-131017079D02*
X150339575Y-131017079D01*
X150339575Y-131017079D02*
X150436337Y-130968699D01*
X150436337Y-130968699D02*
X150484718Y-130920318D01*
X150484718Y-130920318D02*
X150533099Y-130823556D01*
X150533099Y-130823556D02*
X150581480Y-130630032D01*
X150581480Y-130630032D02*
X150581480Y-130388127D01*
X150581480Y-130388127D02*
X150533099Y-130194603D01*
X150533099Y-130194603D02*
X150484718Y-130097841D01*
X150484718Y-130097841D02*
X150436337Y-130049460D01*
X150436337Y-130049460D02*
X150339575Y-130001079D01*
X149613861Y-130097841D02*
X149565480Y-130049460D01*
X149565480Y-130049460D02*
X149468718Y-130001079D01*
X149468718Y-130001079D02*
X149226813Y-130001079D01*
X149226813Y-130001079D02*
X149130051Y-130049460D01*
X149130051Y-130049460D02*
X149081670Y-130097841D01*
X149081670Y-130097841D02*
X149033289Y-130194603D01*
X149033289Y-130194603D02*
X149033289Y-130291365D01*
X149033289Y-130291365D02*
X149081670Y-130436508D01*
X149081670Y-130436508D02*
X149662242Y-131017079D01*
X149662242Y-131017079D02*
X149033289Y-131017079D01*
X148162432Y-130001079D02*
X148355956Y-130001079D01*
X148355956Y-130001079D02*
X148452718Y-130049460D01*
X148452718Y-130049460D02*
X148501099Y-130097841D01*
X148501099Y-130097841D02*
X148597861Y-130242984D01*
X148597861Y-130242984D02*
X148646242Y-130436508D01*
X148646242Y-130436508D02*
X148646242Y-130823556D01*
X148646242Y-130823556D02*
X148597861Y-130920318D01*
X148597861Y-130920318D02*
X148549480Y-130968699D01*
X148549480Y-130968699D02*
X148452718Y-131017079D01*
X148452718Y-131017079D02*
X148259194Y-131017079D01*
X148259194Y-131017079D02*
X148162432Y-130968699D01*
X148162432Y-130968699D02*
X148114051Y-130920318D01*
X148114051Y-130920318D02*
X148065670Y-130823556D01*
X148065670Y-130823556D02*
X148065670Y-130581651D01*
X148065670Y-130581651D02*
X148114051Y-130484889D01*
X148114051Y-130484889D02*
X148162432Y-130436508D01*
X148162432Y-130436508D02*
X148259194Y-130388127D01*
X148259194Y-130388127D02*
X148452718Y-130388127D01*
X148452718Y-130388127D02*
X148549480Y-130436508D01*
X148549480Y-130436508D02*
X148597861Y-130484889D01*
X148597861Y-130484889D02*
X148646242Y-130581651D01*
X147001290Y-130001079D02*
X146662623Y-131017079D01*
X146662623Y-131017079D02*
X146323956Y-130001079D01*
X145453099Y-131017079D02*
X146033671Y-131017079D01*
X145743385Y-131017079D02*
X145743385Y-130001079D01*
X145743385Y-130001079D02*
X145840147Y-130146222D01*
X145840147Y-130146222D02*
X145936909Y-130242984D01*
X145936909Y-130242984D02*
X146033671Y-130291365D01*
D13*
X152384573Y-125629387D02*
X152446887Y-125567072D01*
X152446887Y-125567072D02*
X152571517Y-125504757D01*
X152571517Y-125504757D02*
X152696146Y-125504757D01*
X152696146Y-125504757D02*
X152820775Y-125567072D01*
X152820775Y-125567072D02*
X152883090Y-125629387D01*
X152883090Y-125629387D02*
X152945405Y-125754016D01*
X152945405Y-125754016D02*
X152945405Y-125878645D01*
X152945405Y-125878645D02*
X152883090Y-126003275D01*
X152883090Y-126003275D02*
X152820775Y-126065589D01*
X152820775Y-126065589D02*
X152696146Y-126127904D01*
X152696146Y-126127904D02*
X152571517Y-126127904D01*
X152571517Y-126127904D02*
X152446887Y-126065589D01*
X152446887Y-126065589D02*
X152384573Y-126003275D01*
X152384573Y-125504757D02*
X152384573Y-126003275D01*
X152384573Y-126003275D02*
X152322258Y-126065589D01*
X152322258Y-126065589D02*
X152259943Y-126065589D01*
X152259943Y-126065589D02*
X152135314Y-126003275D01*
X152135314Y-126003275D02*
X152072999Y-125878645D01*
X152072999Y-125878645D02*
X152072999Y-125567072D01*
X152072999Y-125567072D02*
X152197629Y-125380128D01*
X152197629Y-125380128D02*
X152384573Y-125255499D01*
X152384573Y-125255499D02*
X152633831Y-125193184D01*
X152633831Y-125193184D02*
X152883090Y-125255499D01*
X152883090Y-125255499D02*
X153070034Y-125380128D01*
X153070034Y-125380128D02*
X153194663Y-125567072D01*
X153194663Y-125567072D02*
X153256978Y-125816331D01*
X153256978Y-125816331D02*
X153194663Y-126065589D01*
X153194663Y-126065589D02*
X153070034Y-126252533D01*
X153070034Y-126252533D02*
X152883090Y-126377163D01*
X152883090Y-126377163D02*
X152633831Y-126439477D01*
X152633831Y-126439477D02*
X152384573Y-126377163D01*
X152384573Y-126377163D02*
X152197629Y-126252533D01*
X151574482Y-126190219D02*
X151387538Y-126252533D01*
X151387538Y-126252533D02*
X151075965Y-126252533D01*
X151075965Y-126252533D02*
X150951335Y-126190219D01*
X150951335Y-126190219D02*
X150889021Y-126127904D01*
X150889021Y-126127904D02*
X150826706Y-126003275D01*
X150826706Y-126003275D02*
X150826706Y-125878645D01*
X150826706Y-125878645D02*
X150889021Y-125754016D01*
X150889021Y-125754016D02*
X150951335Y-125691701D01*
X150951335Y-125691701D02*
X151075965Y-125629387D01*
X151075965Y-125629387D02*
X151325223Y-125567072D01*
X151325223Y-125567072D02*
X151449853Y-125504757D01*
X151449853Y-125504757D02*
X151512167Y-125442443D01*
X151512167Y-125442443D02*
X151574482Y-125317813D01*
X151574482Y-125317813D02*
X151574482Y-125193184D01*
X151574482Y-125193184D02*
X151512167Y-125068555D01*
X151512167Y-125068555D02*
X151449853Y-125006240D01*
X151449853Y-125006240D02*
X151325223Y-124943925D01*
X151325223Y-124943925D02*
X151013650Y-124943925D01*
X151013650Y-124943925D02*
X150826706Y-125006240D01*
X150328189Y-125878645D02*
X149705042Y-125878645D01*
X150452818Y-126252533D02*
X150016616Y-124943925D01*
X150016616Y-124943925D02*
X149580413Y-126252533D01*
X148521064Y-126252533D02*
X149144210Y-126252533D01*
X149144210Y-126252533D02*
X149144210Y-124943925D01*
X148084861Y-126252533D02*
X148084861Y-124943925D01*
X147461714Y-126252533D02*
X147461714Y-124943925D01*
X147461714Y-124943925D02*
X147025512Y-125878645D01*
X147025512Y-125878645D02*
X146589309Y-124943925D01*
X146589309Y-124943925D02*
X146589309Y-126252533D01*
X145529960Y-125567072D02*
X145343016Y-125629387D01*
X145343016Y-125629387D02*
X145280701Y-125691701D01*
X145280701Y-125691701D02*
X145218386Y-125816331D01*
X145218386Y-125816331D02*
X145218386Y-126003275D01*
X145218386Y-126003275D02*
X145280701Y-126127904D01*
X145280701Y-126127904D02*
X145343016Y-126190219D01*
X145343016Y-126190219D02*
X145467645Y-126252533D01*
X145467645Y-126252533D02*
X145966162Y-126252533D01*
X145966162Y-126252533D02*
X145966162Y-124943925D01*
X145966162Y-124943925D02*
X145529960Y-124943925D01*
X145529960Y-124943925D02*
X145405330Y-125006240D01*
X145405330Y-125006240D02*
X145343016Y-125068555D01*
X145343016Y-125068555D02*
X145280701Y-125193184D01*
X145280701Y-125193184D02*
X145280701Y-125317813D01*
X145280701Y-125317813D02*
X145343016Y-125442443D01*
X145343016Y-125442443D02*
X145405330Y-125504757D01*
X145405330Y-125504757D02*
X145529960Y-125567072D01*
X145529960Y-125567072D02*
X145966162Y-125567072D01*
X144657554Y-125567072D02*
X144221352Y-125567072D01*
X144034408Y-126252533D02*
X144657554Y-126252533D01*
X144657554Y-126252533D02*
X144657554Y-124943925D01*
X144657554Y-124943925D02*
X144034408Y-124943925D01*
X143473575Y-126252533D02*
X143473575Y-124943925D01*
X143473575Y-124943925D02*
X142725799Y-126252533D01*
X142725799Y-126252533D02*
X142725799Y-124943925D01*
X141666450Y-125567072D02*
X141479506Y-125629387D01*
X141479506Y-125629387D02*
X141417191Y-125691701D01*
X141417191Y-125691701D02*
X141354876Y-125816331D01*
X141354876Y-125816331D02*
X141354876Y-126003275D01*
X141354876Y-126003275D02*
X141417191Y-126127904D01*
X141417191Y-126127904D02*
X141479506Y-126190219D01*
X141479506Y-126190219D02*
X141604135Y-126252533D01*
X141604135Y-126252533D02*
X142102652Y-126252533D01*
X142102652Y-126252533D02*
X142102652Y-124943925D01*
X142102652Y-124943925D02*
X141666450Y-124943925D01*
X141666450Y-124943925D02*
X141541820Y-125006240D01*
X141541820Y-125006240D02*
X141479506Y-125068555D01*
X141479506Y-125068555D02*
X141417191Y-125193184D01*
X141417191Y-125193184D02*
X141417191Y-125317813D01*
X141417191Y-125317813D02*
X141479506Y-125442443D01*
X141479506Y-125442443D02*
X141541820Y-125504757D01*
X141541820Y-125504757D02*
X141666450Y-125567072D01*
X141666450Y-125567072D02*
X142102652Y-125567072D01*
X140544786Y-124943925D02*
X140295527Y-124943925D01*
X140295527Y-124943925D02*
X140170898Y-125006240D01*
X140170898Y-125006240D02*
X140046268Y-125130869D01*
X140046268Y-125130869D02*
X139983954Y-125380128D01*
X139983954Y-125380128D02*
X139983954Y-125816331D01*
X139983954Y-125816331D02*
X140046268Y-126065589D01*
X140046268Y-126065589D02*
X140170898Y-126190219D01*
X140170898Y-126190219D02*
X140295527Y-126252533D01*
X140295527Y-126252533D02*
X140544786Y-126252533D01*
X140544786Y-126252533D02*
X140669415Y-126190219D01*
X140669415Y-126190219D02*
X140794044Y-126065589D01*
X140794044Y-126065589D02*
X140856359Y-125816331D01*
X140856359Y-125816331D02*
X140856359Y-125380128D01*
X140856359Y-125380128D02*
X140794044Y-125130869D01*
X140794044Y-125130869D02*
X140669415Y-125006240D01*
X140669415Y-125006240D02*
X140544786Y-124943925D01*
X139423121Y-124943925D02*
X139423121Y-126003275D01*
X139423121Y-126003275D02*
X139360807Y-126127904D01*
X139360807Y-126127904D02*
X139298492Y-126190219D01*
X139298492Y-126190219D02*
X139173863Y-126252533D01*
X139173863Y-126252533D02*
X138924604Y-126252533D01*
X138924604Y-126252533D02*
X138799975Y-126190219D01*
X138799975Y-126190219D02*
X138737660Y-126127904D01*
X138737660Y-126127904D02*
X138675345Y-126003275D01*
X138675345Y-126003275D02*
X138675345Y-124943925D01*
X138176828Y-124943925D02*
X137304422Y-124943925D01*
X137304422Y-124943925D02*
X138176828Y-126252533D01*
X138176828Y-126252533D02*
X137304422Y-126252533D01*
D14*
%TO.C,J2*%
X144894300Y-79632700D02*
X152107900Y-79632700D01*
X144894300Y-83874500D02*
X144894300Y-79632700D01*
X152107900Y-79632700D02*
X152107900Y-83874500D01*
X152107900Y-83874500D02*
X144894300Y-83874500D01*
%TO.C,J1*%
X144894300Y-75382700D02*
X152107900Y-75382700D01*
X144894300Y-79624500D02*
X144894300Y-75382700D01*
X152107900Y-75382700D02*
X152107900Y-79624500D01*
X152107900Y-79624500D02*
X144894300Y-79624500D01*
%TD*%
G36*
X157275937Y-124282608D02*
G01*
X157286961Y-124308775D01*
X157286962Y-124308999D01*
X157286962Y-125260834D01*
X157276096Y-125287068D01*
X157268376Y-125292984D01*
X157229314Y-125315478D01*
X157229312Y-125315479D01*
X156615543Y-125668877D01*
X156614755Y-125669349D01*
X156613902Y-125669755D01*
X156612405Y-125670721D01*
X156611428Y-125671179D01*
X156607986Y-125673580D01*
X156605672Y-125675893D01*
X156604799Y-125675019D01*
X156597173Y-125680985D01*
X156597769Y-125681981D01*
X156595049Y-125683607D01*
X156589549Y-125688333D01*
X156588967Y-125689115D01*
X156584972Y-125695694D01*
X156580100Y-125701810D01*
X156580082Y-125701847D01*
X156575686Y-125708221D01*
X156575669Y-125708238D01*
X156575579Y-125708448D01*
X156571910Y-125714550D01*
X156566405Y-125721468D01*
X156566145Y-125721871D01*
X156566031Y-125722189D01*
X156564112Y-125726605D01*
X156563468Y-125727856D01*
X156563465Y-125727863D01*
X156563035Y-125729344D01*
X156561438Y-125733766D01*
X156560859Y-125735098D01*
X156560854Y-125735111D01*
X156560520Y-125736611D01*
X156559216Y-125741099D01*
X156558740Y-125742419D01*
X156558734Y-125742441D01*
X156558497Y-125743937D01*
X156557487Y-125748456D01*
X156557118Y-125749725D01*
X156557084Y-125749908D01*
X156557066Y-125749997D01*
X156556934Y-125751394D01*
X156556211Y-125755963D01*
X156555891Y-125757393D01*
X156555891Y-125757401D01*
X156555843Y-125758857D01*
X156555408Y-125763424D01*
X156555171Y-125764921D01*
X156555170Y-125764931D01*
X156555216Y-125766472D01*
X156555064Y-125771094D01*
X156554922Y-125772577D01*
X156555055Y-125774041D01*
X156555187Y-125778622D01*
X156555136Y-125780139D01*
X156555369Y-125781644D01*
X156555788Y-125786230D01*
X156555831Y-125787726D01*
X156556143Y-125789156D01*
X156556841Y-125793690D01*
X156556983Y-125795252D01*
X156556983Y-125795253D01*
X156557388Y-125796671D01*
X156558373Y-125801167D01*
X156558603Y-125802652D01*
X156558626Y-125802744D01*
X156559092Y-125804053D01*
X156560385Y-125808577D01*
X156560637Y-125809732D01*
X156560713Y-125809969D01*
X156560806Y-125810265D01*
X156561269Y-125811340D01*
X156562857Y-125815798D01*
X156563270Y-125817245D01*
X156563274Y-125817256D01*
X156563911Y-125818505D01*
X156565806Y-125822908D01*
X156565882Y-125823123D01*
X156566526Y-125824121D01*
X156571323Y-125830158D01*
X156575136Y-125836529D01*
X156575315Y-125836941D01*
X156579595Y-125843149D01*
X156579648Y-125843200D01*
X156584686Y-125849552D01*
X156588571Y-125856018D01*
X156589274Y-125856972D01*
X156594652Y-125861625D01*
X156597379Y-125863268D01*
X156596806Y-125864217D01*
X156604656Y-125870559D01*
X156605651Y-125869560D01*
X156608364Y-125872258D01*
X156612860Y-125875184D01*
X156613711Y-125875616D01*
X156615056Y-125876428D01*
X157202187Y-126217513D01*
X157202193Y-126217519D01*
X157268497Y-126256035D01*
X157285723Y-126278608D01*
X157286962Y-126288115D01*
X157286962Y-127234458D01*
X157276096Y-127260692D01*
X157249862Y-127271558D01*
X157249770Y-127271558D01*
X157226328Y-127271500D01*
X157226054Y-127271385D01*
X157226054Y-127271388D01*
X157106764Y-127270566D01*
X157106737Y-127270554D01*
X157106710Y-127270566D01*
X157072046Y-127270275D01*
X157072046Y-127270274D01*
X157071976Y-127270274D01*
X157037399Y-127269920D01*
X157037399Y-127269919D01*
X157037339Y-127269919D01*
X157000795Y-127269487D01*
X157000795Y-127269486D01*
X157000721Y-127269486D01*
X156964217Y-127268982D01*
X156964186Y-127268968D01*
X156964154Y-127268982D01*
X156928804Y-127268433D01*
X156928804Y-127268431D01*
X156928727Y-127268431D01*
X156890301Y-127267756D01*
X156890264Y-127267740D01*
X156890228Y-127267755D01*
X156854802Y-127267062D01*
X156854802Y-127267060D01*
X156854717Y-127267060D01*
X156816229Y-127266220D01*
X156816229Y-127266218D01*
X156816151Y-127266218D01*
X156779807Y-127265349D01*
X156779764Y-127265330D01*
X156779722Y-127265347D01*
X156740913Y-127264329D01*
X156740869Y-127264309D01*
X156740825Y-127264327D01*
X156702778Y-127263237D01*
X156702778Y-127263235D01*
X156702686Y-127263234D01*
X156665388Y-127262074D01*
X156665293Y-127262071D01*
X156627352Y-127260794D01*
X156627202Y-127260789D01*
X156550458Y-127257896D01*
X156550244Y-127257887D01*
X156473257Y-127254538D01*
X156473028Y-127254527D01*
X156396466Y-127250724D01*
X156396373Y-127250680D01*
X156396283Y-127250715D01*
X156358350Y-127248641D01*
X156358350Y-127248636D01*
X156358219Y-127248633D01*
X156319567Y-127246384D01*
X156319431Y-127246376D01*
X156281506Y-127244030D01*
X156281369Y-127244021D01*
X156243914Y-127241564D01*
X156243841Y-127241528D01*
X156243770Y-127241555D01*
X156205789Y-127238915D01*
X156205635Y-127238904D01*
X156167425Y-127236088D01*
X156167267Y-127236076D01*
X156130586Y-127233215D01*
X156130586Y-127233207D01*
X156130420Y-127233201D01*
X156093251Y-127230135D01*
X156093164Y-127230090D01*
X156093081Y-127230121D01*
X156055839Y-127226875D01*
X156055659Y-127226859D01*
X156020623Y-127223634D01*
X156020623Y-127223633D01*
X156019444Y-127223529D01*
X156019390Y-127223501D01*
X156019339Y-127223520D01*
X156018174Y-127223413D01*
X156018174Y-127223412D01*
X155996605Y-127221492D01*
X155996537Y-127221456D01*
X155996472Y-127221480D01*
X155973426Y-127219343D01*
X155973257Y-127219327D01*
X155951813Y-127217240D01*
X155951635Y-127217222D01*
X155930380Y-127215050D01*
X155930184Y-127215029D01*
X155909182Y-127212770D01*
X155908955Y-127212745D01*
X155888163Y-127210379D01*
X155887925Y-127210351D01*
X155867759Y-127207924D01*
X155867489Y-127207891D01*
X155847463Y-127205332D01*
X155847168Y-127205293D01*
X155827426Y-127202609D01*
X155827107Y-127202564D01*
X155807992Y-127199796D01*
X155807646Y-127199744D01*
X155788695Y-127196817D01*
X155788331Y-127196759D01*
X155769988Y-127193739D01*
X155769577Y-127193669D01*
X155751296Y-127190448D01*
X155750884Y-127190373D01*
X155733293Y-127187068D01*
X155732823Y-127186977D01*
X155715468Y-127183484D01*
X155714982Y-127183383D01*
X155697771Y-127179679D01*
X155697246Y-127179561D01*
X155680804Y-127175772D01*
X155680262Y-127175643D01*
X155663770Y-127171581D01*
X155663170Y-127171428D01*
X155647361Y-127167253D01*
X155646743Y-127167084D01*
X155631035Y-127162644D01*
X155630392Y-127162456D01*
X155615246Y-127157878D01*
X155614552Y-127157661D01*
X155599653Y-127152837D01*
X155598932Y-127152596D01*
X155584372Y-127147550D01*
X155583619Y-127147279D01*
X155569557Y-127142063D01*
X155568777Y-127141764D01*
X155554962Y-127136283D01*
X155554158Y-127135953D01*
X155540610Y-127130207D01*
X155539754Y-127129831D01*
X155526706Y-127123905D01*
X155525837Y-127123497D01*
X155513058Y-127117289D01*
X155512177Y-127116846D01*
X155499726Y-127110383D01*
X155498812Y-127109892D01*
X155486647Y-127103139D01*
X155485720Y-127102607D01*
X155474032Y-127095671D01*
X155473091Y-127095094D01*
X155461606Y-127087808D01*
X155460666Y-127087191D01*
X155449510Y-127079630D01*
X155448552Y-127078959D01*
X155437688Y-127071085D01*
X155436742Y-127070376D01*
X155426213Y-127062221D01*
X155425278Y-127061472D01*
X155415055Y-127053012D01*
X155414126Y-127052217D01*
X155404180Y-127043418D01*
X155403268Y-127042584D01*
X155393591Y-127033431D01*
X155392712Y-127032572D01*
X155383284Y-127023043D01*
X155382429Y-127022149D01*
X155373318Y-127012305D01*
X155372486Y-127011375D01*
X155363604Y-127001106D01*
X155362816Y-127000164D01*
X155354236Y-126989554D01*
X155353492Y-126988602D01*
X155345132Y-126977546D01*
X155344414Y-126976564D01*
X155336308Y-126965080D01*
X155335642Y-126964105D01*
X155327824Y-126952245D01*
X155327200Y-126951265D01*
X155319564Y-126938852D01*
X155318982Y-126937872D01*
X155311638Y-126925068D01*
X155311103Y-126924102D01*
X155304004Y-126910825D01*
X155303510Y-126909867D01*
X155296606Y-126896000D01*
X155296257Y-126895280D01*
X155293004Y-126888377D01*
X155292803Y-126887943D01*
X155289480Y-126880649D01*
X155289264Y-126880166D01*
X155286079Y-126872902D01*
X155285884Y-126872450D01*
X155282691Y-126864897D01*
X155282505Y-126864448D01*
X155279443Y-126856932D01*
X155279270Y-126856501D01*
X155276248Y-126848809D01*
X155276074Y-126848356D01*
X155273117Y-126840530D01*
X155272953Y-126840088D01*
X155270020Y-126832017D01*
X155269876Y-126831615D01*
X155267016Y-126823453D01*
X155266870Y-126823028D01*
X155264077Y-126814737D01*
X155263937Y-126814313D01*
X155261199Y-126805850D01*
X155261072Y-126805449D01*
X155258461Y-126797055D01*
X155258340Y-126796658D01*
X155255749Y-126787987D01*
X155255638Y-126787608D01*
X155253048Y-126778592D01*
X155252933Y-126778182D01*
X155250481Y-126769261D01*
X155250389Y-126768920D01*
X155248028Y-126759999D01*
X155247926Y-126759605D01*
X155245496Y-126749998D01*
X155245408Y-126749642D01*
X155243117Y-126740193D01*
X155243032Y-126739836D01*
X155240891Y-126730608D01*
X155240814Y-126730267D01*
X155238644Y-126720497D01*
X155238570Y-126720160D01*
X155236463Y-126710239D01*
X155236394Y-126709903D01*
X155234303Y-126699589D01*
X155234241Y-126699278D01*
X155232319Y-126689362D01*
X155232254Y-126689020D01*
X155230365Y-126678761D01*
X155230311Y-126678461D01*
X155228475Y-126668007D01*
X155228424Y-126667708D01*
X155226637Y-126657022D01*
X155226588Y-126656720D01*
X155224933Y-126646296D01*
X155224888Y-126646008D01*
X155223140Y-126634409D01*
X155223101Y-126634140D01*
X155220912Y-126618855D01*
X155220939Y-126618280D01*
X155218976Y-126604912D01*
X155218841Y-126604529D01*
X155216830Y-126591378D01*
X155216804Y-126591204D01*
X155215311Y-126581120D01*
X155215292Y-126580990D01*
X155213822Y-126570813D01*
X155213787Y-126570566D01*
X155210851Y-126549228D01*
X155210814Y-126548948D01*
X155208046Y-126527631D01*
X155208010Y-126527350D01*
X155205280Y-126504988D01*
X155205251Y-126504741D01*
X155202671Y-126482363D01*
X155202643Y-126482114D01*
X155200099Y-126458655D01*
X155200075Y-126458427D01*
X155197669Y-126434888D01*
X155197648Y-126434677D01*
X155195297Y-126410295D01*
X155195277Y-126410078D01*
X155193073Y-126385725D01*
X155193056Y-126385531D01*
X155190956Y-126360888D01*
X155190940Y-126360695D01*
X155188870Y-126334802D01*
X155188856Y-126334617D01*
X155186985Y-126309646D01*
X155186972Y-126309470D01*
X155185100Y-126282783D01*
X155185089Y-126282619D01*
X155183384Y-126256670D01*
X155183373Y-126256498D01*
X155181741Y-126229754D01*
X155181732Y-126229598D01*
X155180166Y-126202026D01*
X155180157Y-126201874D01*
X155178734Y-126174860D01*
X155178792Y-126174856D01*
X155178725Y-126174704D01*
X155177419Y-126147754D01*
X155177413Y-126147611D01*
X155176150Y-126119293D01*
X155176144Y-126119144D01*
X155175009Y-126091173D01*
X155175003Y-126091035D01*
X155173975Y-126063125D01*
X155173971Y-126062993D01*
X155173007Y-126034033D01*
X155173002Y-126033889D01*
X155172179Y-126005898D01*
X155172175Y-126005769D01*
X155171415Y-125976441D01*
X155171412Y-125976312D01*
X155170785Y-125948349D01*
X155170781Y-125948149D01*
X155169782Y-125889527D01*
X155169779Y-125889276D01*
X155169186Y-125831597D01*
X155169184Y-125831342D01*
X155168987Y-125773284D01*
X155168987Y-125773033D01*
X155169184Y-125714398D01*
X155169186Y-125714143D01*
X155169779Y-125656274D01*
X155169781Y-125656085D01*
X155170242Y-125626014D01*
X155170244Y-125625880D01*
X155170764Y-125598421D01*
X155170766Y-125598291D01*
X155171425Y-125568899D01*
X155171426Y-125568899D01*
X155171428Y-125568762D01*
X155172188Y-125539647D01*
X155172191Y-125539517D01*
X155173022Y-125511461D01*
X155173023Y-125511461D01*
X155173026Y-125511323D01*
X155173970Y-125482978D01*
X155173975Y-125482833D01*
X155175003Y-125455215D01*
X155175008Y-125455078D01*
X155176160Y-125426933D01*
X155176166Y-125426787D01*
X155177404Y-125399196D01*
X155177406Y-125399196D01*
X155177410Y-125399051D01*
X155178732Y-125371948D01*
X155178740Y-125371796D01*
X155180172Y-125344715D01*
X155180180Y-125344556D01*
X155181726Y-125317515D01*
X155181730Y-125317515D01*
X155181735Y-125317357D01*
X155183400Y-125290261D01*
X155183410Y-125290098D01*
X155185132Y-125263954D01*
X155185136Y-125263954D01*
X155185143Y-125263784D01*
X155186917Y-125238600D01*
X155186929Y-125238427D01*
X155188903Y-125212155D01*
X155188909Y-125212155D01*
X155188916Y-125211981D01*
X155190960Y-125186387D01*
X155190976Y-125186194D01*
X155193059Y-125161716D01*
X155193075Y-125161527D01*
X155195298Y-125136894D01*
X155195317Y-125136690D01*
X155197648Y-125112366D01*
X155197668Y-125112166D01*
X155200078Y-125088374D01*
X155200101Y-125088150D01*
X155202649Y-125064432D01*
X155202673Y-125064214D01*
X155205256Y-125041438D01*
X155205284Y-125041202D01*
X155208007Y-125018493D01*
X155208038Y-125018241D01*
X155210812Y-124996375D01*
X155210845Y-124996122D01*
X155213770Y-124974271D01*
X155213809Y-124973990D01*
X155216810Y-124952802D01*
X155216851Y-124952519D01*
X155219957Y-124931738D01*
X155219978Y-124931592D01*
X155220008Y-124931382D01*
X155220445Y-124928326D01*
X155220481Y-124927575D01*
X155223116Y-124909376D01*
X155223161Y-124909070D01*
X155224801Y-124898372D01*
X155224846Y-124898089D01*
X155226593Y-124887253D01*
X155226644Y-124886946D01*
X155228374Y-124876759D01*
X155228427Y-124876456D01*
X155230327Y-124865805D01*
X155230384Y-124865488D01*
X155232249Y-124855533D01*
X155232312Y-124855208D01*
X155234314Y-124845025D01*
X155234376Y-124844714D01*
X155236361Y-124835055D01*
X155236435Y-124834707D01*
X155238512Y-124825070D01*
X155238582Y-124824749D01*
X155240791Y-124814923D01*
X155240874Y-124814565D01*
X155243044Y-124805340D01*
X155243132Y-124804974D01*
X155245456Y-124795525D01*
X155245543Y-124795177D01*
X155247877Y-124786068D01*
X155247976Y-124785689D01*
X155250379Y-124776707D01*
X155250476Y-124776352D01*
X155252953Y-124767448D01*
X155253068Y-124767043D01*
X155255574Y-124758415D01*
X155255689Y-124758027D01*
X155258268Y-124749496D01*
X155258392Y-124749095D01*
X155261112Y-124740452D01*
X155261234Y-124740070D01*
X155263958Y-124731730D01*
X155264104Y-124731294D01*
X155266895Y-124723095D01*
X155267040Y-124722676D01*
X155269838Y-124714767D01*
X155269983Y-124714367D01*
X155272884Y-124706457D01*
X155273047Y-124706019D01*
X155276073Y-124698079D01*
X155276248Y-124697629D01*
X155279190Y-124690201D01*
X155279363Y-124689773D01*
X155282516Y-124682093D01*
X155282802Y-124681415D01*
X155289171Y-124666737D01*
X155289587Y-124665814D01*
X155296189Y-124651669D01*
X155296636Y-124650744D01*
X155303509Y-124637023D01*
X155304005Y-124636067D01*
X155311108Y-124622859D01*
X155311637Y-124621909D01*
X155319023Y-124609090D01*
X155319599Y-124608125D01*
X155327197Y-124595816D01*
X155327819Y-124594843D01*
X155335673Y-124582963D01*
X155336334Y-124581997D01*
X155344410Y-124570581D01*
X155345105Y-124569630D01*
X155353450Y-124558594D01*
X155354195Y-124557641D01*
X155362839Y-124546953D01*
X155363621Y-124546018D01*
X155372497Y-124535752D01*
X155373311Y-124534841D01*
X155382434Y-124524966D01*
X155383277Y-124524084D01*
X155392718Y-124514516D01*
X155393593Y-124513658D01*
X155403230Y-124504516D01*
X155404126Y-124503693D01*
X155414113Y-124494823D01*
X155415019Y-124494044D01*
X155425314Y-124485477D01*
X155426244Y-124484728D01*
X155436808Y-124476498D01*
X155437739Y-124475797D01*
X155448567Y-124467895D01*
X155449501Y-124467235D01*
X155460577Y-124459664D01*
X155461516Y-124459042D01*
X155473063Y-124451653D01*
X155474000Y-124451073D01*
X155485805Y-124444004D01*
X155486710Y-124443480D01*
X155498775Y-124436710D01*
X155499682Y-124436217D01*
X155512127Y-124429682D01*
X155513017Y-124429230D01*
X155525931Y-124422886D01*
X155526797Y-124422474D01*
X155539740Y-124416526D01*
X155540577Y-124416154D01*
X155554094Y-124410342D01*
X155554902Y-124410006D01*
X155568765Y-124404429D01*
X155569552Y-124404123D01*
X155583674Y-124398812D01*
X155584428Y-124398538D01*
X155598921Y-124393442D01*
X155599657Y-124393191D01*
X155614446Y-124388337D01*
X155615124Y-124388122D01*
X155630467Y-124383410D01*
X155631129Y-124383213D01*
X155646628Y-124378767D01*
X155647260Y-124378592D01*
X155663245Y-124374311D01*
X155663851Y-124374154D01*
X155680210Y-124370067D01*
X155680776Y-124369931D01*
X155697160Y-124366110D01*
X155697687Y-124365991D01*
X155715019Y-124362214D01*
X155715524Y-124362107D01*
X155732679Y-124358618D01*
X155733158Y-124358524D01*
X155751100Y-124355120D01*
X155751545Y-124355038D01*
X155769501Y-124351858D01*
X155769905Y-124351789D01*
X155788416Y-124348721D01*
X155788818Y-124348657D01*
X155807637Y-124345750D01*
X155807991Y-124345697D01*
X155827181Y-124342922D01*
X155827533Y-124342873D01*
X155847141Y-124340229D01*
X155847438Y-124340190D01*
X155867266Y-124337679D01*
X155867564Y-124337642D01*
X155887822Y-124335243D01*
X155888087Y-124335213D01*
X155909099Y-124332878D01*
X155909335Y-124332853D01*
X155929936Y-124330697D01*
X155930166Y-124330673D01*
X155951829Y-124328542D01*
X155952032Y-124328523D01*
X155973728Y-124326509D01*
X155973918Y-124326567D01*
X155973912Y-124326493D01*
X155995997Y-124324553D01*
X155996002Y-124324610D01*
X155996156Y-124324539D01*
X156018376Y-124322684D01*
X156018524Y-124322731D01*
X156018520Y-124322673D01*
X156056077Y-124319684D01*
X156056190Y-124319675D01*
X156093418Y-124316827D01*
X156093527Y-124316862D01*
X156093524Y-124316820D01*
X156130141Y-124314123D01*
X156130143Y-124314159D01*
X156130241Y-124314115D01*
X156167776Y-124311454D01*
X156167778Y-124311491D01*
X156167878Y-124311446D01*
X156205411Y-124308890D01*
X156205512Y-124308924D01*
X156205510Y-124308884D01*
X156243662Y-124306387D01*
X156243664Y-124306421D01*
X156243757Y-124306380D01*
X156281456Y-124304011D01*
X156281550Y-124304043D01*
X156281548Y-124304006D01*
X156320489Y-124301655D01*
X156320626Y-124301647D01*
X156396048Y-124297374D01*
X156396051Y-124297440D01*
X156396223Y-124297364D01*
X156473369Y-124293360D01*
X156473542Y-124293421D01*
X156473539Y-124293352D01*
X156550795Y-124289695D01*
X156550797Y-124289758D01*
X156550960Y-124289687D01*
X156626825Y-124286436D01*
X156626948Y-124286431D01*
X156664686Y-124284940D01*
X156664759Y-124284966D01*
X156664758Y-124284938D01*
X156703114Y-124283496D01*
X156703115Y-124283528D01*
X156703200Y-124283492D01*
X156742012Y-124282124D01*
X156742092Y-124282153D01*
X156742091Y-124282122D01*
X156778647Y-124280910D01*
X156778647Y-124280939D01*
X156778723Y-124280907D01*
X156816631Y-124279729D01*
X156816712Y-124279760D01*
X156816712Y-124279727D01*
X156854936Y-124278622D01*
X156854936Y-124278652D01*
X156855015Y-124278619D01*
X156891088Y-124277654D01*
X156891164Y-124277652D01*
X156928166Y-124276738D01*
X156928247Y-124276736D01*
X156963679Y-124275938D01*
X156963679Y-124275969D01*
X156963758Y-124275936D01*
X157001181Y-124275174D01*
X157001259Y-124275204D01*
X157001259Y-124275173D01*
X157036810Y-124274523D01*
X157036810Y-124274557D01*
X157036897Y-124274521D01*
X157072320Y-124273958D01*
X157072320Y-124273988D01*
X157072397Y-124273956D01*
X157106998Y-124273478D01*
X157107083Y-124273511D01*
X157107083Y-124273477D01*
X157225739Y-124272107D01*
X157225883Y-124272045D01*
X157226267Y-124272041D01*
X157249638Y-124271900D01*
X157275937Y-124282608D01*
G37*
G36*
X157304650Y-124271683D02*
G01*
X157304698Y-124271703D01*
X157304699Y-124271684D01*
X157322537Y-124271720D01*
X157322590Y-124271742D01*
X157322591Y-124271721D01*
X157341530Y-124271787D01*
X157341577Y-124271807D01*
X157341578Y-124271788D01*
X157358357Y-124271868D01*
X157358358Y-124271868D01*
X157358585Y-124271869D01*
X157376539Y-124271979D01*
X157376586Y-124271999D01*
X157376587Y-124271980D01*
X157395887Y-124272123D01*
X157395937Y-124272144D01*
X157395938Y-124272124D01*
X157412943Y-124272273D01*
X157413078Y-124272274D01*
X157433087Y-124272478D01*
X157433276Y-124272480D01*
X157469527Y-124272914D01*
X157469618Y-124272953D01*
X157469619Y-124272916D01*
X157507908Y-124273469D01*
X157507994Y-124273506D01*
X157507995Y-124273471D01*
X157546335Y-124274115D01*
X157546334Y-124274115D01*
X157546427Y-124274116D01*
X157585138Y-124274862D01*
X157585137Y-124274862D01*
X157585222Y-124274863D01*
X157624767Y-124275715D01*
X157624854Y-124275717D01*
X157664280Y-124276659D01*
X157664362Y-124276661D01*
X157703767Y-124277690D01*
X157703852Y-124277727D01*
X157703853Y-124277693D01*
X157743858Y-124278830D01*
X157743939Y-124278866D01*
X157743941Y-124278833D01*
X157784448Y-124280075D01*
X157784447Y-124280075D01*
X157784533Y-124280077D01*
X157825555Y-124281429D01*
X157825643Y-124281432D01*
X157866690Y-124282882D01*
X157866772Y-124282885D01*
X157907509Y-124284414D01*
X157907638Y-124284419D01*
X157989847Y-124287792D01*
X157990022Y-124287800D01*
X158072331Y-124291566D01*
X158072506Y-124291648D01*
X158072510Y-124291575D01*
X158155681Y-124295783D01*
X158155680Y-124295786D01*
X158155823Y-124295790D01*
X158196742Y-124298018D01*
X158196832Y-124298061D01*
X158196835Y-124298024D01*
X158236935Y-124300308D01*
X158237036Y-124300314D01*
X158278557Y-124302793D01*
X158278656Y-124302799D01*
X158319209Y-124305329D01*
X158319208Y-124305331D01*
X158319311Y-124305335D01*
X158359548Y-124307957D01*
X158359655Y-124308010D01*
X158359659Y-124307965D01*
X158399632Y-124310690D01*
X158399631Y-124310693D01*
X158399742Y-124310697D01*
X158439976Y-124313560D01*
X158440088Y-124313616D01*
X158440092Y-124313569D01*
X158478761Y-124316442D01*
X158478883Y-124316451D01*
X158518454Y-124319522D01*
X158518453Y-124319526D01*
X158518575Y-124319531D01*
X158556855Y-124322628D01*
X158556952Y-124322636D01*
X158579420Y-124324513D01*
X158579574Y-124324526D01*
X158601989Y-124326493D01*
X158602175Y-124326510D01*
X158624107Y-124328546D01*
X158624304Y-124328565D01*
X158645401Y-124330637D01*
X158645627Y-124330660D01*
X158666747Y-124332865D01*
X158666967Y-124332984D01*
X158666978Y-124332890D01*
X158687951Y-124335212D01*
X158688224Y-124335244D01*
X158708558Y-124337648D01*
X158708837Y-124337682D01*
X158728858Y-124340203D01*
X158729165Y-124340243D01*
X158748673Y-124342865D01*
X158749008Y-124342911D01*
X158768415Y-124345700D01*
X158768776Y-124345754D01*
X158787833Y-124348684D01*
X158788220Y-124348745D01*
X158806600Y-124351770D01*
X158807010Y-124351840D01*
X158825464Y-124355090D01*
X158825898Y-124355169D01*
X158843589Y-124358502D01*
X158844058Y-124358594D01*
X158861747Y-124362163D01*
X158862244Y-124362267D01*
X158879197Y-124365930D01*
X158879727Y-124366048D01*
X158896791Y-124369997D01*
X158897349Y-124370131D01*
X158913689Y-124374180D01*
X158914276Y-124374331D01*
X158930550Y-124378647D01*
X158931162Y-124378815D01*
X158946737Y-124383232D01*
X158947395Y-124383425D01*
X158962790Y-124388100D01*
X158963470Y-124388313D01*
X158978536Y-124393206D01*
X158979262Y-124393450D01*
X158994031Y-124398586D01*
X158994758Y-124398848D01*
X159009052Y-124404155D01*
X159009830Y-124404454D01*
X159023901Y-124410041D01*
X159024710Y-124410373D01*
X159038344Y-124416162D01*
X159039164Y-124416522D01*
X159052488Y-124422563D01*
X159053343Y-124422964D01*
X159066331Y-124429256D01*
X159067209Y-124429696D01*
X159079812Y-124436219D01*
X159080695Y-124436691D01*
X159093049Y-124443514D01*
X159093969Y-124444039D01*
X159105983Y-124451129D01*
X159106901Y-124451689D01*
X159118615Y-124459068D01*
X159119539Y-124459669D01*
X159130864Y-124467282D01*
X159131797Y-124467931D01*
X159142830Y-124475849D01*
X159143754Y-124476533D01*
X159154518Y-124484775D01*
X159155445Y-124485509D01*
X159165923Y-124494075D01*
X159166841Y-124494851D01*
X159177014Y-124503733D01*
X159177904Y-124504536D01*
X159187698Y-124513661D01*
X159188576Y-124514506D01*
X159198249Y-124524131D01*
X159199097Y-124525003D01*
X159208382Y-124534868D01*
X159209205Y-124535772D01*
X159218286Y-124546081D01*
X159219070Y-124547000D01*
X159227870Y-124557671D01*
X159228623Y-124558616D01*
X159237097Y-124569602D01*
X159237809Y-124570555D01*
X159246093Y-124582038D01*
X159246768Y-124583007D01*
X159254785Y-124594900D01*
X159255416Y-124595868D01*
X159263167Y-124608177D01*
X159263757Y-124609147D01*
X159271271Y-124621931D01*
X159271814Y-124622886D01*
X159279062Y-124636098D01*
X159279574Y-124637065D01*
X159286539Y-124650700D01*
X159287001Y-124651637D01*
X159293767Y-124665857D01*
X159294193Y-124666786D01*
X159300729Y-124681558D01*
X159301028Y-124682251D01*
X159304156Y-124689728D01*
X159304337Y-124690170D01*
X159307417Y-124697807D01*
X159307586Y-124698234D01*
X159310611Y-124706011D01*
X159310787Y-124706472D01*
X159313741Y-124714376D01*
X159313897Y-124714799D01*
X159316774Y-124722792D01*
X159316921Y-124723209D01*
X159319747Y-124731364D01*
X159319892Y-124731791D01*
X159322660Y-124740104D01*
X159322793Y-124740513D01*
X159325480Y-124748906D01*
X159325612Y-124749325D01*
X159328408Y-124758428D01*
X159328523Y-124758812D01*
X159330909Y-124766890D01*
X159331026Y-124767293D01*
X159333608Y-124776413D01*
X159333714Y-124776796D01*
X159336134Y-124785707D01*
X159336234Y-124786082D01*
X159338674Y-124795453D01*
X159338770Y-124795830D01*
X159340993Y-124804751D01*
X159341079Y-124805103D01*
X159343362Y-124814661D01*
X159343450Y-124815037D01*
X159345621Y-124824564D01*
X159345696Y-124824903D01*
X159347825Y-124834667D01*
X159347897Y-124835003D01*
X159349930Y-124844759D01*
X159350003Y-124845118D01*
X159352005Y-124855225D01*
X159352062Y-124855520D01*
X159354009Y-124865785D01*
X159354074Y-124866138D01*
X159355889Y-124876239D01*
X159355944Y-124876551D01*
X159357772Y-124887249D01*
X159357823Y-124887556D01*
X159359570Y-124898323D01*
X159359617Y-124898618D01*
X159361177Y-124908748D01*
X159361221Y-124909045D01*
X159362863Y-124920313D01*
X159362904Y-124920599D01*
X159364371Y-124931245D01*
X159364483Y-124932144D01*
X159366808Y-124952724D01*
X159366830Y-124952917D01*
X159369161Y-124974564D01*
X159369178Y-124974729D01*
X159371385Y-124996124D01*
X159371402Y-124996289D01*
X159373598Y-125018551D01*
X159373614Y-125018715D01*
X159375738Y-125041275D01*
X159375751Y-125041424D01*
X159377783Y-125063975D01*
X159377797Y-125064131D01*
X159379883Y-125088433D01*
X159379895Y-125088576D01*
X159381850Y-125112435D01*
X159381861Y-125112572D01*
X159383739Y-125136582D01*
X159383744Y-125136721D01*
X159383750Y-125136721D01*
X159385626Y-125161917D01*
X159385636Y-125162064D01*
X159387389Y-125186939D01*
X159387393Y-125187061D01*
X159387398Y-125187061D01*
X159389084Y-125212157D01*
X159389092Y-125212287D01*
X159390757Y-125238443D01*
X159390765Y-125238572D01*
X159392326Y-125264513D01*
X159392333Y-125264635D01*
X159393813Y-125290668D01*
X159393820Y-125290796D01*
X159395269Y-125317940D01*
X159395275Y-125318059D01*
X159396564Y-125343745D01*
X159396570Y-125343868D01*
X159397881Y-125371854D01*
X159397883Y-125371973D01*
X159397887Y-125371973D01*
X159399086Y-125399443D01*
X159399091Y-125399562D01*
X159400189Y-125426716D01*
X159400193Y-125426833D01*
X159401247Y-125455106D01*
X159401249Y-125455230D01*
X159401252Y-125455230D01*
X159402178Y-125482510D01*
X159402156Y-125482567D01*
X159402181Y-125482624D01*
X159403072Y-125511498D01*
X159403073Y-125511616D01*
X159403076Y-125511616D01*
X159403864Y-125540069D01*
X159403867Y-125540191D01*
X159404564Y-125568758D01*
X159404565Y-125568878D01*
X159404567Y-125568878D01*
X159405178Y-125597711D01*
X159405180Y-125597823D01*
X159405705Y-125626735D01*
X159405707Y-125626858D01*
X159406131Y-125655381D01*
X159406133Y-125655563D01*
X159406715Y-125714130D01*
X159406717Y-125714376D01*
X159406911Y-125772901D01*
X159406911Y-125773149D01*
X159406714Y-125831499D01*
X159406712Y-125831745D01*
X159406135Y-125889462D01*
X159406132Y-125889700D01*
X159405174Y-125948020D01*
X159405171Y-125948200D01*
X159404558Y-125977031D01*
X159404555Y-125977146D01*
X159403864Y-126005483D01*
X159403861Y-126005602D01*
X159403077Y-126034022D01*
X159403073Y-126034140D01*
X159402191Y-126062817D01*
X159402188Y-126062932D01*
X159401240Y-126090912D01*
X159401236Y-126091027D01*
X159400182Y-126119538D01*
X159400177Y-126119662D01*
X159399075Y-126146992D01*
X159399070Y-126147107D01*
X159397859Y-126174981D01*
X159397854Y-126175097D01*
X159396595Y-126202135D01*
X159396589Y-126202262D01*
X159395220Y-126229631D01*
X159395214Y-126229748D01*
X159393785Y-126256619D01*
X159393777Y-126256750D01*
X159392340Y-126282088D01*
X159392333Y-126282208D01*
X159390700Y-126309433D01*
X159390692Y-126309568D01*
X159389080Y-126334900D01*
X159389072Y-126335027D01*
X159387348Y-126360724D01*
X159387338Y-126360863D01*
X159385587Y-126385573D01*
X159385577Y-126385716D01*
X159383694Y-126410915D01*
X159383683Y-126411058D01*
X159381828Y-126434655D01*
X159381816Y-126434802D01*
X159379831Y-126458824D01*
X159379818Y-126458983D01*
X159377795Y-126482249D01*
X159377780Y-126482410D01*
X159375743Y-126504706D01*
X159375728Y-126504870D01*
X159373581Y-126527273D01*
X159373563Y-126527450D01*
X159371391Y-126549026D01*
X159371372Y-126549214D01*
X159369093Y-126570753D01*
X159369079Y-126570887D01*
X159367979Y-126580933D01*
X159367965Y-126581052D01*
X159366763Y-126591713D01*
X159366752Y-126591809D01*
X159365662Y-126601254D01*
X159365650Y-126601359D01*
X159364482Y-126611233D01*
X159364402Y-126611862D01*
X159362857Y-126623251D01*
X159362820Y-126623520D01*
X159361324Y-126633974D01*
X159361278Y-126634282D01*
X159359487Y-126646088D01*
X159359441Y-126646387D01*
X159357816Y-126656541D01*
X159357768Y-126656833D01*
X159355886Y-126668019D01*
X159355830Y-126668343D01*
X159354068Y-126678277D01*
X159354010Y-126678595D01*
X159352047Y-126689129D01*
X159351983Y-126689463D01*
X159349991Y-126699634D01*
X159349926Y-126699959D01*
X159347918Y-126709747D01*
X159347847Y-126710084D01*
X159345697Y-126720091D01*
X159345618Y-126720453D01*
X159343402Y-126730288D01*
X159343322Y-126730635D01*
X159341090Y-126740116D01*
X159340998Y-126740496D01*
X159338659Y-126749982D01*
X159338572Y-126750330D01*
X159336250Y-126759370D01*
X159336148Y-126759758D01*
X159333648Y-126769072D01*
X159333542Y-126769455D01*
X159331109Y-126778146D01*
X159330997Y-126778538D01*
X159328325Y-126787694D01*
X159328205Y-126788097D01*
X159325587Y-126796704D01*
X159325461Y-126797112D01*
X159322813Y-126805471D01*
X159322682Y-126805874D01*
X159319886Y-126814362D01*
X159319741Y-126814796D01*
X159316919Y-126823020D01*
X159316776Y-126823428D01*
X159313862Y-126831609D01*
X159313699Y-126832059D01*
X159310740Y-126840039D01*
X159310578Y-126840466D01*
X159307579Y-126848258D01*
X159307401Y-126848713D01*
X159304280Y-126856514D01*
X159304097Y-126856961D01*
X159300966Y-126864501D01*
X159300772Y-126864961D01*
X159297536Y-126872467D01*
X159297334Y-126872925D01*
X159294127Y-126880096D01*
X159293917Y-126880558D01*
X159290497Y-126887933D01*
X159290272Y-126888410D01*
X159286960Y-126895294D01*
X159286606Y-126896010D01*
X159279561Y-126909880D01*
X159279053Y-126910844D01*
X159271780Y-126924178D01*
X159271232Y-126925149D01*
X159263751Y-126937935D01*
X159263153Y-126938921D01*
X159255384Y-126951300D01*
X159254747Y-126952280D01*
X159246746Y-126964179D01*
X159246065Y-126965157D01*
X159237842Y-126976576D01*
X159237128Y-126977534D01*
X159228574Y-126988640D01*
X159227809Y-126989601D01*
X159219092Y-127000175D01*
X159218290Y-127001116D01*
X159209237Y-127011381D01*
X159208412Y-127012285D01*
X159199044Y-127022226D01*
X159198177Y-127023116D01*
X159188642Y-127032578D01*
X159187750Y-127033434D01*
X159177847Y-127042627D01*
X159176948Y-127043434D01*
X159166829Y-127052232D01*
X159165895Y-127053018D01*
X159155405Y-127061549D01*
X159154468Y-127062287D01*
X159143749Y-127070446D01*
X159142808Y-127071139D01*
X159131821Y-127078968D01*
X159130876Y-127079619D01*
X159119473Y-127087224D01*
X159118541Y-127087826D01*
X159106853Y-127095126D01*
X159105913Y-127095694D01*
X159094041Y-127102629D01*
X159093134Y-127103142D01*
X159080662Y-127109965D01*
X159079754Y-127110445D01*
X159067208Y-127116864D01*
X159066328Y-127117300D01*
X159053367Y-127123504D01*
X159052511Y-127123900D01*
X159039154Y-127129881D01*
X159038331Y-127130238D01*
X159024619Y-127135984D01*
X159023810Y-127136312D01*
X159009857Y-127141777D01*
X159009088Y-127142068D01*
X158994707Y-127147336D01*
X158993968Y-127147598D01*
X158979262Y-127152635D01*
X158978548Y-127152872D01*
X158963537Y-127157676D01*
X158962867Y-127157883D01*
X158947468Y-127162492D01*
X158946817Y-127162680D01*
X158930993Y-127167103D01*
X158930392Y-127167266D01*
X158914239Y-127171490D01*
X158913661Y-127171636D01*
X158897279Y-127175640D01*
X158896726Y-127175771D01*
X158879853Y-127179622D01*
X158879342Y-127179735D01*
X158862151Y-127183404D01*
X158861674Y-127183502D01*
X158844203Y-127186992D01*
X158843746Y-127187081D01*
X158825708Y-127190449D01*
X158825284Y-127190525D01*
X158807178Y-127193689D01*
X158806781Y-127193756D01*
X158788183Y-127196798D01*
X158787823Y-127196855D01*
X158768696Y-127199791D01*
X158768357Y-127199842D01*
X158749156Y-127202608D01*
X158748838Y-127202652D01*
X158729035Y-127205330D01*
X158728750Y-127205368D01*
X158708595Y-127207935D01*
X158708330Y-127207968D01*
X158688288Y-127210374D01*
X158688043Y-127210402D01*
X158666961Y-127212791D01*
X158666745Y-127212815D01*
X158645876Y-127215056D01*
X158645675Y-127215077D01*
X158623773Y-127217308D01*
X158623602Y-127217325D01*
X158602744Y-127219352D01*
X158602580Y-127219368D01*
X158579714Y-127221488D01*
X158579572Y-127221500D01*
X158557660Y-127223446D01*
X158557543Y-127223458D01*
X158557213Y-127223488D01*
X158543125Y-127224710D01*
X158542882Y-127224831D01*
X158518812Y-127227086D01*
X158518607Y-127227105D01*
X158479200Y-127230577D01*
X158479007Y-127230593D01*
X158439936Y-127233830D01*
X158439753Y-127233845D01*
X158399960Y-127236943D01*
X158399789Y-127236956D01*
X158359800Y-127239884D01*
X158359633Y-127239896D01*
X158319221Y-127242672D01*
X158319063Y-127242682D01*
X158278917Y-127245267D01*
X158278767Y-127245277D01*
X158237744Y-127247752D01*
X158237601Y-127247760D01*
X158196467Y-127250082D01*
X158196326Y-127250090D01*
X158155628Y-127252232D01*
X158155501Y-127252238D01*
X158113922Y-127254284D01*
X158113799Y-127254290D01*
X158073161Y-127256154D01*
X158072980Y-127256162D01*
X157990318Y-127259549D01*
X157990153Y-127259555D01*
X157948556Y-127261074D01*
X157948450Y-127261078D01*
X157907757Y-127262448D01*
X157907651Y-127262451D01*
X157865943Y-127263735D01*
X157865849Y-127263738D01*
X157825979Y-127264865D01*
X157825889Y-127264868D01*
X157785161Y-127265920D01*
X157785070Y-127265922D01*
X157744937Y-127266860D01*
X157744851Y-127266862D01*
X157703401Y-127267735D01*
X157703316Y-127267736D01*
X157664199Y-127268470D01*
X157664122Y-127268472D01*
X157623870Y-127269144D01*
X157623792Y-127269145D01*
X157585493Y-127269704D01*
X157585419Y-127269705D01*
X157545882Y-127270203D01*
X157545807Y-127270204D01*
X157507707Y-127270607D01*
X157507647Y-127270608D01*
X157469644Y-127270948D01*
X157469575Y-127270948D01*
X157431680Y-127271217D01*
X157431618Y-127271217D01*
X157396509Y-127271407D01*
X157396465Y-127271408D01*
X157377324Y-127271489D01*
X157377294Y-127271489D01*
X157359466Y-127271550D01*
X157359437Y-127271550D01*
X157339420Y-127271603D01*
X157339386Y-127271603D01*
X157324905Y-127271628D01*
X157324883Y-127271628D01*
X157305566Y-127271650D01*
X157305535Y-127271650D01*
X157288159Y-127271655D01*
X157288055Y-127271655D01*
X157226327Y-127271500D01*
X157226054Y-127271386D01*
X157226054Y-127271388D01*
X157171406Y-127271011D01*
X157145248Y-127259964D01*
X157134562Y-127233912D01*
X157134562Y-126242686D01*
X157145428Y-126216452D01*
X157171662Y-126205586D01*
X157190301Y-126210608D01*
X157202190Y-126217516D01*
X157202193Y-126217518D01*
X157686109Y-126498638D01*
X157686886Y-126499072D01*
X157687684Y-126499619D01*
X157691358Y-126501510D01*
X157692086Y-126501951D01*
X157693765Y-126502745D01*
X157697869Y-126505013D01*
X157698595Y-126505476D01*
X157699465Y-126505851D01*
X157699470Y-126505840D01*
X157702158Y-126506937D01*
X157702300Y-126506995D01*
X157702811Y-126507206D01*
X157702804Y-126507221D01*
X157703624Y-126507542D01*
X157704457Y-126507720D01*
X157709023Y-126509006D01*
X157713464Y-126510569D01*
X157715973Y-126511072D01*
X157723690Y-126513208D01*
X157724563Y-126513250D01*
X157732564Y-126512895D01*
X157739987Y-126513521D01*
X157740121Y-126513550D01*
X157740149Y-126513547D01*
X157747902Y-126513657D01*
X157755618Y-126514833D01*
X157756998Y-126514910D01*
X157757095Y-126514893D01*
X157761844Y-126514354D01*
X157763229Y-126514286D01*
X157763326Y-126514272D01*
X157764710Y-126513932D01*
X157769396Y-126513092D01*
X157770711Y-126512942D01*
X157770867Y-126512909D01*
X157772250Y-126512475D01*
X157776810Y-126511355D01*
X157778025Y-126511136D01*
X157778453Y-126511018D01*
X157779724Y-126510530D01*
X157784181Y-126509131D01*
X157785575Y-126508788D01*
X157786917Y-126508174D01*
X157791245Y-126506512D01*
X157792529Y-126506108D01*
X157792765Y-126506008D01*
X157793993Y-126505352D01*
X157798190Y-126503431D01*
X157799482Y-126502934D01*
X157799545Y-126502903D01*
X157799685Y-126502832D01*
X157800851Y-126502113D01*
X157804923Y-126499934D01*
X157806334Y-126499288D01*
X157807577Y-126498411D01*
X157811483Y-126496000D01*
X157812772Y-126495310D01*
X157813934Y-126494376D01*
X157817703Y-126491712D01*
X157818995Y-126490914D01*
X157818998Y-126490911D01*
X157820099Y-126489907D01*
X157823702Y-126487007D01*
X157824955Y-126486121D01*
X157825978Y-126485063D01*
X157829405Y-126481935D01*
X157830583Y-126480987D01*
X157832152Y-126479138D01*
X157833017Y-126476783D01*
X157844558Y-126460685D01*
X157846162Y-126459391D01*
X157848066Y-126456445D01*
X157848327Y-126455797D01*
X157851878Y-126449438D01*
X157851881Y-126449430D01*
X157855264Y-126442252D01*
X157859293Y-126435953D01*
X157859840Y-126434893D01*
X157861883Y-126427098D01*
X157862681Y-126424751D01*
X157863569Y-126420072D01*
X157864752Y-126415466D01*
X157865021Y-126414642D01*
X157865182Y-126413591D01*
X157865176Y-126413591D01*
X157865604Y-126410476D01*
X157865606Y-126410476D01*
X157865751Y-126409269D01*
X157865717Y-126408461D01*
X157865817Y-126403736D01*
X157866014Y-126401413D01*
X157865983Y-126400479D01*
X157866050Y-126399173D01*
X157866161Y-126392423D01*
X157866115Y-126391881D01*
X157866115Y-125157719D01*
X157866136Y-125157249D01*
X157866044Y-125151734D01*
X157865829Y-125147518D01*
X157865818Y-125147383D01*
X157865814Y-125147225D01*
X157865797Y-125146879D01*
X157865807Y-125146878D01*
X157865717Y-125142626D01*
X157865752Y-125141806D01*
X157865618Y-125140689D01*
X157865613Y-125140690D01*
X157865185Y-125137553D01*
X157865189Y-125137552D01*
X157865006Y-125136375D01*
X157864756Y-125135605D01*
X157863586Y-125131049D01*
X157862703Y-125126407D01*
X157861896Y-125124040D01*
X157859848Y-125116218D01*
X157859470Y-125115484D01*
X157855208Y-125108837D01*
X157851873Y-125101824D01*
X157851822Y-125101666D01*
X157848346Y-125095318D01*
X157845196Y-125087408D01*
X157845066Y-125087156D01*
X157844595Y-125086601D01*
X157841726Y-125082732D01*
X157840977Y-125081572D01*
X157839929Y-125080482D01*
X157836879Y-125076878D01*
X157836054Y-125075766D01*
X157835941Y-125075642D01*
X157834875Y-125074665D01*
X157831636Y-125071297D01*
X157830776Y-125070282D01*
X157830645Y-125070154D01*
X157829539Y-125069261D01*
X157826097Y-125066105D01*
X157825120Y-125065088D01*
X157823864Y-125064198D01*
X157820272Y-125061298D01*
X157819156Y-125060276D01*
X157817865Y-125059476D01*
X157814104Y-125056807D01*
X157812945Y-125055871D01*
X157811630Y-125055164D01*
X157807735Y-125052748D01*
X157806497Y-125051870D01*
X157805141Y-125051247D01*
X157801090Y-125049072D01*
X157799939Y-125048358D01*
X157799700Y-125048238D01*
X157798425Y-125047745D01*
X157794270Y-125045834D01*
X157792901Y-125045099D01*
X157792885Y-125045092D01*
X157791469Y-125044644D01*
X157787159Y-125042979D01*
X157785948Y-125042422D01*
X157785628Y-125042311D01*
X157784400Y-125042006D01*
X157779932Y-125040591D01*
X157778739Y-125040128D01*
X157778272Y-125039998D01*
X157777086Y-125039782D01*
X157772546Y-125038654D01*
X157771130Y-125038205D01*
X157771125Y-125038204D01*
X157769731Y-125038043D01*
X157765050Y-125037193D01*
X157763554Y-125036821D01*
X157763546Y-125036819D01*
X157762136Y-125036748D01*
X157757421Y-125036200D01*
X157755850Y-125036285D01*
X157748350Y-125037423D01*
X157740805Y-125037518D01*
X157740487Y-125037481D01*
X157733042Y-125038105D01*
X157732824Y-125038168D01*
X157725086Y-125039324D01*
X157717049Y-125039477D01*
X157716165Y-125039577D01*
X157709380Y-125041938D01*
X157706601Y-125043476D01*
X157706054Y-125042488D01*
X157697187Y-125045998D01*
X157697532Y-125047221D01*
X157693996Y-125048217D01*
X157690084Y-125050213D01*
X157683349Y-125053944D01*
X157682887Y-125054283D01*
X157229314Y-125315478D01*
X157229312Y-125315480D01*
X157190174Y-125338014D01*
X157162017Y-125341686D01*
X157139510Y-125324374D01*
X157134562Y-125305862D01*
X157134562Y-124309833D01*
X157145428Y-124283599D01*
X157171235Y-124272735D01*
X157225739Y-124272107D01*
X157225883Y-124272045D01*
X157226266Y-124272041D01*
X157287244Y-124271672D01*
X157287495Y-124271671D01*
X157304650Y-124271683D01*
G37*
M02*
