M48
; DRILL file {KiCad 9.0.8-1.fc42} date 2026-04-09T21:14:08+0300
; FORMAT={-:-/ absolute / metric / decimal}
; #@! TF.CreationDate,2026-04-09T21:14:08+03:00
; #@! TF.GenerationSoftware,Kicad,Pcbnew,9.0.8-1.fc42
; #@! TF.FileFunction,Plated,1,2,PTH
FMAT,2
METRIC
; #@! TA.AperFunction,Plated,PTH,ViaDrill
T1C0.300
; #@! TA.AperFunction,Plated,PTH,ViaDrill
T2C0.350
; #@! TA.AperFunction,Plated,PTH,ComponentDrill
T3C0.838
%
G90
G05
T1
X146.925Y-91.0
X147.725Y-90.975
X148.5Y-91.025
X149.325Y-91.05
X175.575Y-107.125
T2
X119.926Y-104.702
X123.55Y-100.65
X125.641Y-102.289
X125.641Y-113.719
X126.276Y-98.86
X126.601Y-117.585
X127.313Y-97.844
X128.245Y-122.672
X128.435Y-119.18
X128.753Y-93.462
X133.261Y-97.209
X133.769Y-104.829
X133.896Y-88.319
X135.928Y-102.67
X137.706Y-128.959
X138.191Y-132.538
X139.103Y-130.356
X139.611Y-85.821
X140.119Y-97.463
X140.353Y-85.292
X142.024Y-95.177
X143.548Y-89.97
X144.55Y-88.446
X145.326Y-92.764
X146.596Y-123.244
X148.501Y-132.345
X150.406Y-88.319
X151.676Y-92.743
X153.073Y-83.112
X153.073Y-86.033
X154.089Y-83.112
X155.359Y-95.198
X156.629Y-95.177
X157.599Y-83.56
X158.471Y-130.419
X159.423Y-132.134
X159.931Y-83.874
X161.836Y-97.209
X163.106Y-128.324
X163.741Y-87.684
X168.4Y-108.025
X168.758Y-122.672
X168.821Y-102.289
X168.821Y-103.813
X168.821Y-105.337
X169.075Y-96.193
X169.583Y-118.418
X170.345Y-98.479
X170.726Y-117.529
X171.107Y-103.813
X172.61Y-97.971
X175.785Y-111.814
X178.473Y-106.988
T3
X146.501Y-76.504
X146.501Y-78.504
X146.501Y-80.754
X146.501Y-82.754
X148.501Y-76.504
X148.501Y-78.504
X148.501Y-80.754
X148.501Y-82.754
X150.501Y-76.504
X150.501Y-78.504
X150.501Y-80.754
X150.501Y-82.754
M30
